<svg width="100" height="100" viewBox="0 0 100 100" fill="none" xmlns="http://www.w3.org/2000/svg">
<path d="M0 50C0 22.3858 22.3858 0 50 0C77.6142 0 100 22.3858 100 50C100 77.6142 77.6142 100 50 100C22.3858 100 0 77.6142 0 50Z" fill="#333333"/>
<path d="M40.0001 79.9998C45.523 79.9998 50.0001 75.5227 50.0001 69.9998V59.9998H40.0001C34.4771 59.9998 30.0001 64.477 30.0001 69.9998C30.0001 75.5227 34.4771 79.9998 40.0001 79.9998Z" fill="#0ACF83"/>
<path d="M30.0001 49.9999C30.0001 44.477 34.4771 39.9999 40.0001 39.9999H50.0001V59.9999H40.0001C34.4771 59.9999 30.0001 55.5226 30.0001 49.9999Z" fill="#A259FF"/>
<path d="M30.0001 30C30.0001 24.4771 34.4771 20 40.0001 20H50.0001V40H40.0001C34.4771 40 30.0001 35.5227 30.0001 30Z" fill="#F24E1E"/>
<path d="M50 20H60C65.5229 20 70 24.4771 70 30C70 35.5227 65.5229 40 60 40H50V20Z" fill="#FF7262"/>
<path d="M70 49.9999C70 55.5226 65.5229 59.9999 60 59.9999C54.4771 59.9999 50 55.5226 50 49.9999C50 44.477 54.4771 39.9999 60 39.9999C65.5229 39.9999 70 44.477 70 49.9999Z" fill="#1ABCFE"/>
</svg>
