<svg width="1072" height="974" viewBox="0 0 1072 974" fill="none" xmlns="http://www.w3.org/2000/svg">
    <g filter="url(#filter0_d_40_10572)">
        <rect x="558" y="669" width="505" height="292" rx="25" stroke="#256869" stroke-width="10"
            shape-rendering="crispEdges" />
    </g>
    <path
        d="M604.988 824.196H601.784V837.732C601.784 840.756 602.18 844.716 602.252 845.292L592.064 824.196H587.6V849H590.804V837.624C590.804 833.016 590.516 829.992 590.336 827.94L600.416 849H604.988V824.196ZM620.187 829.596C614.787 829.596 611.691 833.664 611.691 839.532C611.691 845.544 614.751 849.432 620.151 849.432C625.515 849.432 628.611 845.364 628.611 839.496C628.611 833.484 625.587 829.596 620.187 829.596ZM620.187 832.26C623.319 832.26 625.047 834.564 625.047 839.496C625.047 844.464 623.319 846.768 620.151 846.768C616.983 846.768 615.255 844.464 615.255 839.532C615.255 834.564 617.019 832.26 620.187 832.26ZM643.464 845.94C642.528 846.444 641.772 846.696 640.944 846.696C639.288 846.696 638.676 845.796 638.676 843.888V832.584H642.816L643.176 830.028H638.676V825.348L635.364 825.744V830.028H632.052V832.584H635.364V844.032C635.364 847.56 637.272 849.432 640.476 849.432C642.096 849.432 643.464 849 644.724 848.136L643.464 845.94ZM663.413 824.196H659.993V849H663.413V824.196ZM680.423 829.596C677.939 829.596 675.923 830.892 674.627 832.836L674.339 830.028H671.495V849H674.807V835.536C676.067 833.52 677.507 832.188 679.631 832.188C681.467 832.188 682.619 833.016 682.619 835.86V849H685.931V835.392C685.931 831.792 683.915 829.596 680.423 829.596ZM701.97 845.94C701.034 846.444 700.278 846.696 699.45 846.696C697.794 846.696 697.182 845.796 697.182 843.888V832.584H701.322L701.682 830.028H697.182V825.348L693.87 825.744V830.028H690.558V832.584H693.87V844.032C693.87 847.56 695.778 849.432 698.982 849.432C700.602 849.432 701.97 849 703.23 848.136L701.97 845.94ZM721.839 830.028H718.527V843.564C717.375 845.472 715.827 846.84 713.775 846.84C711.723 846.84 710.859 845.868 710.859 843.276V830.028H707.547V843.636C707.547 847.344 709.527 849.432 712.839 849.432C715.539 849.432 717.303 848.352 718.743 846.048L718.995 849H721.839V830.028ZM731.365 820.92C729.997 820.92 729.061 821.892 729.061 823.188C729.061 824.448 729.997 825.42 731.365 825.42C732.769 825.42 733.705 824.448 733.705 823.188C733.705 821.892 732.769 820.92 731.365 820.92ZM733.057 830.028H729.745V849H733.057V830.028ZM749.286 845.94C748.35 846.444 747.594 846.696 746.766 846.696C745.11 846.696 744.498 845.796 744.498 843.888V832.584H748.638L748.998 830.028H744.498V825.348L741.186 825.744V830.028H737.874V832.584H741.186V844.032C741.186 847.56 743.094 849.432 746.298 849.432C747.918 849.432 749.286 849 750.546 848.136L749.286 845.94ZM756.663 820.92C755.295 820.92 754.359 821.892 754.359 823.188C754.359 824.448 755.295 825.42 756.663 825.42C758.067 825.42 759.003 824.448 759.003 823.188C759.003 821.892 758.067 820.92 756.663 820.92ZM758.355 830.028H755.043V849H758.355V830.028ZM780.2 830.028H776.708L771.776 846.048L766.808 830.028H763.208L769.76 849H773.756L780.2 830.028ZM799.239 838.956C799.239 833.16 796.539 829.596 791.427 829.596C786.531 829.596 783.543 833.808 783.543 839.712C783.543 845.724 786.639 849.432 791.931 849.432C794.559 849.432 796.683 848.532 798.555 847.056L797.115 845.076C795.459 846.228 794.055 846.732 792.183 846.732C789.447 846.732 787.395 845.04 787.071 840.648H799.167C799.203 840.216 799.239 839.604 799.239 838.956ZM795.963 838.2H787.071C787.323 833.988 788.979 832.224 791.499 832.224C794.487 832.224 795.963 834.276 795.963 837.984V838.2ZM825.113 829.596C822.629 829.596 820.613 830.892 819.317 832.836L819.029 830.028H816.185V849H819.497V835.536C820.757 833.52 822.197 832.188 824.321 832.188C826.157 832.188 827.309 833.016 827.309 835.86V849H830.621V835.392C830.621 831.792 828.605 829.596 825.113 829.596ZM851.124 844.572V835.896C851.124 831.936 849.036 829.596 844.464 829.596C842.34 829.596 840.252 830.028 837.912 830.892L838.74 833.304C840.684 832.656 842.448 832.296 843.852 832.296C846.48 832.296 847.812 833.304 847.812 836.04V837.444H844.896C839.604 837.444 836.544 839.64 836.544 843.708C836.544 847.092 838.812 849.432 842.592 849.432C844.896 849.432 846.912 848.568 848.244 846.588C848.82 848.46 850.044 849.216 851.952 849.432L852.708 847.128C851.736 846.768 851.124 846.228 851.124 844.572ZM843.348 846.948C841.188 846.948 840.072 845.76 840.072 843.528C840.072 840.936 841.836 839.64 845.328 839.64H847.812V843.996C846.732 845.976 845.292 846.948 843.348 846.948ZM872.396 830.028H868.904L863.972 846.048L859.004 830.028H855.404L861.956 849H865.952L872.396 830.028ZM878.868 820.92C877.5 820.92 876.564 821.892 876.564 823.188C876.564 824.448 877.5 825.42 878.868 825.42C880.272 825.42 881.208 824.448 881.208 823.188C881.208 821.892 880.272 820.92 878.868 820.92ZM880.56 830.028H877.248V849H880.56V830.028ZM902.801 827.904C900.569 828.912 898.841 829.704 894.125 829.596C889.949 829.596 886.817 832.332 886.817 836.22C886.817 838.668 887.825 840.324 890.021 841.476C888.653 842.376 887.933 843.6 887.933 844.824C887.933 846.732 889.445 848.424 892.829 848.424H895.817C898.193 848.424 899.633 849.324 899.633 851.124C899.633 853.032 898.193 854.076 894.089 854.076C889.913 854.076 888.941 853.068 888.941 850.908H885.953C885.953 854.76 887.897 856.668 894.089 856.668C899.957 856.668 902.981 854.58 902.981 850.908C902.981 847.884 900.389 845.652 896.501 845.652H893.477C891.533 845.652 890.993 844.968 890.993 844.104C890.993 843.42 891.389 842.736 891.929 842.34C892.721 842.592 893.477 842.7 894.341 842.7C898.877 842.7 901.577 840 901.577 836.256C901.577 834.06 900.461 832.476 898.229 831.468C900.389 831.468 902.189 831.396 903.773 830.892L902.801 827.904ZM894.125 831.972C896.825 831.972 898.193 833.412 898.193 836.184C898.193 838.92 896.789 840.504 894.197 840.504C891.605 840.504 890.201 838.74 890.201 836.22C890.201 833.736 891.569 831.972 894.125 831.972ZM920.353 844.572V835.896C920.353 831.936 918.265 829.596 913.693 829.596C911.569 829.596 909.481 830.028 907.141 830.892L907.969 833.304C909.913 832.656 911.677 832.296 913.081 832.296C915.709 832.296 917.041 833.304 917.041 836.04V837.444H914.125C908.833 837.444 905.773 839.64 905.773 843.708C905.773 847.092 908.041 849.432 911.821 849.432C914.125 849.432 916.141 848.568 917.473 846.588C918.049 848.46 919.273 849.216 921.181 849.432L921.937 847.128C920.965 846.768 920.353 846.228 920.353 844.572ZM912.577 846.948C910.417 846.948 909.301 845.76 909.301 843.528C909.301 840.936 911.065 839.64 914.557 839.64H917.041V843.996C915.961 845.976 914.521 846.948 912.577 846.948ZM936.536 845.94C935.6 846.444 934.844 846.696 934.016 846.696C932.36 846.696 931.748 845.796 931.748 843.888V832.584H935.888L936.248 830.028H931.748V825.348L928.436 825.744V830.028H925.124V832.584H928.436V844.032C928.436 847.56 930.344 849.432 933.548 849.432C935.168 849.432 936.536 849 937.796 848.136L936.536 845.94ZM943.913 820.92C942.545 820.92 941.609 821.892 941.609 823.188C941.609 824.448 942.545 825.42 943.913 825.42C945.317 825.42 946.253 824.448 946.253 823.188C946.253 821.892 945.317 820.92 943.913 820.92ZM945.605 830.028H942.293V849H945.605V830.028ZM960.646 829.596C955.246 829.596 952.15 833.664 952.15 839.532C952.15 845.544 955.21 849.432 960.61 849.432C965.974 849.432 969.07 845.364 969.07 839.496C969.07 833.484 966.046 829.596 960.646 829.596ZM960.646 832.26C963.778 832.26 965.506 834.564 965.506 839.496C965.506 844.464 963.778 846.768 960.61 846.768C957.442 846.768 955.714 844.464 955.714 839.532C955.714 834.564 957.478 832.26 960.646 832.26ZM984.534 829.596C982.05 829.596 980.034 830.892 978.738 832.836L978.45 830.028H975.606V849H978.918V835.536C980.178 833.52 981.618 832.188 983.742 832.188C985.578 832.188 986.73 833.016 986.73 835.86V849H990.042V835.392C990.042 831.792 988.026 829.596 984.534 829.596Z"
        fill="#3E5975" />
    <path
        d="M616.84 715.36H611.84L608 738.8L603.56 715.36H597.96L593.44 738.8L589.92 715.36H584.68L589.68 743H596.36L600.68 720.96L604.88 743H611.76L616.84 715.36ZM638.591 731.92C638.591 725.24 635.191 721.24 629.271 721.24C623.271 721.24 619.871 726.12 619.871 732.56C619.871 739.24 623.391 743.6 629.951 743.6C633.151 743.6 635.711 742.44 637.791 740.76L635.671 737.84C633.831 739.12 632.271 739.72 630.391 739.72C627.591 739.72 625.551 738.32 625.191 734H638.471C638.511 733.44 638.591 732.6 638.591 731.92ZM633.511 730.68H625.191C625.471 726.48 626.991 724.88 629.391 724.88C632.271 724.88 633.511 726.96 633.511 730.44V730.68ZM659.498 737.4V728.52C659.498 723.84 657.018 721.24 651.378 721.24C648.978 721.24 646.298 721.76 643.698 722.76L644.898 726.24C647.018 725.52 649.058 725.12 650.498 725.12C653.218 725.12 654.458 726.04 654.458 728.8V730H651.818C645.658 730 642.178 732.48 642.178 737.08C642.178 740.92 644.778 743.6 649.018 743.6C651.538 743.6 653.858 742.68 655.338 740.44C656.178 742.48 657.698 743.32 660.018 743.52L661.098 740.12C660.058 739.72 659.498 739.12 659.498 737.4ZM650.378 739.88C648.418 739.88 647.378 738.72 647.378 736.68C647.378 734.2 649.018 733 652.338 733H654.458V737.28C653.498 738.96 652.178 739.88 650.378 739.88ZM671.879 712.8L666.759 713.36V743H671.879V712.8ZM684.559 721.84H679.159L672.079 731.44L679.359 743H685.239L677.519 731.16L684.559 721.84ZM700.472 721.24C697.792 721.24 695.672 722.48 694.032 724.6L693.632 721.84H689.192V743H694.312V728.28C695.552 726.32 696.912 725.08 698.752 725.08C700.352 725.08 701.352 725.84 701.352 728.48V743H706.472V727.68C706.472 723.64 704.272 721.24 700.472 721.24ZM730.859 731.92C730.859 725.24 727.459 721.24 721.539 721.24C715.539 721.24 712.139 726.12 712.139 732.56C712.139 739.24 715.659 743.6 722.219 743.6C725.419 743.6 727.979 742.44 730.059 740.76L727.939 737.84C726.099 739.12 724.539 739.72 722.659 739.72C719.859 739.72 717.819 738.32 717.459 734H730.739C730.779 733.44 730.859 732.6 730.859 731.92ZM725.779 730.68H717.459C717.739 726.48 719.259 724.88 721.659 724.88C724.539 724.88 725.779 726.96 725.779 730.44V730.68ZM743.197 721.24C738.277 721.24 735.037 723.88 735.037 727.4C735.037 730.52 736.957 732.6 741.317 733.8C745.277 734.92 746.117 735.48 746.117 737.24C746.117 738.84 744.637 739.8 742.357 739.8C740.197 739.8 738.237 738.96 736.597 737.72L734.037 740.6C735.997 742.36 738.837 743.6 742.477 743.6C747.317 743.6 751.397 741.28 751.397 736.88C751.397 733.12 748.957 731.36 744.637 730.2C741.037 729.2 740.197 728.56 740.197 727.16C740.197 725.88 741.357 725.04 743.397 725.04C745.277 725.04 746.957 725.64 748.717 726.76L750.717 723.76C748.717 722.2 746.237 721.24 743.197 721.24ZM762.973 721.24C758.053 721.24 754.813 723.88 754.813 727.4C754.813 730.52 756.733 732.6 761.093 733.8C765.053 734.92 765.893 735.48 765.893 737.24C765.893 738.84 764.413 739.8 762.133 739.8C759.973 739.8 758.013 738.96 756.373 737.72L753.813 740.6C755.773 742.36 758.613 743.6 762.253 743.6C767.093 743.6 771.173 741.28 771.173 736.88C771.173 733.12 768.733 731.36 764.413 730.2C760.813 729.2 759.973 728.56 759.973 727.16C759.973 725.88 761.133 725.04 763.173 725.04C765.053 725.04 766.733 725.64 768.493 726.76L770.493 723.76C768.493 722.2 766.013 721.24 762.973 721.24Z"
        fill="#103049" />
    <g filter="url(#filter1_d_40_10572)">
        <rect x="9" y="669" width="505" height="292" rx="25" stroke="#256869" stroke-width="10"
            shape-rendering="crispEdges" />
    </g>
    <path
        d="M55.988 824.196H52.784V837.732C52.784 840.756 53.18 844.716 53.252 845.292L43.064 824.196H38.6V849H41.804V837.624C41.804 833.016 41.516 829.992 41.336 827.94L51.416 849H55.988V824.196ZM71.1872 829.596C65.7872 829.596 62.6912 833.664 62.6912 839.532C62.6912 845.544 65.7512 849.432 71.1512 849.432C76.5152 849.432 79.6112 845.364 79.6112 839.496C79.6112 833.484 76.5872 829.596 71.1872 829.596ZM71.1872 832.26C74.3192 832.26 76.0472 834.564 76.0472 839.496C76.0472 844.464 74.3192 846.768 71.1512 846.768C67.9832 846.768 66.2552 844.464 66.2552 839.532C66.2552 834.564 68.0192 832.26 71.1872 832.26ZM94.4637 845.94C93.5277 846.444 92.7717 846.696 91.9437 846.696C90.2877 846.696 89.6757 845.796 89.6757 843.888V832.584H93.8157L94.1757 830.028H89.6757V825.348L86.3637 825.744V830.028H83.0517V832.584H86.3637V844.032C86.3637 847.56 88.2717 849.432 91.4757 849.432C93.0957 849.432 94.4637 849 95.7237 848.136L94.4637 845.94ZM125.141 838.956C125.141 833.16 122.441 829.596 117.329 829.596C112.433 829.596 109.445 833.808 109.445 839.712C109.445 845.724 112.541 849.432 117.833 849.432C120.461 849.432 122.585 848.532 124.457 847.056L123.017 845.076C121.361 846.228 119.957 846.732 118.085 846.732C115.349 846.732 113.297 845.04 112.973 840.648H125.069C125.105 840.216 125.141 839.604 125.141 838.956ZM121.865 838.2H112.973C113.225 833.988 114.881 832.224 117.401 832.224C120.389 832.224 121.865 834.276 121.865 837.984V838.2ZM140.423 829.596C137.939 829.596 135.923 830.892 134.627 832.836L134.339 830.028H131.495V849H134.807V835.536C136.067 833.52 137.507 832.188 139.631 832.188C141.467 832.188 142.619 833.016 142.619 835.86V849H145.931V835.392C145.931 831.792 143.915 829.596 140.423 829.596ZM160.782 829.596C155.382 829.596 152.286 833.664 152.286 839.532C152.286 845.544 155.346 849.432 160.746 849.432C166.11 849.432 169.206 845.364 169.206 839.496C169.206 833.484 166.182 829.596 160.782 829.596ZM160.782 832.26C163.914 832.26 165.642 834.564 165.642 839.496C165.642 844.464 163.914 846.768 160.746 846.768C157.578 846.768 155.85 844.464 155.85 839.532C155.85 834.564 157.614 832.26 160.782 832.26ZM189.854 830.028H186.542V843.564C185.39 845.472 183.842 846.84 181.79 846.84C179.738 846.84 178.874 845.868 178.874 843.276V830.028H175.562V843.636C175.562 847.344 177.542 849.432 180.854 849.432C183.554 849.432 185.318 848.352 186.758 846.048L187.01 849H189.854V830.028ZM212.088 827.904C209.856 828.912 208.128 829.704 203.412 829.596C199.236 829.596 196.104 832.332 196.104 836.22C196.104 838.668 197.112 840.324 199.308 841.476C197.94 842.376 197.22 843.6 197.22 844.824C197.22 846.732 198.732 848.424 202.116 848.424H205.104C207.48 848.424 208.92 849.324 208.92 851.124C208.92 853.032 207.48 854.076 203.376 854.076C199.2 854.076 198.228 853.068 198.228 850.908H195.24C195.24 854.76 197.184 856.668 203.376 856.668C209.244 856.668 212.268 854.58 212.268 850.908C212.268 847.884 209.676 845.652 205.788 845.652H202.764C200.82 845.652 200.28 844.968 200.28 844.104C200.28 843.42 200.676 842.736 201.216 842.34C202.008 842.592 202.764 842.7 203.628 842.7C208.164 842.7 210.864 840 210.864 836.256C210.864 834.06 209.748 832.476 207.516 831.468C209.676 831.468 211.476 831.396 213.06 830.892L212.088 827.904ZM203.412 831.972C206.112 831.972 207.48 833.412 207.48 836.184C207.48 838.92 206.076 840.504 203.484 840.504C200.892 840.504 199.488 838.74 199.488 836.22C199.488 833.736 200.856 831.972 203.412 831.972ZM226.456 829.596C224.08 829.596 222.208 830.784 220.84 832.656V822.072L217.528 822.432V849H220.84V835.5C222.1 833.52 223.576 832.188 225.628 832.188C227.428 832.188 228.652 833.016 228.652 835.86V849H231.964V835.392C231.964 831.828 229.912 829.596 226.456 829.596ZM264.392 830.028H261.08V843.564C259.928 845.472 258.38 846.84 256.328 846.84C254.276 846.84 253.412 845.868 253.412 843.276V830.028H250.1V843.636C250.1 847.344 252.08 849.432 255.392 849.432C258.092 849.432 259.856 848.352 261.296 846.048L261.548 849H264.392V830.028ZM277.446 829.596C273.522 829.596 270.606 831.792 270.606 834.816C270.606 837.48 272.226 839.244 276.33 840.324C280.002 841.296 280.938 842.016 280.938 843.888C280.938 845.688 279.354 846.768 276.87 846.768C274.818 846.768 273.054 846.084 271.542 844.932L269.778 846.948C271.434 848.388 273.738 849.432 276.942 849.432C280.794 849.432 284.43 847.632 284.43 843.672C284.43 840.36 282.126 838.776 278.13 837.768C275.07 836.976 274.062 836.256 274.062 834.708C274.062 833.196 275.394 832.224 277.554 832.224C279.318 832.224 280.794 832.764 282.486 833.844L283.89 831.756C282.09 830.388 280.11 829.596 277.446 829.596ZM304.495 838.956C304.495 833.16 301.795 829.596 296.683 829.596C291.787 829.596 288.799 833.808 288.799 839.712C288.799 845.724 291.895 849.432 297.187 849.432C299.815 849.432 301.939 848.532 303.811 847.056L302.371 845.076C300.715 846.228 299.311 846.732 297.439 846.732C294.703 846.732 292.651 845.04 292.327 840.648H304.423C304.459 840.216 304.495 839.604 304.495 838.956ZM301.219 838.2H292.327C292.579 833.988 294.235 832.224 296.755 832.224C299.743 832.224 301.219 834.276 301.219 837.984V838.2ZM319.094 829.596C316.79 829.596 315.026 831.036 314.018 833.88L313.694 830.028H310.85V849H314.162V838.164C314.954 834.528 316.322 832.836 318.698 832.836C319.382 832.836 319.778 832.908 320.354 833.052L320.966 829.812C320.39 829.668 319.706 829.596 319.094 829.596ZM330.422 829.596C326.498 829.596 323.582 831.792 323.582 834.816C323.582 837.48 325.202 839.244 329.306 840.324C332.978 841.296 333.914 842.016 333.914 843.888C333.914 845.688 332.33 846.768 329.846 846.768C327.794 846.768 326.03 846.084 324.518 844.932L322.754 846.948C324.41 848.388 326.714 849.432 329.918 849.432C333.77 849.432 337.406 847.632 337.406 843.672C337.406 840.36 335.102 838.776 331.106 837.768C328.046 836.976 327.038 836.256 327.038 834.708C327.038 833.196 328.37 832.224 330.53 832.224C332.294 832.224 333.77 832.764 335.462 833.844L336.866 831.756C335.066 830.388 333.086 829.596 330.422 829.596Z"
        fill="#3E5975" />
    <path
        d="M67.84 715.36H62.84L59 738.8L54.56 715.36H48.96L44.44 738.8L40.92 715.36H35.68L40.68 743H47.36L51.68 720.96L55.88 743H62.76L67.84 715.36ZM89.5909 731.92C89.5909 725.24 86.1909 721.24 80.2709 721.24C74.2709 721.24 70.8709 726.12 70.8709 732.56C70.8709 739.24 74.3909 743.6 80.9509 743.6C84.1509 743.6 86.7109 742.44 88.7909 740.76L86.6709 737.84C84.8309 739.12 83.2709 739.72 81.3909 739.72C78.5909 739.72 76.5509 738.32 76.1909 734H89.4709C89.5109 733.44 89.5909 732.6 89.5909 731.92ZM84.5109 730.68H76.1909C76.4709 726.48 77.9909 724.88 80.3909 724.88C83.2709 724.88 84.5109 726.96 84.5109 730.44V730.68ZM110.498 737.4V728.52C110.498 723.84 108.018 721.24 102.378 721.24C99.9784 721.24 97.2984 721.76 94.6984 722.76L95.8984 726.24C98.0184 725.52 100.058 725.12 101.498 725.12C104.218 725.12 105.458 726.04 105.458 728.8V730H102.818C96.6584 730 93.1784 732.48 93.1784 737.08C93.1784 740.92 95.7784 743.6 100.018 743.6C102.538 743.6 104.858 742.68 106.338 740.44C107.178 742.48 108.698 743.32 111.018 743.52L112.098 740.12C111.058 739.72 110.498 739.12 110.498 737.4ZM101.378 739.88C99.4184 739.88 98.3784 738.72 98.3784 736.68C98.3784 734.2 100.018 733 103.338 733H105.458V737.28C104.498 738.96 103.178 739.88 101.378 739.88ZM122.879 712.8L117.759 713.36V743H122.879V712.8ZM135.559 721.84H130.159L123.079 731.44L130.359 743H136.239L128.519 731.16L135.559 721.84ZM151.472 721.24C148.792 721.24 146.672 722.48 145.032 724.6L144.632 721.84H140.192V743H145.312V728.28C146.552 726.32 147.912 725.08 149.752 725.08C151.352 725.08 152.352 725.84 152.352 728.48V743H157.472V727.68C157.472 723.64 155.272 721.24 151.472 721.24ZM181.859 731.92C181.859 725.24 178.459 721.24 172.539 721.24C166.539 721.24 163.139 726.12 163.139 732.56C163.139 739.24 166.659 743.6 173.219 743.6C176.419 743.6 178.979 742.44 181.059 740.76L178.939 737.84C177.099 739.12 175.539 739.72 173.659 739.72C170.859 739.72 168.819 738.32 168.459 734H181.739C181.779 733.44 181.859 732.6 181.859 731.92ZM176.779 730.68H168.459C168.739 726.48 170.259 724.88 172.659 724.88C175.539 724.88 176.779 726.96 176.779 730.44V730.68ZM194.197 721.24C189.277 721.24 186.037 723.88 186.037 727.4C186.037 730.52 187.957 732.6 192.317 733.8C196.277 734.92 197.117 735.48 197.117 737.24C197.117 738.84 195.637 739.8 193.357 739.8C191.197 739.8 189.237 738.96 187.597 737.72L185.037 740.6C186.997 742.36 189.837 743.6 193.477 743.6C198.317 743.6 202.397 741.28 202.397 736.88C202.397 733.12 199.957 731.36 195.637 730.2C192.037 729.2 191.197 728.56 191.197 727.16C191.197 725.88 192.357 725.04 194.397 725.04C196.277 725.04 197.957 725.64 199.717 726.76L201.717 723.76C199.717 722.2 197.237 721.24 194.197 721.24ZM213.973 721.24C209.053 721.24 205.813 723.88 205.813 727.4C205.813 730.52 207.733 732.6 212.093 733.8C216.053 734.92 216.893 735.48 216.893 737.24C216.893 738.84 215.413 739.8 213.133 739.8C210.973 739.8 209.013 738.96 207.373 737.72L204.813 740.6C206.773 742.36 209.613 743.6 213.253 743.6C218.093 743.6 222.173 741.28 222.173 736.88C222.173 733.12 219.733 731.36 215.413 730.2C211.813 729.2 210.973 728.56 210.973 727.16C210.973 725.88 212.133 725.04 214.173 725.04C216.053 725.04 217.733 725.64 219.493 726.76L221.493 723.76C219.493 722.2 217.013 721.24 213.973 721.24Z"
        fill="#103049" />
    <g filter="url(#filter2_d_40_10572)">
        <rect x="554" y="337" width="505" height="292" rx="25" stroke="#256869" stroke-width="10"
            shape-rendering="crispEdges" />
    </g>
    <path
        d="M592.276 491.764C586.66 491.764 581.98 496.192 581.98 504.58C581.98 512.932 586.336 517.432 592.348 517.432C595.696 517.432 598.072 516.064 599.44 514.66L597.748 512.5C596.344 513.544 594.796 514.552 592.456 514.552C588.604 514.552 585.616 511.744 585.616 504.58C585.616 497.092 588.748 494.572 592.492 494.572C594.22 494.572 595.732 495.148 597.28 496.408L599.152 494.212C597.172 492.628 595.408 491.764 592.276 491.764ZM611.054 497.596C605.654 497.596 602.558 501.664 602.558 507.532C602.558 513.544 605.618 517.432 611.018 517.432C616.382 517.432 619.478 513.364 619.478 507.496C619.478 501.484 616.454 497.596 611.054 497.596ZM611.054 500.26C614.186 500.26 615.914 502.564 615.914 507.496C615.914 512.464 614.186 514.768 611.018 514.768C607.85 514.768 606.122 512.464 606.122 507.532C606.122 502.564 607.886 500.26 611.054 500.26ZM645.059 497.596C642.503 497.596 640.775 498.964 639.407 501.016C638.687 498.856 636.959 497.596 634.619 497.596C632.135 497.596 630.407 498.892 629.147 500.8L628.859 498.028H626.015V517H629.327V503.536C630.587 501.52 631.739 500.188 633.791 500.188C635.231 500.188 636.455 501.016 636.455 503.86V517H639.767V503.536C641.063 501.52 642.179 500.188 644.231 500.188C645.671 500.188 646.895 501.016 646.895 503.86V517H650.207V503.392C650.207 499.828 648.155 497.596 645.059 497.596ZM676.991 497.596C674.435 497.596 672.707 498.964 671.339 501.016C670.619 498.856 668.891 497.596 666.551 497.596C664.067 497.596 662.339 498.892 661.079 500.8L660.791 498.028H657.947V517H661.259V503.536C662.519 501.52 663.671 500.188 665.723 500.188C667.163 500.188 668.387 501.016 668.387 503.86V517H671.699V503.536C672.995 501.52 674.111 500.188 676.163 500.188C677.603 500.188 678.827 501.016 678.827 503.86V517H682.139V503.392C682.139 499.828 680.087 497.596 676.991 497.596ZM703.991 498.028H700.679V511.564C699.527 513.472 697.979 514.84 695.927 514.84C693.875 514.84 693.011 513.868 693.011 511.276V498.028H689.699V511.636C689.699 515.344 691.679 517.432 694.991 517.432C697.691 517.432 699.455 516.352 700.895 514.048L701.147 517H703.991V498.028ZM720.825 497.596C718.341 497.596 716.325 498.892 715.029 500.836L714.741 498.028H711.897V517H715.209V503.536C716.469 501.52 717.909 500.188 720.033 500.188C721.869 500.188 723.021 501.016 723.021 503.86V517H726.333V503.392C726.333 499.792 724.317 497.596 720.825 497.596ZM735.676 488.92C734.308 488.92 733.372 489.892 733.372 491.188C733.372 492.448 734.308 493.42 735.676 493.42C737.08 493.42 738.016 492.448 738.016 491.188C738.016 489.892 737.08 488.92 735.676 488.92ZM737.368 498.028H734.056V517H737.368V498.028ZM753.597 513.94C752.661 514.444 751.905 514.696 751.077 514.696C749.421 514.696 748.809 513.796 748.809 511.888V500.584H752.949L753.309 498.028H748.809V493.348L745.497 493.744V498.028H742.185V500.584H745.497V512.032C745.497 515.56 747.405 517.432 750.609 517.432C752.229 517.432 753.597 517 754.857 516.136L753.597 513.94ZM773.11 498.028H769.69L764.722 514.588L759.646 498.028H756.118L762.49 517H763.606C762.526 519.952 761.446 521.428 757.594 522.076L757.954 524.668C763.21 524.092 765.442 521.14 766.774 517.108L773.11 498.028ZM801.334 512.572V503.896C801.334 499.936 799.246 497.596 794.674 497.596C792.55 497.596 790.462 498.028 788.122 498.892L788.95 501.304C790.894 500.656 792.658 500.296 794.062 500.296C796.69 500.296 798.022 501.304 798.022 504.04V505.444H795.106C789.814 505.444 786.754 507.64 786.754 511.708C786.754 515.092 789.022 517.432 792.802 517.432C795.106 517.432 797.122 516.568 798.454 514.588C799.03 516.46 800.254 517.216 802.162 517.432L802.918 515.128C801.946 514.768 801.334 514.228 801.334 512.572ZM793.558 514.948C791.398 514.948 790.282 513.76 790.282 511.528C790.282 508.936 792.046 507.64 795.538 507.64H798.022V511.996C796.942 513.976 795.502 514.948 793.558 514.948ZM813.998 497.596C810.074 497.596 807.158 499.792 807.158 502.816C807.158 505.48 808.778 507.244 812.882 508.324C816.554 509.296 817.49 510.016 817.49 511.888C817.49 513.688 815.906 514.768 813.422 514.768C811.37 514.768 809.606 514.084 808.094 512.932L806.33 514.948C807.986 516.388 810.29 517.432 813.494 517.432C817.346 517.432 820.982 515.632 820.982 511.672C820.982 508.36 818.678 506.776 814.682 505.768C811.622 504.976 810.614 504.256 810.614 502.708C810.614 501.196 811.946 500.224 814.106 500.224C815.87 500.224 817.346 500.764 819.038 501.844L820.442 499.756C818.642 498.388 816.662 497.596 813.998 497.596ZM835.432 497.596C833.272 497.596 831.22 498.64 829.816 500.584L829.564 498.028H826.72V524.668L830.032 524.272V515.272C831.256 516.748 832.948 517.432 835 517.432C839.896 517.432 842.452 513.256 842.452 507.496C842.452 501.52 840.472 497.596 835.432 497.596ZM834.208 514.732C832.48 514.732 831.004 513.904 830.032 512.428V503.176C831.04 501.664 832.588 500.224 834.604 500.224C837.448 500.224 838.888 502.564 838.888 507.496C838.888 512.464 837.232 514.732 834.208 514.732ZM863.488 506.956C863.488 501.16 860.788 497.596 855.676 497.596C850.78 497.596 847.792 501.808 847.792 507.712C847.792 513.724 850.888 517.432 856.18 517.432C858.808 517.432 860.932 516.532 862.804 515.056L861.364 513.076C859.708 514.228 858.304 514.732 856.432 514.732C853.696 514.732 851.644 513.04 851.32 508.648H863.416C863.452 508.216 863.488 507.604 863.488 506.956ZM860.212 506.2H851.32C851.572 501.988 853.228 500.224 855.748 500.224C858.736 500.224 860.212 502.276 860.212 505.984V506.2ZM876.754 497.596C871.606 497.596 868.474 501.628 868.474 507.676C868.474 513.796 871.642 517.432 876.754 517.432C878.95 517.432 880.858 516.712 882.55 515.344L881.038 513.184C879.598 514.12 878.482 514.624 876.898 514.624C873.91 514.624 872.038 512.572 872.038 507.604C872.038 502.672 873.91 500.332 876.898 500.332C878.482 500.332 879.67 500.8 880.966 501.736L882.55 499.648C880.786 498.172 878.986 497.596 876.754 497.596ZM896.414 513.94C895.478 514.444 894.722 514.696 893.894 514.696C892.238 514.696 891.626 513.796 891.626 511.888V500.584H895.766L896.126 498.028H891.626V493.348L888.314 493.744V498.028H885.002V500.584H888.314V512.032C888.314 515.56 890.222 517.432 893.426 517.432C895.046 517.432 896.414 517 897.674 516.136L896.414 513.94Z"
        fill="#3E5975" />
    <path
        d="M591.2 382.76C585.76 382.76 581.8 385.8 581.8 390.4C581.8 394.6 584.32 396.92 590.12 398.72C594.44 400.04 595.6 401.08 595.6 403.4C595.6 406.08 593.48 407.52 590.52 407.52C587.64 407.52 585.44 406.48 583.4 404.76L580.68 407.8C582.96 410.04 586.24 411.6 590.64 411.6C597.24 411.6 601.12 408.08 601.12 403.12C601.12 397.92 597.76 395.92 592.92 394.4C588.32 392.96 587.24 392.08 587.24 390.08C587.24 387.92 589.04 386.8 591.52 386.8C593.8 386.8 595.72 387.52 597.72 389.16L600.32 386.16C597.92 383.96 595.24 382.76 591.2 382.76ZM623.588 383.36H603.068V387.56H610.508V411H615.828V387.56H623.028L623.588 383.36ZM642.864 411H648.944L641.704 398.96C645.464 397.48 647.304 395.24 647.304 391.48C647.304 386 643.584 383.36 636.344 383.36H628.104V411H633.384V399.92H636.744L642.864 411ZM633.384 387.2H636.224C640.064 387.2 641.784 388.48 641.784 391.48C641.784 394.8 639.944 396.12 636.664 396.12H633.384V387.2ZM669.663 383.36H653.622V411H669.823V407.04H658.903V398.92H667.783V395H658.903V387.28H669.103L669.663 383.36ZM696.298 383.36H691.498V396.32C691.498 400.24 691.978 404.24 692.218 405.76L682.578 383.36H675.898V411H680.698V399.72C680.698 394.6 680.258 391.08 679.978 388.64L689.458 411H696.298V383.36ZM714.998 382.76C708.078 382.76 702.318 387.8 702.318 397.16C702.318 406.64 706.638 411.6 714.518 411.6C717.998 411.6 721.278 410.56 724.038 408.88V395.36H714.118L714.678 399.28H718.838V406.48C717.518 407.24 715.998 407.56 714.438 407.56C710.118 407.56 707.878 404.72 707.878 397.16C707.878 389.72 711.238 386.76 715.158 386.76C717.518 386.76 719.078 387.48 720.958 388.96L723.798 386C721.478 384.04 718.838 382.76 714.998 382.76ZM747.312 383.36H726.792V387.56H734.232V411H739.552V387.56H746.752L747.312 383.36ZM766.948 411H772.268V383.36H766.948V394.44H757.108V383.36H751.828V411H757.108V398.64H766.948V411Z"
        fill="#103049" />
    <g filter="url(#filter3_d_40_10572)">
        <rect x="9" y="340" width="505" height="292" rx="25" stroke="#256869" stroke-width="10"
            shape-rendering="crispEdges" />
    </g>
    <path
        d="M47.276 494.764C41.66 494.764 36.98 499.192 36.98 507.58C36.98 515.932 41.336 520.432 47.348 520.432C50.696 520.432 53.072 519.064 54.44 517.66L52.748 515.5C51.344 516.544 49.796 517.552 47.456 517.552C43.604 517.552 40.616 514.744 40.616 507.58C40.616 500.092 43.748 497.572 47.492 497.572C49.22 497.572 50.732 498.148 52.28 499.408L54.152 497.212C52.172 495.628 50.408 494.764 47.276 494.764ZM63.058 520.432C64.03 520.432 64.966 520.18 65.686 519.784L64.822 517.48C64.462 517.624 64.066 517.696 63.598 517.696C62.734 517.696 62.41 517.192 62.41 516.184V493L59.098 493.396V516.256C59.098 518.956 60.646 520.432 63.058 520.432ZM85.0421 509.956C85.0421 504.16 82.3421 500.596 77.2301 500.596C72.3341 500.596 69.3461 504.808 69.3461 510.712C69.3461 516.724 72.4421 520.432 77.7341 520.432C80.3621 520.432 82.4861 519.532 84.3581 518.056L82.9181 516.076C81.2621 517.228 79.8581 517.732 77.9861 517.732C75.2501 517.732 73.1981 516.04 72.8741 511.648H84.9701C85.0061 511.216 85.0421 510.604 85.0421 509.956ZM81.7661 509.2H72.8741C73.1261 504.988 74.7821 503.224 77.3021 503.224C80.2901 503.224 81.7661 505.276 81.7661 508.984V509.2ZM103.825 515.572V506.896C103.825 502.936 101.737 500.596 97.1647 500.596C95.0407 500.596 92.9527 501.028 90.6127 501.892L91.4407 504.304C93.3847 503.656 95.1487 503.296 96.5527 503.296C99.1807 503.296 100.513 504.304 100.513 507.04V508.444H97.5967C92.3047 508.444 89.2447 510.64 89.2447 514.708C89.2447 518.092 91.5127 520.432 95.2927 520.432C97.5967 520.432 99.6127 519.568 100.945 517.588C101.521 519.46 102.745 520.216 104.653 520.432L105.409 518.128C104.437 517.768 103.825 517.228 103.825 515.572ZM96.0487 517.948C93.8887 517.948 92.7727 516.76 92.7727 514.528C92.7727 511.936 94.5367 510.64 98.0287 510.64H100.513V514.996C99.4327 516.976 97.9927 517.948 96.0487 517.948ZM120.62 500.596C118.136 500.596 116.12 501.892 114.824 503.836L114.536 501.028H111.692V520H115.004V506.536C116.264 504.52 117.704 503.188 119.828 503.188C121.664 503.188 122.816 504.016 122.816 506.86V520H126.128V506.392C126.128 502.792 124.112 500.596 120.62 500.596ZM157.223 515.572V506.896C157.223 502.936 155.135 500.596 150.563 500.596C148.439 500.596 146.351 501.028 144.011 501.892L144.839 504.304C146.783 503.656 148.547 503.296 149.951 503.296C152.579 503.296 153.911 504.304 153.911 507.04V508.444H150.995C145.703 508.444 142.643 510.64 142.643 514.708C142.643 518.092 144.911 520.432 148.691 520.432C150.995 520.432 153.011 519.568 154.343 517.588C154.919 519.46 156.143 520.216 158.051 520.432L158.807 518.128C157.835 517.768 157.223 517.228 157.223 515.572ZM149.447 517.948C147.287 517.948 146.171 516.76 146.171 514.528C146.171 511.936 147.935 510.64 151.427 510.64H153.911V514.996C152.831 516.976 151.391 517.948 149.447 517.948ZM174.018 500.596C171.534 500.596 169.518 501.892 168.222 503.836L167.934 501.028H165.09V520H168.402V506.536C169.662 504.52 171.102 503.188 173.226 503.188C175.062 503.188 176.214 504.016 176.214 506.86V520H179.526V506.392C179.526 502.792 177.51 500.596 174.018 500.596ZM198.625 493V502.936C197.365 501.604 195.745 500.596 193.513 500.596C188.869 500.596 186.061 504.808 186.061 510.604C186.061 516.508 188.617 520.432 193.225 520.432C195.565 520.432 197.473 519.28 198.697 517.372L199.021 520H201.937V493.396L198.625 493ZM193.945 517.804C191.209 517.804 189.625 515.536 189.625 510.532C189.625 505.6 191.389 503.224 194.233 503.224C196.105 503.224 197.437 504.196 198.625 505.708V514.996C197.365 516.76 196.069 517.804 193.945 517.804ZM225.57 500.596C221.646 500.596 218.73 502.792 218.73 505.816C218.73 508.48 220.35 510.244 224.454 511.324C228.126 512.296 229.062 513.016 229.062 514.888C229.062 516.688 227.478 517.768 224.994 517.768C222.942 517.768 221.178 517.084 219.666 515.932L217.902 517.948C219.558 519.388 221.862 520.432 225.066 520.432C228.918 520.432 232.554 518.632 232.554 514.672C232.554 511.36 230.25 509.776 226.254 508.768C223.194 507.976 222.186 507.256 222.186 505.708C222.186 504.196 223.518 503.224 225.678 503.224C227.442 503.224 228.918 503.764 230.61 504.844L232.014 502.756C230.214 501.388 228.234 500.596 225.57 500.596ZM239.911 491.92C238.543 491.92 237.607 492.892 237.607 494.188C237.607 495.448 238.543 496.42 239.911 496.42C241.315 496.42 242.251 495.448 242.251 494.188C242.251 492.892 241.315 491.92 239.911 491.92ZM241.603 501.028H238.291V520H241.603V501.028ZM268.56 500.596C266.004 500.596 264.276 501.964 262.908 504.016C262.188 501.856 260.46 500.596 258.12 500.596C255.636 500.596 253.908 501.892 252.648 503.8L252.36 501.028H249.516V520H252.828V506.536C254.088 504.52 255.24 503.188 257.292 503.188C258.732 503.188 259.956 504.016 259.956 506.86V520H263.268V506.536C264.564 504.52 265.68 503.188 267.732 503.188C269.172 503.188 270.396 504.016 270.396 506.86V520H273.708V506.392C273.708 502.828 271.656 500.596 268.56 500.596ZM290.161 500.596C288.001 500.596 285.949 501.64 284.545 503.584L284.293 501.028H281.449V527.668L284.761 527.272V518.272C285.985 519.748 287.677 520.432 289.729 520.432C294.625 520.432 297.181 516.256 297.181 510.496C297.181 504.52 295.201 500.596 290.161 500.596ZM288.937 517.732C287.209 517.732 285.733 516.904 284.761 515.428V506.176C285.769 504.664 287.317 503.224 289.333 503.224C292.177 503.224 293.617 505.564 293.617 510.496C293.617 515.464 291.961 517.732 288.937 517.732ZM307.669 520.432C308.641 520.432 309.577 520.18 310.297 519.784L309.433 517.48C309.073 517.624 308.677 517.696 308.209 517.696C307.345 517.696 307.021 517.192 307.021 516.184V493L303.709 493.396V516.256C303.709 518.956 305.257 520.432 307.669 520.432ZM329.653 509.956C329.653 504.16 326.953 500.596 321.841 500.596C316.945 500.596 313.957 504.808 313.957 510.712C313.957 516.724 317.053 520.432 322.345 520.432C324.973 520.432 327.097 519.532 328.969 518.056L327.529 516.076C325.873 517.228 324.469 517.732 322.597 517.732C319.861 517.732 317.809 516.04 317.485 511.648H329.581C329.617 511.216 329.653 510.604 329.653 509.956ZM326.377 509.2H317.485C317.737 504.988 319.393 503.224 321.913 503.224C324.901 503.224 326.377 505.276 326.377 508.984V509.2ZM348.219 491.92C346.851 491.92 345.915 492.892 345.915 494.188C345.915 495.448 346.851 496.42 348.219 496.42C349.623 496.42 350.559 495.448 350.559 494.188C350.559 492.892 349.623 491.92 348.219 491.92ZM349.911 501.028H346.599V520H349.911V501.028ZM366.752 500.596C364.268 500.596 362.252 501.892 360.956 503.836L360.668 501.028H357.824V520H361.136V506.536C362.396 504.52 363.836 503.188 365.96 503.188C367.796 503.188 368.948 504.016 368.948 506.86V520H372.26V506.392C372.26 502.792 370.244 500.596 366.752 500.596ZM388.299 516.94C387.363 517.444 386.607 517.696 385.779 517.696C384.123 517.696 383.511 516.796 383.511 514.888V503.584H387.651L388.011 501.028H383.511V496.348L380.199 496.744V501.028H376.887V503.584H380.199V515.032C380.199 518.56 382.107 520.432 385.311 520.432C386.931 520.432 388.299 520 389.559 519.136L388.299 516.94ZM407.857 509.956C407.857 504.16 405.157 500.596 400.045 500.596C395.149 500.596 392.161 504.808 392.161 510.712C392.161 516.724 395.257 520.432 400.549 520.432C403.177 520.432 405.301 519.532 407.173 518.056L405.733 516.076C404.077 517.228 402.673 517.732 400.801 517.732C398.065 517.732 396.013 516.04 395.689 511.648H407.785C407.821 511.216 407.857 510.604 407.857 509.956ZM404.581 509.2H395.689C395.941 504.988 397.597 503.224 400.117 503.224C403.105 503.224 404.581 505.276 404.581 508.984V509.2ZM422.455 500.596C420.151 500.596 418.387 502.036 417.379 504.88L417.055 501.028H414.211V520H417.523V509.164C418.315 505.528 419.683 503.836 422.059 503.836C422.743 503.836 423.139 503.908 423.715 504.052L424.327 500.812C423.751 500.668 423.067 500.596 422.455 500.596ZM435.606 495.664C436.578 495.664 437.694 495.844 438.918 496.384L439.962 493.972C438.45 493.324 437.226 493 435.426 493C431.574 493 429.486 495.268 429.486 498.436V501.028H426.102V503.584H429.486V520H432.798V503.584H437.046L437.406 501.028H432.798V498.4C432.798 496.564 433.518 495.664 435.606 495.664ZM454.257 515.572V506.896C454.257 502.936 452.169 500.596 447.597 500.596C445.473 500.596 443.385 501.028 441.045 501.892L441.873 504.304C443.817 503.656 445.581 503.296 446.985 503.296C449.613 503.296 450.945 504.304 450.945 507.04V508.444H448.029C442.737 508.444 439.677 510.64 439.677 514.708C439.677 518.092 441.945 520.432 445.725 520.432C448.029 520.432 450.045 519.568 451.377 517.588C451.953 519.46 453.177 520.216 455.085 520.432L455.841 518.128C454.869 517.768 454.257 517.228 454.257 515.572ZM446.481 517.948C444.321 517.948 443.205 516.76 443.205 514.528C443.205 511.936 444.969 510.64 448.461 510.64H450.945V514.996C449.865 516.976 448.425 517.948 446.481 517.948ZM469.037 500.596C463.889 500.596 460.757 504.628 460.757 510.676C460.757 516.796 463.925 520.432 469.037 520.432C471.233 520.432 473.141 519.712 474.833 518.344L473.321 516.184C471.881 517.12 470.765 517.624 469.181 517.624C466.193 517.624 464.321 515.572 464.321 510.604C464.321 505.672 466.193 503.332 469.181 503.332C470.765 503.332 471.953 503.8 473.249 504.736L474.833 502.648C473.069 501.172 471.269 500.596 469.037 500.596ZM494.006 509.956C494.006 504.16 491.306 500.596 486.194 500.596C481.298 500.596 478.31 504.808 478.31 510.712C478.31 516.724 481.406 520.432 486.698 520.432C489.326 520.432 491.45 519.532 493.322 518.056L491.882 516.076C490.226 517.228 488.822 517.732 486.95 517.732C484.214 517.732 482.162 516.04 481.838 511.648H493.934C493.97 511.216 494.006 510.604 494.006 509.956ZM490.73 509.2H481.838C482.09 504.988 483.746 503.224 486.266 503.224C489.254 503.224 490.73 505.276 490.73 508.984V509.2Z"
        fill="#3E5975" />
    <path
        d="M46.2 385.76C40.76 385.76 36.8 388.8 36.8 393.4C36.8 397.6 39.32 399.92 45.12 401.72C49.44 403.04 50.6 404.08 50.6 406.4C50.6 409.08 48.48 410.52 45.52 410.52C42.64 410.52 40.44 409.48 38.4 407.76L35.68 410.8C37.96 413.04 41.24 414.6 45.64 414.6C52.24 414.6 56.12 411.08 56.12 406.12C56.12 400.92 52.76 398.92 47.92 397.4C43.32 395.96 42.24 395.08 42.24 393.08C42.24 390.92 44.04 389.8 46.52 389.8C48.8 389.8 50.72 390.52 52.72 392.16L55.32 389.16C52.92 386.96 50.24 385.76 46.2 385.76ZM78.5884 386.36H58.0684V390.56H65.5084V414H70.8284V390.56H78.0284L78.5884 386.36ZM97.8644 414H103.944L96.7044 401.96C100.464 400.48 102.304 398.24 102.304 394.48C102.304 389 98.5844 386.36 91.3444 386.36H83.1044V414H88.3844V402.92H91.7444L97.8644 414ZM88.3844 390.2H91.2244C95.0644 390.2 96.7844 391.48 96.7844 394.48C96.7844 397.8 94.9444 399.12 91.6644 399.12H88.3844V390.2ZM124.663 386.36H108.622V414H124.823V410.04H113.903V401.92H122.783V398H113.903V390.28H124.103L124.663 386.36ZM151.298 386.36H146.498V399.32C146.498 403.24 146.978 407.24 147.218 408.76L137.578 386.36H130.898V414H135.698V402.72C135.698 397.6 135.258 394.08 134.978 391.64L144.458 414H151.298V386.36ZM169.998 385.76C163.078 385.76 157.318 390.8 157.318 400.16C157.318 409.64 161.638 414.6 169.518 414.6C172.998 414.6 176.278 413.56 179.038 411.88V398.36H169.118L169.678 402.28H173.838V409.48C172.518 410.24 170.998 410.56 169.438 410.56C165.118 410.56 162.878 407.72 162.878 400.16C162.878 392.72 166.238 389.76 170.158 389.76C172.518 389.76 174.078 390.48 175.958 391.96L178.798 389C176.478 387.04 173.838 385.76 169.998 385.76ZM202.312 386.36H181.792V390.56H189.232V414H194.552V390.56H201.752L202.312 386.36ZM221.948 414H227.268V386.36H221.948V397.44H212.108V386.36H206.828V414H212.108V401.64H221.948V414Z"
        fill="#103049" />
    <g filter="url(#filter4_d_40_10572)">
        <rect x="554" y="5" width="505" height="292" rx="25" stroke="#256869" stroke-width="10"
            shape-rendering="crispEdges" />
    </g>
    <path
        d="M592.276 159.764C586.66 159.764 581.98 164.192 581.98 172.58C581.98 180.932 586.336 185.432 592.348 185.432C595.696 185.432 598.072 184.064 599.44 182.66L597.748 180.5C596.344 181.544 594.796 182.552 592.456 182.552C588.604 182.552 585.616 179.744 585.616 172.58C585.616 165.092 588.748 162.572 592.492 162.572C594.22 162.572 595.732 163.148 597.28 164.408L599.152 162.212C597.172 160.628 595.408 159.764 592.276 159.764ZM608.058 185.432C609.03 185.432 609.966 185.18 610.686 184.784L609.822 182.48C609.462 182.624 609.066 182.696 608.598 182.696C607.734 182.696 607.41 182.192 607.41 181.184V158L604.098 158.396V181.256C604.098 183.956 605.646 185.432 608.058 185.432ZM630.042 174.956C630.042 169.16 627.342 165.596 622.23 165.596C617.334 165.596 614.346 169.808 614.346 175.712C614.346 181.724 617.442 185.432 622.734 185.432C625.362 185.432 627.486 184.532 629.358 183.056L627.918 181.076C626.262 182.228 624.858 182.732 622.986 182.732C620.25 182.732 618.198 181.04 617.874 176.648H629.97C630.006 176.216 630.042 175.604 630.042 174.956ZM626.766 174.2H617.874C618.126 169.988 619.782 168.224 622.302 168.224C625.29 168.224 626.766 170.276 626.766 173.984V174.2ZM648.825 180.572V171.896C648.825 167.936 646.737 165.596 642.165 165.596C640.041 165.596 637.953 166.028 635.613 166.892L636.441 169.304C638.385 168.656 640.149 168.296 641.553 168.296C644.181 168.296 645.513 169.304 645.513 172.04V173.444H642.597C637.305 173.444 634.245 175.64 634.245 179.708C634.245 183.092 636.513 185.432 640.293 185.432C642.597 185.432 644.613 184.568 645.945 182.588C646.521 184.46 647.745 185.216 649.653 185.432L650.409 183.128C649.437 182.768 648.825 182.228 648.825 180.572ZM641.049 182.948C638.889 182.948 637.773 181.76 637.773 179.528C637.773 176.936 639.537 175.64 643.029 175.64H645.513V179.996C644.433 181.976 642.993 182.948 641.049 182.948ZM665.62 165.596C663.136 165.596 661.12 166.892 659.824 168.836L659.536 166.028H656.692V185H660.004V171.536C661.264 169.52 662.704 168.188 664.828 168.188C666.664 168.188 667.816 169.016 667.816 171.86V185H671.128V171.392C671.128 167.792 669.112 165.596 665.62 165.596ZM702.223 180.572V171.896C702.223 167.936 700.135 165.596 695.563 165.596C693.439 165.596 691.351 166.028 689.011 166.892L689.839 169.304C691.783 168.656 693.547 168.296 694.951 168.296C697.579 168.296 698.911 169.304 698.911 172.04V173.444H695.995C690.703 173.444 687.643 175.64 687.643 179.708C687.643 183.092 689.911 185.432 693.691 185.432C695.995 185.432 698.011 184.568 699.343 182.588C699.919 184.46 701.143 185.216 703.051 185.432L703.807 183.128C702.835 182.768 702.223 182.228 702.223 180.572ZM694.447 182.948C692.287 182.948 691.171 181.76 691.171 179.528C691.171 176.936 692.935 175.64 696.427 175.64H698.911V179.996C697.831 181.976 696.391 182.948 694.447 182.948ZM719.018 165.596C716.534 165.596 714.518 166.892 713.222 168.836L712.934 166.028H710.09V185H713.402V171.536C714.662 169.52 716.102 168.188 718.226 168.188C720.062 168.188 721.214 169.016 721.214 171.86V185H724.526V171.392C724.526 167.792 722.51 165.596 719.018 165.596ZM743.625 158V167.936C742.365 166.604 740.745 165.596 738.513 165.596C733.869 165.596 731.061 169.808 731.061 175.604C731.061 181.508 733.617 185.432 738.225 185.432C740.565 185.432 742.473 184.28 743.697 182.372L744.021 185H746.937V158.396L743.625 158ZM738.945 182.804C736.209 182.804 734.625 180.536 734.625 175.532C734.625 170.6 736.389 168.224 739.233 168.224C741.105 168.224 742.437 169.196 743.625 170.708V179.996C742.365 181.76 741.069 182.804 738.945 182.804ZM770.57 165.596C766.646 165.596 763.73 167.792 763.73 170.816C763.73 173.48 765.35 175.244 769.454 176.324C773.126 177.296 774.062 178.016 774.062 179.888C774.062 181.688 772.478 182.768 769.994 182.768C767.942 182.768 766.178 182.084 764.666 180.932L762.902 182.948C764.558 184.388 766.862 185.432 770.066 185.432C773.918 185.432 777.554 183.632 777.554 179.672C777.554 176.36 775.25 174.776 771.254 173.768C768.194 172.976 767.186 172.256 767.186 170.708C767.186 169.196 768.518 168.224 770.678 168.224C772.442 168.224 773.918 168.764 775.61 169.844L777.014 167.756C775.214 166.388 773.234 165.596 770.57 165.596ZM784.911 156.92C783.543 156.92 782.607 157.892 782.607 159.188C782.607 160.448 783.543 161.42 784.911 161.42C786.315 161.42 787.251 160.448 787.251 159.188C787.251 157.892 786.315 156.92 784.911 156.92ZM786.603 166.028H783.291V185H786.603V166.028ZM813.56 165.596C811.004 165.596 809.276 166.964 807.908 169.016C807.188 166.856 805.46 165.596 803.12 165.596C800.636 165.596 798.908 166.892 797.648 168.8L797.36 166.028H794.516V185H797.828V171.536C799.088 169.52 800.24 168.188 802.292 168.188C803.732 168.188 804.956 169.016 804.956 171.86V185H808.268V171.536C809.564 169.52 810.68 168.188 812.732 168.188C814.172 168.188 815.396 169.016 815.396 171.86V185H818.708V171.392C818.708 167.828 816.656 165.596 813.56 165.596ZM835.161 165.596C833.001 165.596 830.949 166.64 829.545 168.584L829.293 166.028H826.449V192.668L829.761 192.272V183.272C830.985 184.748 832.677 185.432 834.729 185.432C839.625 185.432 842.181 181.256 842.181 175.496C842.181 169.52 840.201 165.596 835.161 165.596ZM833.937 182.732C832.209 182.732 830.733 181.904 829.761 180.428V171.176C830.769 169.664 832.317 168.224 834.333 168.224C837.177 168.224 838.617 170.564 838.617 175.496C838.617 180.464 836.961 182.732 833.937 182.732ZM852.669 185.432C853.641 185.432 854.577 185.18 855.297 184.784L854.433 182.48C854.073 182.624 853.677 182.696 853.209 182.696C852.345 182.696 852.021 182.192 852.021 181.184V158L848.709 158.396V181.256C848.709 183.956 850.257 185.432 852.669 185.432ZM874.653 174.956C874.653 169.16 871.953 165.596 866.841 165.596C861.945 165.596 858.957 169.808 858.957 175.712C858.957 181.724 862.053 185.432 867.345 185.432C869.973 185.432 872.097 184.532 873.969 183.056L872.529 181.076C870.873 182.228 869.469 182.732 867.597 182.732C864.861 182.732 862.809 181.04 862.485 176.648H874.581C874.617 176.216 874.653 175.604 874.653 174.956ZM871.377 174.2H862.485C862.737 169.988 864.393 168.224 866.913 168.224C869.901 168.224 871.377 170.276 871.377 173.984V174.2ZM893.219 156.92C891.851 156.92 890.915 157.892 890.915 159.188C890.915 160.448 891.851 161.42 893.219 161.42C894.623 161.42 895.559 160.448 895.559 159.188C895.559 157.892 894.623 156.92 893.219 156.92ZM894.911 166.028H891.599V185H894.911V166.028ZM911.752 165.596C909.268 165.596 907.252 166.892 905.956 168.836L905.668 166.028H902.824V185H906.136V171.536C907.396 169.52 908.836 168.188 910.96 168.188C912.796 168.188 913.948 169.016 913.948 171.86V185H917.26V171.392C917.26 167.792 915.244 165.596 911.752 165.596ZM933.299 181.94C932.363 182.444 931.607 182.696 930.779 182.696C929.123 182.696 928.511 181.796 928.511 179.888V168.584H932.651L933.011 166.028H928.511V161.348L925.199 161.744V166.028H921.887V168.584H925.199V180.032C925.199 183.56 927.107 185.432 930.311 185.432C931.931 185.432 933.299 185 934.559 184.136L933.299 181.94ZM952.857 174.956C952.857 169.16 950.157 165.596 945.045 165.596C940.149 165.596 937.161 169.808 937.161 175.712C937.161 181.724 940.257 185.432 945.549 185.432C948.177 185.432 950.301 184.532 952.173 183.056L950.733 181.076C949.077 182.228 947.673 182.732 945.801 182.732C943.065 182.732 941.013 181.04 940.689 176.648H952.785C952.821 176.216 952.857 175.604 952.857 174.956ZM949.581 174.2H940.689C940.941 169.988 942.597 168.224 945.117 168.224C948.105 168.224 949.581 170.276 949.581 173.984V174.2ZM967.455 165.596C965.151 165.596 963.387 167.036 962.379 169.88L962.055 166.028H959.211V185H962.523V174.164C963.315 170.528 964.683 168.836 967.059 168.836C967.743 168.836 968.139 168.908 968.715 169.052L969.327 165.812C968.751 165.668 968.067 165.596 967.455 165.596ZM980.606 160.664C981.578 160.664 982.694 160.844 983.918 161.384L984.962 158.972C983.45 158.324 982.226 158 980.426 158C976.574 158 974.486 160.268 974.486 163.436V166.028H971.102V168.584H974.486V185H977.798V168.584H982.046L982.406 166.028H977.798V163.4C977.798 161.564 978.518 160.664 980.606 160.664ZM999.257 180.572V171.896C999.257 167.936 997.169 165.596 992.597 165.596C990.473 165.596 988.385 166.028 986.045 166.892L986.873 169.304C988.817 168.656 990.581 168.296 991.985 168.296C994.613 168.296 995.945 169.304 995.945 172.04V173.444H993.029C987.737 173.444 984.677 175.64 984.677 179.708C984.677 183.092 986.945 185.432 990.725 185.432C993.029 185.432 995.045 184.568 996.377 182.588C996.953 184.46 998.177 185.216 1000.09 185.432L1000.84 183.128C999.869 182.768 999.257 182.228 999.257 180.572ZM991.481 182.948C989.321 182.948 988.205 181.76 988.205 179.528C988.205 176.936 989.969 175.64 993.461 175.64H995.945V179.996C994.865 181.976 993.425 182.948 991.481 182.948ZM1014.04 165.596C1008.89 165.596 1005.76 169.628 1005.76 175.676C1005.76 181.796 1008.92 185.432 1014.04 185.432C1016.23 185.432 1018.14 184.712 1019.83 183.344L1018.32 181.184C1016.88 182.12 1015.76 182.624 1014.18 182.624C1011.19 182.624 1009.32 180.572 1009.32 175.604C1009.32 170.672 1011.19 168.332 1014.18 168.332C1015.76 168.332 1016.95 168.8 1018.25 169.736L1019.83 167.648C1018.07 166.172 1016.27 165.596 1014.04 165.596ZM1039.01 174.956C1039.01 169.16 1036.31 165.596 1031.19 165.596C1026.3 165.596 1023.31 169.808 1023.31 175.712C1023.31 181.724 1026.41 185.432 1031.7 185.432C1034.33 185.432 1036.45 184.532 1038.32 183.056L1036.88 181.076C1035.23 182.228 1033.82 182.732 1031.95 182.732C1029.21 182.732 1027.16 181.04 1026.84 176.648H1038.93C1038.97 176.216 1039.01 175.604 1039.01 174.956ZM1035.73 174.2H1026.84C1027.09 169.988 1028.75 168.224 1031.27 168.224C1034.25 168.224 1035.73 170.276 1035.73 173.984V174.2Z"
        fill="#3E5975" />
    <path
        d="M591.2 50.76C585.76 50.76 581.8 53.8 581.8 58.4C581.8 62.6 584.32 64.92 590.12 66.72C594.44 68.04 595.6 69.08 595.6 71.4C595.6 74.08 593.48 75.52 590.52 75.52C587.64 75.52 585.44 74.48 583.4 72.76L580.68 75.8C582.96 78.04 586.24 79.6 590.64 79.6C597.24 79.6 601.12 76.08 601.12 71.12C601.12 65.92 597.76 63.92 592.92 62.4C588.32 60.96 587.24 60.08 587.24 58.08C587.24 55.92 589.04 54.8 591.52 54.8C593.8 54.8 595.72 55.52 597.72 57.16L600.32 54.16C597.92 51.96 595.24 50.76 591.2 50.76ZM623.588 51.36H603.068V55.56H610.508V79H615.828V55.56H623.028L623.588 51.36ZM642.864 79H648.944L641.704 66.96C645.464 65.48 647.304 63.24 647.304 59.48C647.304 54 643.584 51.36 636.344 51.36H628.104V79H633.384V67.92H636.744L642.864 79ZM633.384 55.2H636.224C640.064 55.2 641.784 56.48 641.784 59.48C641.784 62.8 639.944 64.12 636.664 64.12H633.384V55.2ZM669.663 51.36H653.622V79H669.823V75.04H658.903V66.92H667.783V63H658.903V55.28H669.103L669.663 51.36ZM696.298 51.36H691.498V64.32C691.498 68.24 691.978 72.24 692.218 73.76L682.578 51.36H675.898V79H680.698V67.72C680.698 62.6 680.258 59.08 679.978 56.64L689.458 79H696.298V51.36ZM714.998 50.76C708.078 50.76 702.318 55.8 702.318 65.16C702.318 74.64 706.638 79.6 714.518 79.6C717.998 79.6 721.278 78.56 724.038 76.88V63.36H714.118L714.678 67.28H718.838V74.48C717.518 75.24 715.998 75.56 714.438 75.56C710.118 75.56 707.878 72.72 707.878 65.16C707.878 57.72 711.238 54.76 715.158 54.76C717.518 54.76 719.078 55.48 720.958 56.96L723.798 54C721.478 52.04 718.838 50.76 714.998 50.76ZM747.312 51.36H726.792V55.56H734.232V79H739.552V55.56H746.752L747.312 51.36ZM766.948 79H772.268V51.36H766.948V62.44H757.108V51.36H751.828V79H757.108V66.64H766.948V79Z"
        fill="#103049" />
    <defs>
        <filter id="filter0_d_40_10572" x="549" y="664" width="523" height="310" filterUnits="userSpaceOnUse"
            color-interpolation-filters="sRGB">
            <feFlood flood-opacity="0" result="BackgroundImageFix" />
            <feColorMatrix in="SourceAlpha" type="matrix" values="0 0 0 0 0 0 0 0 0 0 0 0 0 0 0 0 0 0 127 0"
                result="hardAlpha" />
            <feOffset dy="4" />
            <feGaussianBlur stdDeviation="2" />
            <feComposite in2="hardAlpha" operator="out" />
            <feColorMatrix type="matrix" values="0 0 0 0 0 0 0 0 0 0 0 0 0 0 0 0 0 0 0.25 0" />
            <feBlend mode="normal" in2="BackgroundImageFix" result="effect1_dropShadow_40_10572" />
            <feBlend mode="normal" in="SourceGraphic" in2="effect1_dropShadow_40_10572" result="shape" />
        </filter>
        <filter id="filter1_d_40_10572" x="0" y="664" width="523" height="310" filterUnits="userSpaceOnUse"
            color-interpolation-filters="sRGB">
            <feFlood flood-opacity="0" result="BackgroundImageFix" />
            <feColorMatrix in="SourceAlpha" type="matrix" values="0 0 0 0 0 0 0 0 0 0 0 0 0 0 0 0 0 0 127 0"
                result="hardAlpha" />
            <feOffset dy="4" />
            <feGaussianBlur stdDeviation="2" />
            <feComposite in2="hardAlpha" operator="out" />
            <feColorMatrix type="matrix" values="0 0 0 0 0 0 0 0 0 0 0 0 0 0 0 0 0 0 0.25 0" />
            <feBlend mode="normal" in2="BackgroundImageFix" result="effect1_dropShadow_40_10572" />
            <feBlend mode="normal" in="SourceGraphic" in2="effect1_dropShadow_40_10572" result="shape" />
        </filter>
        <filter id="filter2_d_40_10572" x="545" y="332" width="523" height="310" filterUnits="userSpaceOnUse"
            color-interpolation-filters="sRGB">
            <feFlood flood-opacity="0" result="BackgroundImageFix" />
            <feColorMatrix in="SourceAlpha" type="matrix" values="0 0 0 0 0 0 0 0 0 0 0 0 0 0 0 0 0 0 127 0"
                result="hardAlpha" />
            <feOffset dy="4" />
            <feGaussianBlur stdDeviation="2" />
            <feComposite in2="hardAlpha" operator="out" />
            <feColorMatrix type="matrix" values="0 0 0 0 0 0 0 0 0 0 0 0 0 0 0 0 0 0 0.25 0" />
            <feBlend mode="normal" in2="BackgroundImageFix" result="effect1_dropShadow_40_10572" />
            <feBlend mode="normal" in="SourceGraphic" in2="effect1_dropShadow_40_10572" result="shape" />
        </filter>
        <filter id="filter3_d_40_10572" x="0" y="335" width="523" height="310" filterUnits="userSpaceOnUse"
            color-interpolation-filters="sRGB">
            <feFlood flood-opacity="0" result="BackgroundImageFix" />
            <feColorMatrix in="SourceAlpha" type="matrix" values="0 0 0 0 0 0 0 0 0 0 0 0 0 0 0 0 0 0 127 0"
                result="hardAlpha" />
            <feOffset dy="4" />
            <feGaussianBlur stdDeviation="2" />
            <feComposite in2="hardAlpha" operator="out" />
            <feColorMatrix type="matrix" values="0 0 0 0 0 0 0 0 0 0 0 0 0 0 0 0 0 0 0.25 0" />
            <feBlend mode="normal" in2="BackgroundImageFix" result="effect1_dropShadow_40_10572" />
            <feBlend mode="normal" in="SourceGraphic" in2="effect1_dropShadow_40_10572" result="shape" />
        </filter>
        <filter id="filter4_d_40_10572" x="545" y="0" width="523" height="310" filterUnits="userSpaceOnUse"
            color-interpolation-filters="sRGB">
            <feFlood flood-opacity="0" result="BackgroundImageFix" />
            <feColorMatrix in="SourceAlpha" type="matrix" values="0 0 0 0 0 0 0 0 0 0 0 0 0 0 0 0 0 0 127 0"
                result="hardAlpha" />
            <feOffset dy="4" />
            <feGaussianBlur stdDeviation="2" />
            <feComposite in2="hardAlpha" operator="out" />
            <feColorMatrix type="matrix" values="0 0 0 0 0 0 0 0 0 0 0 0 0 0 0 0 0 0 0.25 0" />
            <feBlend mode="normal" in2="BackgroundImageFix" result="effect1_dropShadow_40_10572" />
            <feBlend mode="normal" in="SourceGraphic" in2="effect1_dropShadow_40_10572" result="shape" />
        </filter>
    </defs>
</svg>