<svg width="74" height="66" viewBox="0 0 74 66" fill="none" xmlns="http://www.w3.org/2000/svg">
    <path
        d="M67.2917 0H6.70827C3.00336 0 0 2.67867 0 5.98305V60.0169C0 63.3213 3.00336 66 6.70827 66H67.2917C70.9966 66 74 63.3213 74 60.0169V5.98305C74 2.67867 70.9966 0 67.2917 0Z"
        fill="#DC395F" />
    <path fill-rule="evenodd" clip-rule="evenodd"
        d="M29.6759 16.8186C29.6759 19.0957 27.6255 20.833 25.1779 20.833C22.7304 20.833 20.6806 19.0954 20.6806 16.8186C20.6806 14.5431 22.7304 12.806 25.1779 12.806C27.6255 12.806 29.6759 14.5431 29.6759 16.8186ZM15.455 45.3425C15.455 44.4454 15.5876 43.3457 15.8519 42.3272H15.8522L19.225 29.8469H14L15.5876 24.5427H28.155L23.1937 42.3653C22.863 43.5043 22.7307 44.449 22.7307 45.1067C22.7307 46.2466 23.3502 46.5797 24.3188 46.7777C24.9087 46.8972 29.6091 46.8136 32.168 41.662L35.4266 29.8469H30.1349L31.7225 24.5427H43.0324L41.5777 30.5648C43.5616 27.2097 47.5306 24.0217 51.4329 24.0217C55.5998 24.0217 59.0396 26.7103 59.0396 31.862C59.0396 33.1794 58.8409 34.6133 58.312 36.2303L56.1949 43.1167C55.997 43.8372 55.8641 44.4355 55.8641 44.9747C55.8641 46.1721 56.3933 46.7706 57.3856 46.7706C58.3778 46.7706 59.6347 46.1103 61.09 42.4583L64 43.4757C62.2801 48.9271 59.1716 51.2023 55.269 51.2023C50.705 51.2023 48.5229 48.7479 48.5229 45.3922C48.5229 44.4345 48.6546 43.4155 48.9854 42.397L51.1683 35.3286C51.4329 34.5495 51.4991 33.8314 51.4991 33.1721C51.4991 30.8966 49.9779 29.5182 47.5306 29.5182C44.4216 29.5182 42.3712 31.5392 41.3128 35.4328L37.0792 50.8108H29.6718L31.0014 45.9783C28.824 49.2178 25.7997 51.2239 22.0695 51.2239C17.5715 51.2239 15.455 48.8773 15.455 45.3425Z"
        fill="black" />
</svg>