<svg width="319" height="230" viewBox="0 0 319 230" fill="none" xmlns="http://www.w3.org/2000/svg">
    <ellipse cx="159.502" cy="92.8773" rx="92.175" ry="92.0843" fill="#256869" />
    <path fill-rule="evenodd" clip-rule="evenodd"
        d="M162.984 22.484C161.32 25.3403 158.35 30.422 152.742 32.3063C150.073 33.2013 147.903 33.0007 145.272 32.7575C142.992 32.5466 140.364 32.3037 136.765 32.7156L136.723 32.7205L136.723 32.7205C132.062 33.2548 129.126 33.5913 126.114 35.5804C123.555 37.2714 122.579 39.0582 121.564 40.9153C120.839 42.2419 120.095 43.6044 118.74 44.9935C111.724 52.1897 98.5725 49.6488 97.8469 49.4954C92.2504 48.233 87.1716 45.2976 83.2866 41.0799C100.436 15.8596 128.983 0.770043 159.502 0.792995C161.806 0.792995 164.102 0.878258 166.364 1.04026C167.269 6.65911 167.414 14.9041 162.984 22.484ZM134.717 58.0899L134.717 58.0895C141.152 50.1422 147.775 41.9623 156.02 42.9472C162.52 43.7238 168.568 50.0236 169.948 56.4529C170.792 60.3836 169.658 63.2738 168.555 66.0822C167.405 69.0108 166.29 71.8504 167.49 75.6883C168.313 78.3202 169.594 79.4028 171.313 80.8557C172.932 82.2249 174.941 83.9231 177.322 87.5569L177.323 87.5577C179.642 91.096 183.557 97.0704 183.058 104.746C182.943 106.502 182.013 117.343 172.816 121.935C166.772 124.953 159.204 124.25 154.381 120.707C151.646 118.698 150.685 116.43 149.796 114.333C148.875 112.159 148.031 110.168 145.368 108.839C142.959 107.636 141.059 107.972 138.734 108.382C136.456 108.785 133.771 109.259 129.801 108.429C126.844 107.811 121.386 106.67 118.74 102.7C115.105 97.2455 118.633 89.2399 124.066 76.916L124.066 76.916C127.126 69.9739 129.552 64.469 134.717 58.0899ZM248.767 115.933C250.703 108.4 251.68 100.654 251.677 92.8773C251.712 68.1724 241.774 44.4972 224.11 27.2076C217.529 28.657 211.512 31.7606 207.638 37.2175C204.002 42.3418 200.776 51.6014 203.951 58.9084C204.938 61.1817 206.185 62.4303 207.511 63.7591C209.041 65.2911 210.677 66.9296 212.144 70.3678C214.486 75.8545 214.321 81.0442 214.193 85.0732L214.192 85.1013C214.056 89.2848 213.431 91.8803 212.927 93.972C212.361 96.3224 211.949 98.0367 212.554 100.653C214.073 107.21 220.047 111.03 222.386 112.522C230.306 117.587 240.292 117.928 248.767 115.933ZM188.383 143.217C186.403 139.951 186.957 134.481 189.612 132.576C190.766 131.748 192.005 131.818 193.344 131.893C194.835 131.977 196.45 132.068 198.215 130.939C199.448 130.15 199.931 129.292 200.379 128.497C200.824 127.706 201.235 126.977 202.312 126.437C205.294 124.942 210.211 126.491 212.554 129.711C215.571 133.858 213.717 139.947 210.915 143.217C205.232 149.85 191.988 149.159 188.383 143.217ZM159.502 184.962C160.031 184.962 160.56 184.953 161.089 184.936C162.643 179.215 162.6 172.88 162.574 169.819V169.819C162.532 163.475 162.489 157.115 158.068 152.221C153.758 147.446 147.178 146.167 142.501 145.263C139.203 144.625 136.684 144.553 134.599 144.494C131.45 144.404 129.291 144.343 126.933 142.398C125.448 141.173 124.913 140.049 124.307 138.778C123.694 137.493 123.009 136.056 121.198 134.213C118.369 131.409 114.828 129.428 110.956 128.483C99.7929 126.079 90.4047 135.859 89.6538 136.669C87.2143 139.316 85.3129 142.411 84.0549 145.783C101.299 170.359 129.46 184.983 159.502 184.962Z"
        fill="#8CBEF9" />
    <path fill-rule="evenodd" clip-rule="evenodd"
        d="M248.758 70.7441L253.85 71.311C253.897 71.3167 253.931 71.3595 253.926 71.407C253.921 71.4545 253.878 71.4888 253.831 71.484L253.827 71.4834L248.758 70.7441ZM263.813 72.5895L273.738 74.1692C273.876 74.1893 273.993 74.2822 274.043 74.4122C274.094 74.5423 274.07 74.6894 273.982 74.7974C273.893 74.9053 273.754 74.9574 273.616 74.9336L273.608 74.9323L273.595 74.9298L263.733 73.0983L263.725 73.0971C263.587 73.0714 263.494 72.939 263.518 72.8C263.542 72.661 263.674 72.5672 263.813 72.5895V72.5895ZM293.406 78.4336L283.613 76.0793C283.339 76.0134 283.063 76.1796 282.994 76.4523C282.924 76.7249 283.087 77.0026 283.359 77.0752L283.384 77.0819L293.055 79.6671L293.093 79.6773L293.106 79.6805C293.329 79.7341 293.564 79.6648 293.721 79.4987C293.879 79.3326 293.937 79.0949 293.872 78.8752C293.807 78.6555 293.629 78.4872 293.406 78.4336ZM303.043 81.4577C306.255 82.5864 309.349 84.0254 312.281 85.7541C312.696 86.0079 312.825 86.549 312.571 86.9628C312.317 87.3766 311.776 87.5063 311.362 87.2526L311.357 87.2498L311.347 87.2436C308.533 85.5293 305.57 84.0733 302.493 82.8933C302.1 82.7392 301.905 82.2975 302.056 81.9036C302.207 81.5098 302.647 81.3108 303.043 81.4577ZM318.576 96.7781C318.927 95.8549 319.063 94.864 318.973 93.8805C318.924 93.3556 318.46 92.9693 317.934 93.0166C317.409 93.064 317.02 93.5272 317.066 94.0524L317.067 94.0587C317.113 95.4969 316.589 96.8952 315.61 97.9502C314.574 99.1347 313.372 100.163 312.041 101.003L312.026 101.013L312.016 101.02C311.712 101.23 311.543 101.586 311.573 101.954C311.603 102.323 311.827 102.647 312.161 102.805C312.496 102.963 312.889 102.931 313.193 102.721C314.68 101.748 316.017 100.561 317.16 99.2009C317.754 98.471 318.232 97.6537 318.576 96.7781ZM304.061 107.368C300.912 108.63 297.705 109.699 294.474 110.666C293.844 110.853 293.183 110.495 292.994 109.867C292.806 109.239 293.162 108.577 293.79 108.387L293.81 108.381C297.003 107.48 300.165 106.478 303.246 105.298C303.817 105.079 304.458 105.36 304.682 105.929C304.906 106.498 304.629 107.14 304.061 107.368ZM274.856 115.425L284.711 113.271C285.391 113.122 285.824 112.453 285.68 111.773C285.537 111.092 284.871 110.654 284.188 110.792L284.138 110.802L274.349 112.783L274.294 112.794L274.281 112.797C273.557 112.959 273.1 113.674 273.259 114.397C273.417 115.121 274.132 115.58 274.856 115.425ZM264.946 117.247L254.99 118.779C254.47 118.859 253.947 118.657 253.617 118.247C253.287 117.837 253.202 117.282 253.393 116.792C253.584 116.302 254.022 115.951 254.542 115.872L254.556 115.87L254.59 115.865L264.491 114.439L264.526 114.434C265.302 114.322 266.022 114.857 266.138 115.632C266.253 116.406 265.72 117.128 264.946 117.247ZM235.006 121.2L245.009 120.084C245.836 119.991 246.433 119.248 246.344 118.421C246.255 117.594 245.513 116.995 244.685 117.081L244.658 117.083L234.7 118.115L234.674 118.118L234.661 118.119C233.812 118.217 233.202 118.983 233.297 119.831C233.392 120.68 234.156 121.292 235.006 121.2ZM224.987 122.15L214.959 122.947C214.377 122.995 213.814 122.728 213.483 122.248C213.151 121.768 213.102 121.147 213.353 120.621C213.604 120.095 214.118 119.742 214.7 119.697L214.713 119.696L214.736 119.695L224.724 118.98L224.747 118.979C225.622 118.917 226.382 119.572 226.448 120.445C226.514 121.318 225.861 122.08 224.987 122.15ZM194.871 124.076L204.918 123.578C205.826 123.535 206.527 122.764 206.483 121.857C206.439 120.949 205.668 120.249 204.76 120.293L204.738 120.294L194.732 120.763L194.711 120.764L194.706 120.764C194.112 120.791 193.578 121.133 193.306 121.662C193.034 122.19 193.065 122.823 193.389 123.321C193.712 123.82 194.277 124.108 194.871 124.076ZM184.818 124.447L174.763 124.697C174.161 124.712 173.596 124.405 173.282 123.891C172.967 123.378 172.951 122.736 173.24 122.207C173.528 121.678 174.077 121.344 174.679 121.329L174.684 121.329L174.704 121.329L184.719 121.106L184.739 121.106C185.663 121.084 186.429 121.815 186.451 122.737C186.472 123.66 185.741 124.425 184.818 124.447ZM154.646 124.832C157.999 124.851 161.352 124.849 164.705 124.828C165.64 124.821 166.394 124.06 166.391 123.125C166.388 122.191 165.63 121.434 164.694 121.433H154.658C153.721 121.434 152.961 122.191 152.958 123.127C152.955 124.063 153.709 124.825 154.646 124.832ZM144.588 124.705L134.531 124.459C133.933 124.444 133.388 124.112 133.101 123.587C132.815 123.063 132.831 122.425 133.142 121.915C133.454 121.405 134.015 121.1 134.613 121.114L134.628 121.115L144.646 121.333L144.666 121.333C145.597 121.354 146.335 122.125 146.315 123.056C146.295 123.986 145.524 124.724 144.592 124.705L144.588 124.705ZM114.428 123.599L124.477 124.092L124.481 124.092C125.397 124.134 126.174 123.426 126.216 122.511C126.259 121.596 125.551 120.82 124.636 120.776L124.614 120.776L114.606 120.311L114.589 120.31C113.68 120.266 112.907 120.966 112.863 121.874C112.818 122.782 113.519 123.554 114.428 123.599ZM104.384 122.973L94.3511 122.182C93.4727 122.116 92.8145 121.351 92.8802 120.473C92.946 119.596 93.7109 118.937 94.5894 119.002L94.6136 119.004L104.606 119.715L104.629 119.717C105.53 119.781 106.208 120.562 106.143 121.461C106.079 122.361 105.297 123.038 104.397 122.974L104.384 122.973ZM74.3212 120.126L84.329 121.237L84.3413 121.239C84.8943 121.296 85.4358 121.054 85.7616 120.604C86.0875 120.154 86.1484 119.564 85.9212 119.057C85.6941 118.55 85.2135 118.203 84.6605 118.146L84.6339 118.143L74.6712 117.117L74.6435 117.114C73.8133 117.029 73.0706 117.631 72.9819 118.46C72.8932 119.289 73.4918 120.033 74.3212 120.126ZM64.3361 118.827L54.3779 117.306C53.5993 117.187 53.0632 116.462 53.1785 115.684C53.2938 114.905 54.0173 114.366 54.7969 114.478L54.8322 114.483L64.7356 115.905L64.7691 115.91C65.5706 116.031 66.1241 116.776 66.0088 117.577C65.8934 118.379 65.1524 118.938 64.3492 118.829L64.3361 118.827ZM34.6032 113.349L44.4625 115.492L44.4831 115.496C44.9571 115.592 45.4462 115.428 45.766 115.065C46.0858 114.703 46.1877 114.198 46.0331 113.74C45.8785 113.282 45.4911 112.942 45.0169 112.847L44.9693 112.837L35.1751 110.868L35.1242 110.858C34.4384 110.72 33.7703 111.161 33.6273 111.845C33.4842 112.529 33.9198 113.2 34.6032 113.349ZM24.8333 110.759C21.5985 109.799 18.3867 108.736 15.2317 107.486C14.6607 107.259 14.3795 106.615 14.6022 106.043C14.8249 105.471 15.4679 105.186 16.042 105.404C19.1306 106.574 22.298 107.568 25.4956 108.463C26.1319 108.64 26.5037 109.3 26.3261 109.935C26.1485 110.571 25.4888 110.942 24.8525 110.765L24.8333 110.759ZM2.04962 99.4587C3.2249 100.784 4.57749 101.941 6.06917 102.898L6.08381 102.907C6.56475 103.221 7.20887 103.085 7.52248 102.605C7.8361 102.124 7.70046 101.481 7.21952 101.167L7.20691 101.159C5.86348 100.33 4.63989 99.3203 3.57012 98.1595C2.5587 97.1254 1.97167 95.7504 1.9247 94.3053C1.93942 93.778 1.52561 93.3375 0.99789 93.3188C0.470175 93.3001 0.0261628 93.7102 0.00345027 94.2372C-0.0284516 95.221 0.161212 96.1993 0.558438 97.1C0.935138 97.956 1.43775 98.751 2.04962 99.4587ZM6.45361 85.9203C9.37014 84.1636 12.4564 82.7048 15.6657 81.5663C16.062 81.4177 16.5043 81.6148 16.6583 82.0087C16.8123 82.4026 16.621 82.847 16.2289 83.0061L16.2237 83.0082C13.154 84.1966 10.2021 85.6688 7.40651 87.4058L7.40046 87.4096C6.99038 87.6733 6.44397 87.5549 6.18003 87.1453C5.91608 86.7356 6.03455 86.1897 6.44463 85.926L6.45361 85.9203ZM35.0762 76.1481L25.2911 78.5171L25.2751 78.5212C24.9318 78.6147 24.729 78.9681 24.8216 79.3113C24.9142 79.6545 25.2673 79.8582 25.6111 79.7667L25.6472 79.757L35.3073 77.1561L35.3333 77.149C35.6062 77.0748 35.7688 76.7956 35.6985 76.522C35.6282 76.2484 35.351 76.0819 35.0762 76.1481ZM44.9477 74.2269L54.8703 72.6385C55.0115 72.614 55.1459 72.7084 55.1705 72.8494C55.1951 72.9904 55.1006 73.1247 54.9594 73.1493L54.9518 73.1506L45.0925 74.9915L45.0809 74.9937C44.9441 75.0192 44.8041 74.9699 44.7136 74.8643C44.623 74.7588 44.5958 74.6129 44.642 74.4818C44.6883 74.3507 44.801 74.2542 44.9378 74.2287L44.9477 74.2269ZM69.9494 70.7807L64.8583 71.3501L64.8544 71.3506C64.8232 71.3552 64.7968 71.3762 64.7854 71.4055C64.774 71.4349 64.7792 71.4681 64.7991 71.4926C64.8191 71.517 64.8506 71.5289 64.8817 71.5236L69.9494 70.7807Z"
        fill="#86C7C8" />
    <path
        d="M306.756 106.617L284.104 113.246L239.342 126.344L222.109 141.252C221.683 141.621 221.058 141.649 220.601 141.319L220.554 141.282C220.13 140.945 219.98 140.368 220.188 139.868L228.352 122.273L231.275 115.972L306.263 104.244C306.892 104.166 307.474 104.584 307.603 105.204C307.732 105.823 307.364 106.438 306.756 106.617V106.617Z"
        fill="white" stroke="black" />
    <path
        d="M307.378 106.193L307.365 106.208C307.167 106.456 306.879 106.617 306.564 106.656L291.664 108.499L231.27 115.976L216.76 93.4342C216.503 93.0334 216.503 92.5195 216.761 92.1188C217.018 91.7181 217.486 91.504 217.958 91.5706L306.558 104.241L306.594 104.245L306.661 104.257L306.731 104.273L306.793 104.292L306.869 104.319L306.931 104.346L306.939 104.352L306.998 104.382L307.061 104.417C307.101 104.443 307.139 104.47 307.176 104.499C307.225 104.538 307.271 104.581 307.313 104.627C307.333 104.647 307.351 104.669 307.369 104.692C307.389 104.715 307.408 104.74 307.425 104.765L307.477 104.848C307.488 104.865 307.497 104.883 307.504 104.902C307.51 104.908 307.513 104.915 307.515 104.922L307.541 104.978L307.55 104.985L307.571 105.037C307.587 105.083 307.6 105.13 307.611 105.177C307.617 105.199 307.621 105.221 307.624 105.244C307.636 105.316 307.641 105.389 307.638 105.463C307.638 105.497 307.636 105.531 307.632 105.566C307.63 105.595 307.625 105.625 307.62 105.654C307.615 105.683 307.606 105.729 307.597 105.767C307.588 105.8 307.577 105.832 307.565 105.863C307.552 105.902 307.536 105.94 307.518 105.977C307.505 105.999 307.493 106.021 307.483 106.045C307.451 106.096 307.416 106.146 307.378 106.193L307.378 106.193Z"
        fill="white" stroke="black" />
    <path d="M236.899 124.594L244.242 135.994L240.946 136.798L235.093 126.227L236.899 124.594Z" fill="white"
        stroke="black" />
    <mask id="mask0_27_10677" style="mask-type:alpha" maskUnits="userSpaceOnUse" x="194" y="55" width="116"
        height="116">
        <path fill-rule="evenodd" clip-rule="evenodd"
            d="M194.146 120.242L245.874 55.4491L309.208 105.913L257.48 170.706L194.146 120.242Z" fill="white" />
    </mask>
    <g mask="url(#mask0_27_10677)">
        <path
            d="M263.563 162.99C263.364 163.248 263.069 163.416 262.745 163.455C262.421 163.494 262.094 163.401 261.84 163.197C261.737 163.115 261.647 163.017 261.575 162.906L236.899 124.593L291.664 108.5L306.071 104.283C306.235 104.235 306.406 104.221 306.575 104.242C306.601 104.246 306.627 104.25 306.653 104.256L306.723 104.273L306.786 104.292L306.862 104.319L306.923 104.345L306.931 104.351L306.99 104.382L307.053 104.417C307.093 104.443 307.131 104.47 307.168 104.499C307.217 104.538 307.263 104.581 307.305 104.627C307.325 104.647 307.343 104.669 307.361 104.692C307.381 104.715 307.399 104.74 307.416 104.766L307.469 104.849C307.479 104.865 307.489 104.883 307.497 104.902C307.502 104.908 307.505 104.915 307.507 104.923L307.533 104.978L307.542 104.986L307.563 105.038C307.579 105.083 307.592 105.13 307.603 105.177C307.609 105.199 307.613 105.222 307.616 105.244C307.628 105.316 307.633 105.39 307.63 105.463C307.63 105.497 307.628 105.532 307.624 105.566C307.622 105.595 307.617 105.624 307.613 105.654C307.608 105.683 307.598 105.729 307.588 105.767C307.58 105.8 307.569 105.832 307.557 105.863C307.544 105.902 307.529 105.94 307.51 105.977C307.497 105.998 307.486 106.021 307.475 106.044C307.446 106.097 307.413 106.147 307.377 106.194L307.366 106.208L263.563 162.99Z"
            fill="white" stroke="black" />
        <path
            d="M244.242 135.993L221.601 141.514C221.235 141.603 220.849 141.518 220.554 141.283C220.42 141.177 220.31 141.043 220.233 140.89C219.973 140.392 220.091 139.78 220.517 139.413L236.9 124.594L244.242 135.993Z"
            fill="white" stroke="black" />
    </g>
    <path
        d="M59.0005 179.375H53.3245V209.088H70.2665L70.9115 204.444H59.0005V179.375ZM93.4128 197.177C93.4128 189.996 89.7578 185.696 83.3938 185.696C76.9438 185.696 73.2888 190.942 73.2888 197.865C73.2888 205.046 77.0728 209.733 84.1248 209.733C87.5648 209.733 90.3168 208.486 92.5528 206.68L90.2738 203.541C88.2958 204.917 86.6188 205.562 84.5978 205.562C81.5878 205.562 79.3948 204.057 79.0078 199.413H93.2838C93.3268 198.811 93.4128 197.908 93.4128 197.177ZM87.9518 195.844H79.0078C79.3088 191.329 80.9428 189.609 83.5228 189.609C86.6188 189.609 87.9518 191.845 87.9518 195.586V195.844ZM110.383 204.487C109.394 205.046 108.534 205.304 107.674 205.304C105.997 205.304 105.266 204.401 105.266 202.165V190.297H109.996L110.555 186.341H105.266V180.665L99.7616 181.31V186.341H96.1926V190.297H99.7616V202.294C99.7616 207.153 102.127 209.69 106.599 209.733C108.62 209.733 110.684 209.174 112.318 208.013L110.383 204.487ZM117.571 176.408C115.765 176.408 114.303 177.741 114.303 179.504C114.303 180.622 114.819 181.482 115.679 182.084L113.916 188.706H117.012L119.807 182.858C120.538 181.267 120.796 180.45 120.796 179.504C120.796 177.741 119.377 176.408 117.571 176.408ZM133.583 185.696C128.294 185.696 124.811 188.534 124.811 192.318C124.811 195.672 126.875 197.908 131.562 199.198C135.819 200.402 136.722 201.004 136.722 202.896C136.722 204.616 135.131 205.648 132.68 205.648C130.358 205.648 128.251 204.745 126.488 203.412L123.736 206.508C125.843 208.4 128.896 209.733 132.809 209.733C138.012 209.733 142.398 207.239 142.398 202.509C142.398 198.467 139.775 196.575 135.131 195.328C131.261 194.253 130.358 193.565 130.358 192.06C130.358 190.684 131.605 189.781 133.798 189.781C135.819 189.781 137.625 190.426 139.517 191.63L141.667 188.405C139.517 186.728 136.851 185.696 133.583 185.696ZM176.894 179.375H159.651V209.088H177.066V204.831H165.327V196.102H174.873V191.888H165.327V183.589H176.292L176.894 179.375ZM193.926 196.919L200.505 186.341H194.528L190.701 194.081L186.831 186.341H180.553L187.347 197.091L179.779 209.088H185.842L190.486 200.058L195.173 209.088H201.537L193.926 196.919ZM217.439 185.696C214.988 185.696 212.58 186.771 210.774 189.136L210.473 186.341H205.657V218.462L211.161 217.86V207.239C212.58 208.916 214.558 209.733 216.88 209.733C222.642 209.733 225.867 204.616 225.867 197.65C225.867 190.383 223.373 185.696 217.439 185.696ZM215.332 205.519C213.612 205.519 212.236 204.745 211.161 203.154V192.92C212.236 191.157 213.87 189.824 215.805 189.824C218.557 189.824 220.105 191.931 220.105 197.693C220.105 203.197 218.342 205.519 215.332 205.519ZM248.603 203.068V193.522C248.603 188.491 245.937 185.696 239.874 185.696C237.294 185.696 234.413 186.255 231.618 187.33L232.908 191.071C235.187 190.297 237.38 189.867 238.928 189.867C241.852 189.867 243.185 190.856 243.185 193.823V195.113H240.347C233.725 195.113 229.984 197.779 229.984 202.724C229.984 206.852 232.779 209.733 237.337 209.733C240.046 209.733 242.54 208.744 244.131 206.336C245.034 208.529 246.668 209.432 249.162 209.647L250.323 205.992C249.205 205.562 248.603 204.917 248.603 203.068ZM238.799 205.734C236.692 205.734 235.574 204.487 235.574 202.294C235.574 199.628 237.337 198.338 240.906 198.338H243.185V202.939C242.153 204.745 240.734 205.734 238.799 205.734ZM267.296 204.487C266.307 205.046 265.447 205.304 264.587 205.304C262.91 205.304 262.179 204.401 262.179 202.165V190.297H266.909L267.468 186.341H262.179V180.665L256.675 181.31V186.341H253.106V190.297H256.675V202.294C256.675 207.153 259.04 209.69 263.512 209.733C265.533 209.733 267.597 209.174 269.231 208.013L267.296 204.487ZM278.29 179.375H272.356L273.044 198.596H277.645L278.29 179.375ZM275.366 202.767C273.431 202.767 271.883 204.315 271.883 206.25C271.883 208.142 273.431 209.733 275.366 209.733C277.344 209.733 278.849 208.142 278.849 206.25C278.849 204.315 277.344 202.767 275.366 202.767Z"
        fill="#FFD700" />
</svg>