<svg width="321" height="159" viewBox="0 0 321 159" fill="none" xmlns="http://www.w3.org/2000/svg">
    <path
        d="M210.148 110.932C213.362 109.802 216.458 108.361 219.392 106.629C219.806 106.375 219.936 105.833 219.682 105.419C219.428 105.004 218.886 104.875 218.471 105.129L218.467 105.131L218.457 105.138C215.642 106.854 212.677 108.313 209.599 109.494C209.206 109.649 209.01 110.091 209.161 110.485C209.312 110.88 209.753 111.079 210.148 110.932H210.148Z"
        fill="#86C7C8" />
    <path
        d="M229.087 93.4883C229.176 94.4732 229.04 95.4655 228.689 96.39C228.345 97.267 227.867 98.0854 227.273 98.8164C226.129 100.179 224.792 101.367 223.304 102.342C223 102.553 222.606 102.585 222.272 102.426C221.937 102.268 221.713 101.943 221.683 101.574C221.653 101.205 221.822 100.848 222.126 100.638L222.136 100.631L222.151 100.621C223.483 99.7799 224.686 98.7502 225.722 97.5639C226.702 96.5074 227.225 95.107 227.179 93.6667L227.179 93.6603C227.133 93.1344 227.521 92.6705 228.047 92.6231C228.573 92.5757 229.038 92.9626 229.087 93.4882L229.087 93.4883Z"
        fill="#86C7C8" />
    <path
        d="M205.167 113.995C202.017 115.259 198.808 116.33 195.575 117.298C194.946 117.485 194.284 117.127 194.095 116.498C193.907 115.869 194.263 115.206 194.892 115.016L194.911 115.01C198.105 114.107 201.269 113.104 204.352 111.922C204.923 111.702 205.565 111.984 205.789 112.554C206.013 113.124 205.735 113.767 205.167 113.995H205.167Z"
        fill="#86C7C8" />
    <path
        d="M188.808 119.907L178.948 122.064C178.223 122.219 177.509 121.759 177.35 121.035C177.191 120.31 177.649 119.594 178.373 119.432L178.386 119.429L178.441 119.418L188.235 117.434L188.285 117.424C188.967 117.286 189.634 117.724 189.777 118.406C189.921 119.088 189.488 119.758 188.808 119.907V119.907Z"
        fill="#86C7C8" />
    <path
        d="M172.033 124.889L162.073 126.423C161.552 126.504 161.028 126.301 160.698 125.89C160.368 125.48 160.283 124.924 160.474 124.433C160.665 123.943 161.104 123.591 161.624 123.512L161.638 123.51L161.672 123.505L171.578 122.076L171.613 122.071C172.389 121.959 173.109 122.496 173.225 123.271C173.341 124.047 172.808 124.77 172.033 124.889L172.033 124.889Z"
        fill="#86C7C8" />
    <path
        d="M155.086 128.731L145.079 129.849C144.228 129.941 143.464 129.328 143.369 128.478C143.274 127.628 143.884 126.861 144.734 126.763L144.746 126.762L144.773 126.759L154.735 125.726L154.762 125.723C155.591 125.637 156.333 126.237 156.422 127.065C156.511 127.894 155.914 128.638 155.086 128.731V128.731Z"
        fill="#86C7C8" />
    <path
        d="M136.055 130.799L126.022 131.597C125.439 131.645 124.876 131.378 124.545 130.897C124.213 130.416 124.164 129.795 124.415 129.268C124.666 128.741 125.18 128.388 125.763 128.343L125.776 128.342L125.799 128.34L135.791 127.625L135.815 127.623C136.689 127.561 137.45 128.217 137.516 129.092C137.582 129.966 136.929 130.729 136.055 130.799V130.799Z"
        fill="#86C7C8" />
    <path
        d="M116.393 129.647L106.355 130.439C105.476 130.506 104.817 131.272 104.883 132.151C104.949 133.03 105.714 133.689 106.593 133.625L106.617 133.623L116.614 132.911L116.638 132.909C117.539 132.845 118.217 132.062 118.153 131.161C118.089 130.26 117.306 129.582 116.405 129.646L116.393 129.647Z"
        fill="#86C7C8" />
    <path
        d="M81.328 133.757L71.3153 134.871C70.4855 134.963 69.8865 135.709 69.9753 136.539C70.064 137.369 70.8071 137.972 71.6377 137.887L71.6654 137.884L81.633 136.856L81.6597 136.853C82.2129 136.796 82.6937 136.448 82.921 135.941C83.1482 135.433 83.0873 134.843 82.7613 134.392C82.4352 133.941 81.8936 133.699 81.3403 133.756L81.328 133.757Z"
        fill="#86C7C8" />
    <path
        d="M52.8353 141.471L62.7983 139.948C63.5773 139.829 64.1137 139.103 63.9983 138.324C63.8829 137.544 63.1591 137.004 62.3791 137.116L62.3438 137.121L52.4355 138.546L52.4021 138.55C51.6002 138.672 51.0464 139.417 51.1618 140.22C51.2771 141.023 52.0185 141.582 52.8221 141.473L52.8353 141.471Z"
        fill="#86C7C8" />
    <path
        d="M43.442 140.496L33.5778 142.642C32.8941 142.791 32.4583 143.463 32.6014 144.148C32.7445 144.833 33.413 145.274 34.0991 145.137L34.15 145.127L43.9489 143.155L43.9966 143.145C44.471 143.05 44.8586 142.709 45.0133 142.251C45.1679 141.792 45.0661 141.286 44.7461 140.923C44.4261 140.56 43.9368 140.396 43.4626 140.492L43.442 140.496Z"
        fill="#86C7C8" />
    <path
        d="M24.8031 145.005C21.5668 145.967 18.3534 147.031 15.1969 148.283C14.6256 148.51 14.3443 149.155 14.5671 149.728C14.7899 150.301 15.4332 150.587 16.0076 150.368C19.0976 149.197 22.2666 148.201 25.4658 147.305C26.1024 147.127 26.4744 146.467 26.2967 145.83C26.119 145.194 25.4589 144.822 24.8224 144.999L24.8031 145.005Z"
        fill="#86C7C8" />
    <path
        d="M0.414402 156.515C3.33236 154.756 6.42016 153.295 9.63103 152.155C10.0275 152.006 10.47 152.204 10.6241 152.598C10.7782 152.993 10.5867 153.438 10.1944 153.597L10.1893 153.599C7.11805 154.789 4.16471 156.264 1.36776 158.003L1.36172 158.007C0.951432 158.271 0.404758 158.153 0.140684 157.742C-0.12339 157.332 -0.00486419 156.785 0.405419 156.521L0.414402 156.515Z"
        fill="#86C7C8" />
    <path
        d="M98.9759 135.23L88.9233 135.728C88.3294 135.76 87.7638 135.471 87.4406 134.972C87.1174 134.473 87.086 133.839 87.3582 133.31C87.6304 132.781 88.1648 132.438 88.7589 132.411L88.7633 132.411L88.7844 132.41L98.7959 131.94L98.8173 131.939C99.7258 131.896 100.498 132.597 100.542 133.505C100.585 134.414 99.8845 135.186 98.9759 135.23L98.9759 135.23Z"
        fill="#86C7C8" />
    <path
        d="M317.864 51.2436L295.201 57.882L250.416 70.9992L233.175 85.9294C232.748 86.2991 232.124 86.3272 231.666 85.9972L231.619 85.9596C231.195 85.622 231.046 85.0444 231.253 84.5434L239.421 66.9229L242.345 60.6121L317.37 48.8666C317.999 48.7894 318.582 49.2075 318.711 49.828C318.84 50.4485 318.471 51.0641 317.864 51.2436V51.2436Z"
        fill="white" stroke="black" />
    <path
        d="M318.486 50.8196L318.473 50.835C318.275 51.0838 317.987 51.2447 317.671 51.2833L302.764 53.1299L242.341 60.6179L227.824 38.0425C227.567 37.641 227.567 37.1264 227.824 36.7251C228.082 36.3239 228.55 36.1094 229.022 36.1761L317.665 48.865L317.702 48.869L317.769 48.8813L317.839 48.8973L317.901 48.9161L317.977 48.9432L318.039 48.9701L318.046 48.9759L318.105 49.0059L318.168 49.0417C318.208 49.067 318.247 49.0943 318.284 49.1235C318.333 49.1625 318.379 49.2053 318.421 49.2512C318.441 49.2721 318.459 49.2939 318.477 49.3168C318.497 49.3401 318.515 49.3647 318.532 49.3903L318.584 49.4735C318.596 49.4904 318.605 49.5084 318.612 49.5272C318.617 49.533 318.621 49.54 318.623 49.5476L318.649 49.6034L318.658 49.6105L318.679 49.6628C318.695 49.7086 318.708 49.7554 318.719 49.8028C318.725 49.8247 318.729 49.847 318.732 49.8695C318.744 49.9419 318.749 50.0153 318.746 50.0886C318.746 50.1231 318.744 50.1575 318.74 50.1918C318.738 50.2214 318.733 50.2509 318.728 50.2803C318.723 50.3098 318.714 50.3556 318.704 50.3936C318.696 50.4261 318.685 50.4581 318.673 50.4896C318.66 50.5287 318.644 50.5668 318.626 50.6038C318.613 50.6256 318.601 50.6482 318.591 50.6714C318.559 50.7232 318.524 50.7727 318.486 50.8197L318.486 50.8196Z"
        fill="white" stroke="black" />
    <path d="M247.972 69.2461L255.319 80.6635L252.022 81.4682L246.165 70.8816L247.972 69.2461Z" fill="white"
        stroke="black" />
    <mask id="mask0_27_10899" style="mask-type:alpha" maskUnits="userSpaceOnUse" x="205" y="0" width="116" height="116">
        <path fill-rule="evenodd" clip-rule="evenodd"
            d="M205.198 64.8887L256.952 6.16362e-05L320.317 50.5386L268.563 115.427L205.198 64.8887Z" fill="white" />
    </mask>
    <g mask="url(#mask0_27_10899)">
        <path
            d="M274.649 107.699C274.45 107.958 274.155 108.126 273.831 108.165C273.506 108.204 273.18 108.111 272.925 107.907C272.822 107.825 272.733 107.726 272.661 107.616L247.972 69.2464L302.764 53.129L317.179 48.9062C317.342 48.8577 317.514 48.8438 317.683 48.8652C317.708 48.8695 317.735 48.8734 317.761 48.8795L317.831 48.8964L317.893 48.9147L317.969 48.9418L318.031 48.9683L318.039 48.9746L318.097 49.0051L318.16 49.0408C318.2 49.0661 318.239 49.0932 318.275 49.1222C318.324 49.1614 318.37 49.2042 318.413 49.2503C318.433 49.2711 318.451 49.293 318.468 49.3158C318.489 49.3391 318.507 49.3637 318.524 49.3895L318.576 49.4725C318.587 49.4895 318.597 49.5073 318.604 49.5258C318.609 49.5319 318.613 49.5391 318.615 49.5468L318.641 49.6026L318.65 49.6097L318.67 49.662C318.687 49.7078 318.7 49.7545 318.71 49.8018C318.717 49.8238 318.721 49.8461 318.724 49.8686C318.736 49.9411 318.74 50.0145 318.738 50.0878C318.738 50.1222 318.736 50.1566 318.732 50.1909C318.73 50.2201 318.725 50.2494 318.72 50.2789C318.716 50.3083 318.705 50.3546 318.696 50.3928C318.687 50.4253 318.677 50.4573 318.665 50.4888C318.652 50.5276 318.636 50.5655 318.618 50.6023C318.605 50.6241 318.593 50.6467 318.583 50.67C318.554 50.7223 318.521 50.7726 318.484 50.8203L318.473 50.8341L274.649 107.699Z"
            fill="white" stroke="black" />
        <path
            d="M255.319 80.6642L232.667 86.1933C232.301 86.2825 231.914 86.1972 231.62 85.9622C231.485 85.8558 231.376 85.7215 231.298 85.5687C231.038 85.0693 231.156 84.4569 231.582 84.0892L247.974 69.248L255.319 80.6642Z"
            fill="white" stroke="black" />
    </g>
</svg>