<svg width="1628" height="541" viewBox="0 0 1628 541" fill="none" xmlns="http://www.w3.org/2000/svg">
<rect x="1117" y="374" width="511" height="167" rx="8" fill="#EA456F"/>
<path d="M1160.52 487.92V486.04H1157.64L1158.52 479.4H1156.44L1155.56 486.04H1148.24L1149.12 479.4H1147.04L1146.16 486.04H1143.08V487.92H1145.92L1144.72 496.96H1141.6V498.8H1144.48L1143.52 506H1145.6L1146.56 498.8H1153.88L1152.92 506H1155L1155.96 498.8H1159.04V496.96H1156.2L1157.4 487.92H1160.52ZM1154.12 496.96H1146.8L1148 487.92H1155.32L1154.12 496.96ZM1179.48 478.6H1165.56V506H1179.76V504H1167.96V492.8H1177.68V490.8H1167.96V480.6H1179.2L1179.48 478.6ZM1200.99 506H1203.51L1194.39 478.6H1191.39L1182.23 506H1184.67L1187.07 498.52H1198.59L1200.99 506ZM1187.75 496.48L1192.87 480.56L1197.95 496.48H1187.75ZM1222.74 497.08H1219.14V489.28H1217.14L1216.86 497.08H1207.7L1215.3 479.76L1213.34 478.96L1205.22 497.28V499H1216.86V506H1219.14V499H1222.74V497.08ZM1240.29 479.4H1226.89V492.32H1228.73C1230.21 491.48 1231.37 491.04 1233.17 491.04C1236.41 491.04 1238.73 492.96 1238.73 497.4C1238.73 501.76 1236.37 504.48 1232.61 504.48C1230.01 504.48 1228.21 503.6 1226.53 501.84L1225.09 503.24C1227.01 505.24 1229.37 506.44 1232.61 506.44C1237.85 506.44 1241.17 502.68 1241.17 497.44C1241.17 492.28 1238.25 489.16 1233.69 489.16C1231.85 489.16 1230.41 489.68 1229.13 490.4V481.32H1239.93L1240.29 479.4ZM1255.07 488.68C1252.19 488.68 1249.91 490.16 1248.23 492.6C1248.39 485.76 1250.99 480.88 1255.43 480.88C1256.95 480.88 1258.19 481.32 1259.43 482.12L1260.43 480.52C1259.03 479.56 1257.51 478.96 1255.47 478.96C1249.51 478.96 1245.87 484.72 1245.87 494C1245.87 501 1248.11 506.44 1254.31 506.44C1258.79 506.44 1262.15 502.88 1262.15 497.04C1262.15 491.36 1258.91 488.68 1255.07 488.68ZM1254.31 504.52C1250.07 504.52 1248.39 500.92 1248.23 495C1249.75 492.36 1251.99 490.6 1254.75 490.6C1257.63 490.6 1259.79 492.48 1259.79 497.12C1259.79 501.44 1257.91 504.52 1254.31 504.52ZM1268.64 506H1271.04V493.28H1280.52V491.28H1271.04V480.6H1282.04L1282.32 478.6H1268.64V506Z" fill="white"/>
<path d="M1317.84 478.96C1314.92 478.96 1312.64 479.96 1310.56 481.96L1311.8 483.4C1313.72 481.64 1315.48 480.92 1317.72 480.92C1320.8 480.92 1322.84 482.76 1322.84 485.72C1322.84 489.36 1320.16 491.04 1317.36 491.04H1316.08L1315.76 492.92H1317.52C1321.12 492.92 1323.52 494.48 1323.52 498.52C1323.52 502.04 1321.28 504.48 1317.36 504.48C1315.04 504.48 1313.16 503.72 1311.28 501.68L1309.8 503C1311.8 505.28 1314.32 506.44 1317.44 506.44C1322.6 506.44 1325.92 503.12 1325.92 498.48C1325.92 494.28 1323.24 492 1319.92 491.84C1322.88 491.32 1325.16 489.2 1325.16 485.6C1325.16 481.88 1322.48 478.96 1317.84 478.96ZM1345.01 479.4H1331.61V492.32H1333.45C1334.93 491.48 1336.09 491.04 1337.89 491.04C1341.13 491.04 1343.45 492.96 1343.45 497.4C1343.45 501.76 1341.09 504.48 1337.33 504.48C1334.73 504.48 1332.93 503.6 1331.25 501.84L1329.81 503.24C1331.73 505.24 1334.09 506.44 1337.33 506.44C1342.57 506.44 1345.89 502.68 1345.89 497.44C1345.89 492.28 1342.97 489.16 1338.41 489.16C1336.57 489.16 1335.13 489.68 1333.85 490.4V481.32H1344.65L1345.01 479.4ZM1371.56 477.88L1353.04 505.84L1354.72 506.96L1373.28 478.96L1371.56 477.88ZM1355.28 478.96C1351.68 478.96 1349.28 481.52 1349.28 485.48C1349.28 489.44 1351.76 491.96 1355.28 491.96C1358.88 491.96 1361.24 489.4 1361.24 485.44C1361.24 481.48 1358.8 478.96 1355.28 478.96ZM1355.28 480.64C1358.12 480.64 1359.08 482.96 1359.08 485.44C1359.08 488 1358.12 490.28 1355.28 490.28C1352.44 490.28 1351.44 487.96 1351.44 485.48C1351.44 482.92 1352.44 480.64 1355.28 480.64ZM1370.76 493.44C1367.16 493.44 1364.8 495.96 1364.8 499.96C1364.8 503.92 1367.28 506.44 1370.76 506.44C1374.4 506.44 1376.76 503.88 1376.76 499.88C1376.76 495.92 1374.28 493.44 1370.76 493.44ZM1370.76 495.12C1373.64 495.12 1374.6 497.44 1374.6 499.88C1374.6 502.48 1373.64 504.76 1370.76 504.76C1367.96 504.76 1366.96 502.44 1366.96 499.96C1366.96 497.4 1367.96 495.12 1370.76 495.12ZM1403.85 478.16C1397.29 478.16 1392.69 483.32 1392.69 492.36C1392.69 501.48 1397.25 506.44 1403.85 506.44C1410.65 506.44 1415.05 501.32 1415.05 492.32C1415.05 483.08 1410.53 478.16 1403.85 478.16ZM1403.85 480.2C1409.13 480.2 1412.53 484 1412.53 492.32C1412.53 500.56 1409.21 504.4 1403.85 504.4C1398.77 504.4 1395.21 500.56 1395.21 492.36C1395.21 484.04 1398.69 480.2 1403.85 480.2ZM1430.59 484.64C1427.91 484.64 1425.67 486 1424.15 488.12L1423.95 485.08H1421.95V514.2L1424.27 513.88V503.56C1425.59 505.24 1427.59 506.44 1430.23 506.44C1435.43 506.44 1438.19 502.04 1438.19 495.44C1438.19 488.68 1435.75 484.64 1430.59 484.64ZM1429.79 504.48C1427.39 504.48 1425.55 503.24 1424.27 501.28V490.16C1425.71 488.16 1427.47 486.56 1430.15 486.56C1433.79 486.56 1435.71 489.48 1435.71 495.44C1435.71 501.44 1433.63 504.48 1429.79 504.48ZM1457.8 501.36V491.28C1457.8 487 1455.72 484.64 1450.96 484.64C1448.76 484.64 1446.68 485.12 1444.36 486.04L1444.96 487.8C1447.04 487.04 1448.96 486.6 1450.64 486.6C1454.12 486.6 1455.48 488.08 1455.48 491.4V493.44H1451.48C1446.12 493.44 1442.8 495.8 1442.8 500.2C1442.8 503.92 1445.24 506.44 1449.28 506.44C1452.08 506.44 1454.32 505.32 1455.8 502.92C1456.12 505.16 1457.2 506.08 1459.04 506.44L1459.56 504.8C1458.44 504.36 1457.8 503.68 1457.8 501.36ZM1449.68 504.56C1446.92 504.56 1445.28 502.96 1445.28 500.08C1445.28 496.76 1447.64 495.12 1451.84 495.12H1455.48V500.88C1454.16 503.24 1452.32 504.56 1449.68 504.56ZM1473.41 484.64C1468.05 484.64 1464.57 488.96 1464.57 495.68C1464.57 502.48 1468.09 506.44 1473.45 506.44C1475.81 506.44 1477.81 505.6 1479.45 504.2L1478.33 502.64C1476.85 503.76 1475.45 504.4 1473.49 504.4C1469.69 504.4 1467.05 501.64 1467.05 495.64C1467.05 489.6 1469.73 486.64 1473.53 486.64C1475.45 486.64 1476.81 487.2 1478.17 488.28L1479.33 486.76C1477.57 485.24 1475.77 484.64 1473.41 484.64ZM1486.12 475.88C1485.08 475.88 1484.4 476.64 1484.4 477.56C1484.4 478.48 1485.08 479.24 1486.12 479.24C1487.2 479.24 1487.88 478.48 1487.88 477.56C1487.88 476.64 1487.2 475.88 1486.12 475.88ZM1487.32 485.08H1485V506H1487.32V485.08ZM1504.38 503.52C1503.34 504.12 1502.34 504.44 1501.18 504.44C1499.06 504.44 1498.1 503.24 1498.1 500.8V486.96H1503.22L1503.5 485.08H1498.1V479.8L1495.78 480.08V485.08H1492.26V486.96H1495.78V500.92C1495.78 504.56 1497.74 506.44 1500.9 506.44C1502.58 506.44 1504.02 505.96 1505.3 505.12L1504.38 503.52ZM1523.06 485.08H1520.62L1514.42 504.28L1508.1 485.08H1505.58L1512.86 506H1513.66C1512.34 509.68 1511.3 511.32 1507.1 512.36L1507.34 514.16C1512.46 513.16 1514.34 510.64 1515.9 506.08L1523.06 485.08Z" fill="white"/>
<rect x="1117" y="187" width="511" height="167" rx="8" fill="#BE5872"/>
<path d="M1160.52 300.92V299.04H1157.64L1158.52 292.4H1156.44L1155.56 299.04H1148.24L1149.12 292.4H1147.04L1146.16 299.04H1143.08V300.92H1145.92L1144.72 309.96H1141.6V311.8H1144.48L1143.52 319H1145.6L1146.56 311.8H1153.88L1152.92 319H1155L1155.96 311.8H1159.04V309.96H1156.2L1157.4 300.92H1160.52ZM1154.12 309.96H1146.8L1148 300.92H1155.32L1154.12 309.96ZM1176.56 304.48C1179.44 303.96 1181.6 301.96 1181.6 298.44C1181.6 293.8 1177.92 291.6 1171.68 291.6H1165.56V319H1173.04C1179.04 319 1182.88 316.64 1182.88 311.4C1182.88 306.68 1179.88 304.84 1176.56 304.48ZM1171.92 293.6C1176.52 293.6 1179.16 294.92 1179.16 298.6C1179.16 301.8 1176.8 303.64 1173.48 303.64H1167.96V293.6H1171.92ZM1173.04 317H1167.96V305.56H1173.76C1177.48 305.56 1180.4 307.24 1180.4 311.4C1180.4 315.48 1177.48 317 1173.04 317ZM1203.38 291.6H1189.46V319H1203.66V317H1191.86V305.8H1201.58V303.8H1191.86V293.6H1203.1L1203.38 291.6ZM1222.05 292.4H1208.65V305.32H1210.49C1211.97 304.48 1213.13 304.04 1214.93 304.04C1218.17 304.04 1220.49 305.96 1220.49 310.4C1220.49 314.76 1218.13 317.48 1214.37 317.48C1211.77 317.48 1209.97 316.6 1208.29 314.84L1206.85 316.24C1208.77 318.24 1211.13 319.44 1214.37 319.44C1219.61 319.44 1222.93 315.68 1222.93 310.44C1222.93 305.28 1220.01 302.16 1215.45 302.16C1213.61 302.16 1212.17 302.68 1210.89 303.4V294.32H1221.69L1222.05 292.4ZM1238.46 304.92C1241.7 303.24 1243.26 301.4 1243.26 298.56C1243.26 294.16 1239.54 291.96 1235.74 291.96C1231.9 291.96 1228.26 294.32 1228.26 298.6C1228.26 301.56 1229.7 303.32 1232.82 304.72C1229.18 306.16 1227.1 308.6 1227.1 312.12C1227.1 316.44 1230.46 319.44 1235.66 319.44C1240.78 319.44 1244.38 316.52 1244.38 312.08C1244.38 308.52 1242.42 306.52 1238.46 304.92ZM1230.58 298.64C1230.58 295.52 1232.78 293.8 1235.74 293.8C1238.82 293.8 1240.94 295.56 1240.94 298.64C1240.94 301.12 1239.66 302.68 1236.74 304.24L1235.5 303.8C1231.94 302.48 1230.58 301.24 1230.58 298.64ZM1235.7 317.48C1232.02 317.48 1229.54 315.6 1229.54 312.12C1229.54 308.92 1231.1 306.84 1234.66 305.44L1236.02 305.96C1240.22 307.52 1241.94 308.84 1241.94 312.08C1241.94 315.52 1239.42 317.48 1235.7 317.48ZM1261.96 292.4H1247.12V294.36H1259.56L1249.32 318.6L1251.48 319.32L1261.96 294.2V292.4ZM1271.6 291.96C1268.4 291.96 1266.04 293.2 1263.92 295.76L1265.52 296.96C1267.16 295 1268.92 293.92 1271.48 293.92C1274.52 293.92 1276.52 295.92 1276.52 299.08C1276.52 303.76 1274.2 306.52 1264.32 317.04V319H1279.32L1279.64 316.96H1267.04C1275.96 307.56 1278.92 304.24 1278.92 298.96C1278.92 294.96 1276.16 291.96 1271.6 291.96Z" fill="#F8F5E9"/>
<path d="M1315.84 291.6H1313.44V319H1326.96L1327.28 316.84H1315.84V291.6ZM1333.42 288.88C1332.38 288.88 1331.7 289.64 1331.7 290.56C1331.7 291.48 1332.38 292.24 1333.42 292.24C1334.5 292.24 1335.18 291.48 1335.18 290.56C1335.18 289.64 1334.5 288.88 1333.42 288.88ZM1334.62 298.08H1332.3V319H1334.62V298.08ZM1352.32 297.64C1349.28 297.64 1346.96 299.24 1345.32 301.64L1345.08 298.08H1343.08V319H1345.4V303.84C1347.12 301.28 1349.04 299.52 1351.88 299.52C1354.44 299.52 1355.84 300.92 1355.84 304.36V319H1358.16V304.04C1358.16 300 1356.12 297.64 1352.32 297.64ZM1381.28 307.76C1381.28 301.6 1378.56 297.64 1373.12 297.64C1368 297.64 1364.76 302.04 1364.76 308.72C1364.76 315.44 1368.12 319.44 1373.64 319.44C1376.4 319.44 1378.52 318.48 1380.48 316.88L1379.4 315.4C1377.56 316.76 1376.04 317.48 1373.76 317.48C1370.16 317.48 1367.52 315.12 1367.24 309.44H1381.2C1381.24 309.04 1381.28 308.4 1381.28 307.76ZM1379 307.64H1367.24C1367.48 301.96 1369.92 299.56 1373.2 299.56C1377.16 299.56 1379 302.48 1379 307.04V307.64ZM1400.5 314.36V304.28C1400.5 300 1398.42 297.64 1393.66 297.64C1391.46 297.64 1389.38 298.12 1387.06 299.04L1387.66 300.8C1389.74 300.04 1391.66 299.6 1393.34 299.6C1396.82 299.6 1398.18 301.08 1398.18 304.4V306.44H1394.18C1388.82 306.44 1385.5 308.8 1385.5 313.2C1385.5 316.92 1387.94 319.44 1391.98 319.44C1394.78 319.44 1397.02 318.32 1398.5 315.92C1398.82 318.16 1399.9 319.08 1401.74 319.44L1402.26 317.8C1401.14 317.36 1400.5 316.68 1400.5 314.36ZM1392.38 317.56C1389.62 317.56 1387.98 315.96 1387.98 313.08C1387.98 309.76 1390.34 308.12 1394.54 308.12H1398.18V313.88C1396.86 316.24 1395.02 317.56 1392.38 317.56ZM1417.06 297.64C1414.14 297.64 1412.26 299.32 1411.14 302.76L1410.94 298.08H1408.94V319H1411.26V306.2C1412.38 301.92 1413.94 299.84 1416.86 299.84C1417.58 299.84 1418.1 299.92 1418.7 300.08L1419.14 297.88C1418.58 297.72 1417.86 297.64 1417.06 297.64Z" fill="white"/>
<path d="M1205.94 51.16H1202.1V95H1223.74L1224.25 91.544H1205.94V51.16ZM1242.18 60.824C1233.41 60.824 1227.97 67.544 1227.97 78.296C1227.97 89.048 1233.22 95.704 1242.12 95.704C1250.95 95.704 1256.32 88.984 1256.32 78.168C1256.32 67.224 1251.08 60.824 1242.18 60.824ZM1242.18 63.96C1248.64 63.96 1252.42 68.76 1252.42 78.168C1252.42 87.768 1248.52 92.568 1242.12 92.568C1235.72 92.568 1231.94 87.704 1231.94 78.296C1231.94 68.696 1235.84 63.96 1242.18 63.96ZM1290.97 58.648C1287.7 59.992 1285.27 60.952 1276.31 60.824C1268.95 60.824 1264.02 65.432 1264.02 72.152C1264.02 76.632 1265.81 79.576 1269.65 81.56C1267.35 83.032 1266.01 85.016 1266.01 87.256C1266.01 90.456 1268.69 93.144 1274.26 93.144H1279.7C1284.44 93.144 1287.25 95.128 1287.25 98.712C1287.25 102.68 1284.31 105.048 1276.5 105.048C1268.5 105.048 1266.07 103.192 1266.01 98.52H1262.55C1262.55 105.176 1266.39 108.12 1276.5 108.12C1286.29 108.12 1291.03 104.536 1291.03 98.52C1291.03 93.528 1286.93 89.944 1280.28 89.944H1274.84C1270.81 89.944 1269.53 88.472 1269.53 86.488C1269.53 84.952 1270.49 83.544 1272.09 82.648C1273.37 83.096 1274.84 83.288 1276.44 83.288C1283.99 83.288 1288.53 78.808 1288.53 72.28C1288.53 67.672 1286.36 64.856 1282.84 63.192C1286.87 63.128 1289.81 62.872 1292.12 62.232L1290.97 58.648ZM1276.31 63.704C1282.01 63.704 1284.76 66.968 1284.76 72.216C1284.76 77.528 1281.75 80.6 1276.31 80.6C1271.19 80.6 1267.86 77.528 1267.86 72.152C1267.86 67.224 1270.61 63.704 1276.31 63.704ZM1310.12 60.824C1301.35 60.824 1295.91 67.544 1295.91 78.296C1295.91 89.048 1301.16 95.704 1310.05 95.704C1318.88 95.704 1324.26 88.984 1324.26 78.168C1324.26 67.224 1319.01 60.824 1310.12 60.824ZM1310.12 63.96C1316.58 63.96 1320.36 68.76 1320.36 78.168C1320.36 87.768 1316.45 92.568 1310.05 92.568C1303.65 92.568 1299.88 87.704 1299.88 78.296C1299.88 68.696 1303.78 63.96 1310.12 63.96ZM1368.2 50.456C1358.47 50.456 1350.47 58.072 1350.47 73.048C1350.47 87.832 1358.03 95.704 1368.14 95.704C1373.58 95.704 1377.35 93.656 1379.98 91.16L1377.99 88.664C1375.43 90.712 1372.81 92.312 1368.27 92.312C1360.59 92.312 1354.51 86.36 1354.51 73.048C1354.51 59.096 1360.84 53.72 1368.46 53.72C1372.04 53.72 1374.47 54.744 1377.42 57.048L1379.47 54.488C1376.33 51.928 1373.39 50.456 1368.2 50.456ZM1398.49 60.824C1389.72 60.824 1384.28 67.544 1384.28 78.296C1384.28 89.048 1389.53 95.704 1398.43 95.704C1407.26 95.704 1412.64 88.984 1412.64 78.168C1412.64 67.224 1407.39 60.824 1398.49 60.824ZM1398.49 63.96C1404.96 63.96 1408.73 68.76 1408.73 78.168C1408.73 87.768 1404.83 92.568 1398.43 92.568C1392.03 92.568 1388.25 87.704 1388.25 78.296C1388.25 68.696 1392.16 63.96 1398.49 63.96ZM1429.1 95.704C1430.51 95.704 1431.92 95.32 1432.94 94.808L1431.92 92.056C1431.21 92.376 1430.45 92.504 1429.61 92.504C1427.76 92.504 1426.93 91.416 1426.93 89.24V47.448L1423.21 47.896V89.368C1423.21 93.656 1425.58 95.704 1429.1 95.704ZM1452.93 60.824C1444.16 60.824 1438.72 67.544 1438.72 78.296C1438.72 89.048 1443.97 95.704 1452.87 95.704C1461.7 95.704 1467.07 88.984 1467.07 78.168C1467.07 67.224 1461.83 60.824 1452.93 60.824ZM1452.93 63.96C1459.39 63.96 1463.17 68.76 1463.17 78.168C1463.17 87.768 1459.27 92.568 1452.87 92.568C1446.47 92.568 1442.69 87.704 1442.69 78.296C1442.69 68.696 1446.59 63.96 1452.93 63.96ZM1490.96 60.824C1486.29 60.824 1483.28 63.512 1481.49 69.016L1481.17 61.528H1477.97V95H1481.68V74.52C1483.48 67.672 1485.97 64.344 1490.64 64.344C1491.8 64.344 1492.63 64.472 1493.59 64.728L1494.29 61.208C1493.4 60.952 1492.24 60.824 1490.96 60.824ZM1508.91 60.824C1502.58 60.824 1497.78 64.472 1497.78 69.592C1497.78 74.264 1500.66 76.888 1507.76 78.744C1514.74 80.664 1516.59 82.136 1516.59 86.168C1516.59 90.264 1513.2 92.568 1508.34 92.568C1504.24 92.568 1501.3 91.288 1498.48 89.048L1496.43 91.416C1499.31 93.848 1502.96 95.704 1508.4 95.704C1515.06 95.704 1520.5 92.184 1520.5 85.976C1520.5 80.28 1517.04 77.784 1509.75 75.864C1503.73 74.264 1501.62 72.856 1501.62 69.528C1501.62 66.072 1504.63 63.896 1509.04 63.896C1512.43 63.896 1514.93 64.92 1517.87 66.968L1519.6 64.536C1516.47 62.104 1513.2 60.824 1508.91 60.824Z" fill="#4A6369"/>
<rect x="531" y="374" width="511" height="167" rx="8" fill="#B97B76"/>
<path d="M574.52 487.92V486.04H571.64L572.52 479.4H570.44L569.56 486.04H562.24L563.12 479.4H561.04L560.16 486.04H557.08V487.92H559.92L558.72 496.96H555.6V498.8H558.48L557.52 506H559.6L560.56 498.8H567.88L566.92 506H569L569.96 498.8H573.04V496.96H570.2L571.4 487.92H574.52ZM568.12 496.96H560.8L562 487.92H569.32L568.12 496.96ZM594.127 506H596.647L587.527 478.6H584.527L575.367 506H577.807L580.207 498.52H591.727L594.127 506ZM580.887 496.48L586.007 480.56L591.087 496.48H580.887ZM612.784 491.48C615.664 490.96 617.824 488.96 617.824 485.44C617.824 480.8 614.144 478.6 607.904 478.6H601.784V506H609.264C615.264 506 619.104 503.64 619.104 498.4C619.104 493.68 616.104 491.84 612.784 491.48ZM608.144 480.6C612.744 480.6 615.384 481.92 615.384 485.6C615.384 488.8 613.024 490.64 609.704 490.64H604.184V480.6H608.144ZM609.264 504H604.184V492.56H609.984C613.704 492.56 616.624 494.24 616.624 498.4C616.624 502.48 613.704 504 609.264 504ZM637.419 479.4H624.019V492.32H625.859C627.339 491.48 628.499 491.04 630.299 491.04C633.539 491.04 635.859 492.96 635.859 497.4C635.859 501.76 633.499 504.48 629.739 504.48C627.139 504.48 625.339 503.6 623.659 501.84L622.219 503.24C624.139 505.24 626.499 506.44 629.739 506.44C634.979 506.44 638.299 502.68 638.299 497.44C638.299 492.28 635.379 489.16 630.819 489.16C628.979 489.16 627.539 489.68 626.259 490.4V481.32H637.059L637.419 479.4ZM653.832 491.92C657.072 490.24 658.632 488.4 658.632 485.56C658.632 481.16 654.912 478.96 651.112 478.96C647.272 478.96 643.632 481.32 643.632 485.6C643.632 488.56 645.072 490.32 648.192 491.72C644.552 493.16 642.472 495.6 642.472 499.12C642.472 503.44 645.832 506.44 651.032 506.44C656.152 506.44 659.752 503.52 659.752 499.08C659.752 495.52 657.792 493.52 653.832 491.92ZM645.952 485.64C645.952 482.52 648.152 480.8 651.112 480.8C654.192 480.8 656.312 482.56 656.312 485.64C656.312 488.12 655.032 489.68 652.112 491.24L650.872 490.8C647.312 489.48 645.952 488.24 645.952 485.64ZM651.072 504.48C647.392 504.48 644.912 502.6 644.912 499.12C644.912 495.92 646.472 493.84 650.032 492.44L651.392 492.96C655.592 494.52 657.312 495.84 657.312 499.08C657.312 502.52 654.792 504.48 651.072 504.48ZM678.435 479.4H665.035V492.32H666.875C668.355 491.48 669.515 491.04 671.315 491.04C674.555 491.04 676.875 492.96 676.875 497.4C676.875 501.76 674.515 504.48 670.755 504.48C668.155 504.48 666.355 503.6 664.675 501.84L663.235 503.24C665.155 505.24 667.515 506.44 670.755 506.44C675.995 506.44 679.315 502.68 679.315 497.44C679.315 492.28 676.395 489.16 671.835 489.16C669.995 489.16 668.555 489.68 667.275 490.4V481.32H678.075L678.435 479.4ZM689.938 478.96C686.738 478.96 684.378 480.2 682.257 482.76L683.858 483.96C685.498 482 687.258 480.92 689.818 480.92C692.858 480.92 694.858 482.92 694.858 486.08C694.858 490.76 692.538 493.52 682.658 504.04V506H697.658L697.978 503.96H685.378C694.298 494.56 697.258 491.24 697.258 485.96C697.258 481.96 694.498 478.96 689.938 478.96Z" fill="#F8F5E9"/>
<path d="M749.04 479.4H734.2V481.36H746.64L736.4 505.6L738.56 506.32L749.04 481.2V479.4ZM766.318 479.4H752.918V492.32H754.758C756.238 491.48 757.398 491.04 759.198 491.04C762.438 491.04 764.758 492.96 764.758 497.4C764.758 501.76 762.398 504.48 758.638 504.48C756.038 504.48 754.238 503.6 752.558 501.84L751.118 503.24C753.038 505.24 755.398 506.44 758.638 506.44C763.878 506.44 767.198 502.68 767.198 497.44C767.198 492.28 764.278 489.16 759.718 489.16C757.878 489.16 756.438 489.68 755.158 490.4V481.32H765.958L766.318 479.4ZM792.869 477.88L774.349 505.84L776.029 506.96L794.589 478.96L792.869 477.88ZM776.589 478.96C772.989 478.96 770.589 481.52 770.589 485.48C770.589 489.44 773.069 491.96 776.589 491.96C780.189 491.96 782.549 489.4 782.549 485.44C782.549 481.48 780.109 478.96 776.589 478.96ZM776.589 480.64C779.429 480.64 780.389 482.96 780.389 485.44C780.389 488 779.429 490.28 776.589 490.28C773.749 490.28 772.749 487.96 772.749 485.48C772.749 482.92 773.749 480.64 776.589 480.64ZM792.069 493.44C788.469 493.44 786.109 495.96 786.109 499.96C786.109 503.92 788.589 506.44 792.069 506.44C795.709 506.44 798.069 503.88 798.069 499.88C798.069 495.92 795.589 493.44 792.069 493.44ZM792.069 495.12C794.949 495.12 795.909 497.44 795.909 499.88C795.909 502.48 794.949 504.76 792.069 504.76C789.269 504.76 788.269 502.44 788.269 499.96C788.269 497.4 789.269 495.12 792.069 495.12ZM825.159 478.16C818.599 478.16 813.999 483.32 813.999 492.36C813.999 501.48 818.559 506.44 825.159 506.44C831.959 506.44 836.359 501.32 836.359 492.32C836.359 483.08 831.839 478.16 825.159 478.16ZM825.159 480.2C830.439 480.2 833.839 484 833.839 492.32C833.839 500.56 830.519 504.4 825.159 504.4C820.079 504.4 816.519 500.56 816.519 492.36C816.519 484.04 819.999 480.2 825.159 480.2ZM851.896 484.64C849.216 484.64 846.976 486 845.456 488.12L845.256 485.08H843.256V514.2L845.576 513.88V503.56C846.896 505.24 848.896 506.44 851.536 506.44C856.736 506.44 859.496 502.04 859.496 495.44C859.496 488.68 857.056 484.64 851.896 484.64ZM851.096 504.48C848.696 504.48 846.856 503.24 845.576 501.28V490.16C847.016 488.16 848.776 486.56 851.456 486.56C855.096 486.56 857.016 489.48 857.016 495.44C857.016 501.44 854.936 504.48 851.096 504.48ZM879.107 501.36V491.28C879.107 487 877.027 484.64 872.267 484.64C870.067 484.64 867.987 485.12 865.667 486.04L866.267 487.8C868.347 487.04 870.267 486.6 871.947 486.6C875.427 486.6 876.787 488.08 876.787 491.4V493.44H872.787C867.427 493.44 864.107 495.8 864.107 500.2C864.107 503.92 866.547 506.44 870.587 506.44C873.387 506.44 875.627 505.32 877.107 502.92C877.427 505.16 878.507 506.08 880.347 506.44L880.867 504.8C879.747 504.36 879.107 503.68 879.107 501.36ZM870.987 504.56C868.227 504.56 866.587 502.96 866.587 500.08C866.587 496.76 868.947 495.12 873.147 495.12H876.787V500.88C875.467 503.24 873.627 504.56 870.987 504.56ZM894.713 484.64C889.353 484.64 885.873 488.96 885.873 495.68C885.873 502.48 889.393 506.44 894.753 506.44C897.113 506.44 899.113 505.6 900.753 504.2L899.633 502.64C898.153 503.76 896.753 504.4 894.793 504.4C890.993 504.4 888.353 501.64 888.353 495.64C888.353 489.6 891.033 486.64 894.833 486.64C896.753 486.64 898.113 487.2 899.473 488.28L900.633 486.76C898.873 485.24 897.073 484.64 894.713 484.64ZM907.423 475.88C906.383 475.88 905.703 476.64 905.703 477.56C905.703 478.48 906.383 479.24 907.423 479.24C908.503 479.24 909.183 478.48 909.183 477.56C909.183 476.64 908.503 475.88 907.423 475.88ZM908.623 485.08H906.303V506H908.623V485.08ZM925.684 503.52C924.644 504.12 923.644 504.44 922.484 504.44C920.364 504.44 919.404 503.24 919.404 500.8V486.96H924.524L924.804 485.08H919.404V479.8L917.084 480.08V485.08H913.564V486.96H917.084V500.92C917.084 504.56 919.044 506.44 922.204 506.44C923.884 506.44 925.324 505.96 926.604 505.12L925.684 503.52ZM944.361 485.08H941.921L935.721 504.28L929.401 485.08H926.881L934.161 506H934.961C933.641 509.68 932.601 511.32 928.401 512.36L928.641 514.16C933.761 513.16 935.641 510.64 937.201 506.08L944.361 485.08Z" fill="white"/>
<rect y="374" width="511" height="167" rx="8" fill="#AB5852"/>
<path d="M43.52 487.92V486.04H40.64L41.52 479.4H39.44L38.56 486.04H31.24L32.12 479.4H30.04L29.16 486.04H26.08V487.92H28.92L27.72 496.96H24.6V498.8H27.48L26.52 506H28.6L29.56 498.8H36.88L35.92 506H38L38.96 498.8H42.04V496.96H39.2L40.4 487.92H43.52ZM37.12 496.96H29.8L31 487.92H38.32L37.12 496.96ZM63.1266 506H65.6466L56.5266 478.6H53.5266L44.3666 506H46.8066L49.2066 498.52H60.7266L63.1266 506ZM49.8866 496.48L55.0066 480.56L60.0866 496.48H49.8866ZM81.7838 491.48C84.6638 490.96 86.8238 488.96 86.8238 485.44C86.8238 480.8 83.1438 478.6 76.9037 478.6H70.7838V506H78.2638C84.2638 506 88.1038 503.64 88.1038 498.4C88.1038 493.68 85.1038 491.84 81.7838 491.48ZM77.1438 480.6C81.7438 480.6 84.3838 481.92 84.3838 485.6C84.3838 488.8 82.0238 490.64 78.7038 490.64H73.1838V480.6H77.1438ZM78.2638 504H73.1838V492.56H78.9838C82.7038 492.56 85.6238 494.24 85.6238 498.4C85.6238 502.48 82.7038 504 78.2638 504ZM106.419 479.4H93.0194V492.32H94.8594C96.3394 491.48 97.4994 491.04 99.2994 491.04C102.539 491.04 104.859 492.96 104.859 497.4C104.859 501.76 102.499 504.48 98.7394 504.48C96.1394 504.48 94.3394 503.6 92.6594 501.84L91.2194 503.24C93.1394 505.24 95.4994 506.44 98.7394 506.44C103.979 506.44 107.299 502.68 107.299 497.44C107.299 492.28 104.379 489.16 99.8194 489.16C97.9794 489.16 96.5394 489.68 95.2594 490.4V481.32H106.059L106.419 479.4ZM122.832 491.92C126.072 490.24 127.632 488.4 127.632 485.56C127.632 481.16 123.912 478.96 120.112 478.96C116.272 478.96 112.632 481.32 112.632 485.6C112.632 488.56 114.072 490.32 117.192 491.72C113.552 493.16 111.472 495.6 111.472 499.12C111.472 503.44 114.832 506.44 120.032 506.44C125.152 506.44 128.752 503.52 128.752 499.08C128.752 495.52 126.792 493.52 122.832 491.92ZM114.952 485.64C114.952 482.52 117.152 480.8 120.112 480.8C123.192 480.8 125.312 482.56 125.312 485.64C125.312 488.12 124.032 489.68 121.112 491.24L119.872 490.8C116.312 489.48 114.952 488.24 114.952 485.64ZM120.072 504.48C116.392 504.48 113.912 502.6 113.912 499.12C113.912 495.92 115.472 493.84 119.032 492.44L120.392 492.96C124.592 494.52 126.312 495.84 126.312 499.08C126.312 502.52 123.792 504.48 120.072 504.48ZM147.435 479.4H134.035V492.32H135.875C137.355 491.48 138.515 491.04 140.315 491.04C143.555 491.04 145.875 492.96 145.875 497.4C145.875 501.76 143.515 504.48 139.755 504.48C137.155 504.48 135.355 503.6 133.675 501.84L132.235 503.24C134.155 505.24 136.515 506.44 139.755 506.44C144.995 506.44 148.315 502.68 148.315 497.44C148.315 492.28 145.395 489.16 140.835 489.16C138.995 489.16 137.555 489.68 136.275 490.4V481.32H147.075L147.435 479.4ZM158.938 478.96C155.738 478.96 153.378 480.2 151.257 482.76L152.858 483.96C154.498 482 156.258 480.92 158.818 480.92C161.858 480.92 163.858 482.92 163.858 486.08C163.858 490.76 161.538 493.52 151.658 504.04V506H166.658L166.978 503.96H154.378C163.298 494.56 166.258 491.24 166.258 485.96C166.258 481.96 163.498 478.96 158.938 478.96Z" fill="#F8F5E9"/>
<rect x="531" y="187" width="511" height="167" rx="8" fill="#4A6369"/>
<path d="M574.52 300.92V299.04H571.64L572.52 292.4H570.44L569.56 299.04H562.24L563.12 292.4H561.04L560.16 299.04H557.08V300.92H559.92L558.72 309.96H555.6V311.8H558.48L557.52 319H559.6L560.56 311.8H567.88L566.92 319H569L569.96 311.8H573.04V309.96H570.2L571.4 300.92H574.52ZM568.12 309.96H560.8L562 300.92H569.32L568.12 309.96ZM594.437 310.08H590.837V302.28H588.837L588.557 310.08H579.397L586.997 292.76L585.037 291.96L576.917 310.28V312H588.557V319H590.837V312H594.437V310.08ZM615.22 319H617.74L608.62 291.6H605.62L596.46 319H598.9L601.3 311.52H612.82L615.22 319ZM601.98 309.48L607.1 293.56L612.18 309.48H601.98ZM630.278 301.68C627.398 301.68 625.118 303.16 623.438 305.6C623.598 298.76 626.198 293.88 630.638 293.88C632.158 293.88 633.398 294.32 634.638 295.12L635.638 293.52C634.238 292.56 632.718 291.96 630.678 291.96C624.718 291.96 621.077 297.72 621.077 307C621.077 314 623.318 319.44 629.518 319.44C633.998 319.44 637.358 315.88 637.358 310.04C637.358 304.36 634.118 301.68 630.278 301.68ZM629.518 317.52C625.278 317.52 623.598 313.92 623.438 308C624.958 305.36 627.198 303.6 629.958 303.6C632.838 303.6 634.998 305.48 634.998 310.12C634.998 314.44 633.118 317.52 629.518 317.52ZM647.863 291.96C644.943 291.96 642.663 292.96 640.583 294.96L641.823 296.4C643.743 294.64 645.503 293.92 647.743 293.92C650.823 293.92 652.863 295.76 652.863 298.72C652.863 302.36 650.183 304.04 647.383 304.04H646.103L645.783 305.92H647.543C651.143 305.92 653.543 307.48 653.543 311.52C653.543 315.04 651.303 317.48 647.383 317.48C645.063 317.48 643.183 316.72 641.303 314.68L639.823 316C641.823 318.28 644.343 319.44 647.463 319.44C652.623 319.44 655.943 316.12 655.943 311.48C655.943 307.28 653.263 305 649.943 304.84C652.903 304.32 655.183 302.2 655.183 298.6C655.183 294.88 652.503 291.96 647.863 291.96ZM670.317 301.68C667.437 301.68 665.157 303.16 663.477 305.6C663.637 298.76 666.237 293.88 670.677 293.88C672.197 293.88 673.437 294.32 674.677 295.12L675.677 293.52C674.277 292.56 672.757 291.96 670.717 291.96C664.757 291.96 661.117 297.72 661.117 307C661.117 314 663.357 319.44 669.557 319.44C674.037 319.44 677.397 315.88 677.397 310.04C677.397 304.36 674.157 301.68 670.317 301.68ZM669.557 317.52C665.317 317.52 663.637 313.92 663.477 308C664.997 305.36 667.237 303.6 669.997 303.6C672.877 303.6 675.037 305.48 675.037 310.12C675.037 314.44 673.157 317.52 669.557 317.52ZM689.067 291.96C684.507 291.96 680.987 295.24 680.987 300.68C680.987 305.88 684.107 309.08 688.227 309.08C690.987 309.08 693.227 307.64 694.787 305.36C694.387 312.44 690.107 315.84 683.187 317.96L683.787 319.76C692.587 317.08 697.147 313.2 697.147 302.68C697.147 296.08 694.587 291.96 689.067 291.96ZM688.627 307.16C685.467 307.16 683.387 304.92 683.387 300.72C683.387 296.32 685.587 293.88 689.147 293.88C693.147 293.88 694.827 296.88 694.787 303.16C693.147 305.64 691.267 307.16 688.627 307.16Z" fill="white"/>
<rect y="187" width="511" height="167" rx="8" fill="#F8F6E9"/>
<path d="M43.52 300.92V299.04H40.64L41.52 292.4H39.44L38.56 299.04H31.24L32.12 292.4H30.04L29.16 299.04H26.08V300.92H28.92L27.72 309.96H24.6V311.8H27.48L26.52 319H28.6L29.56 311.8H36.88L35.92 319H38L38.96 311.8H42.04V309.96H39.2L40.4 300.92H43.52ZM37.12 309.96H29.8L31 300.92H38.32L37.12 309.96ZM48.5572 319H50.9572V306.28H60.4372V304.28H50.9572V293.6H61.9572L62.2372 291.6H48.5572V319ZM75.8394 304.92C79.0794 303.24 80.6394 301.4 80.6394 298.56C80.6394 294.16 76.9194 291.96 73.1194 291.96C69.2794 291.96 65.6394 294.32 65.6394 298.6C65.6394 301.56 67.0794 303.32 70.1994 304.72C66.5594 306.16 64.4794 308.6 64.4794 312.12C64.4794 316.44 67.8394 319.44 73.0394 319.44C78.1594 319.44 81.7594 316.52 81.7594 312.08C81.7594 308.52 79.7994 306.52 75.8394 304.92ZM67.9594 298.64C67.9594 295.52 70.1594 293.8 73.1194 293.8C76.1994 293.8 78.3194 295.56 78.3194 298.64C78.3194 301.12 77.0394 302.68 74.1194 304.24L72.8794 303.8C69.3194 302.48 67.9594 301.24 67.9594 298.64ZM73.0794 317.48C69.3994 317.48 66.9194 315.6 66.9194 312.12C66.9194 308.92 68.4794 306.84 72.0394 305.44L73.3994 305.96C77.5994 307.52 79.3194 308.84 79.3194 312.08C79.3194 315.52 76.7994 317.48 73.0794 317.48ZM88.3228 319H90.7228V306.28H100.203V304.28H90.7228V293.6H101.723L102.003 291.6H88.3228V319ZM114.395 301.68C111.515 301.68 109.235 303.16 107.555 305.6C107.715 298.76 110.315 293.88 114.755 293.88C116.275 293.88 117.515 294.32 118.755 295.12L119.755 293.52C118.355 292.56 116.835 291.96 114.795 291.96C108.835 291.96 105.195 297.72 105.195 307C105.195 314 107.435 319.44 113.635 319.44C118.115 319.44 121.475 315.88 121.475 310.04C121.475 304.36 118.235 301.68 114.395 301.68ZM113.635 317.52C109.395 317.52 107.715 313.92 107.555 308C109.075 305.36 111.315 303.6 114.075 303.6C116.955 303.6 119.115 305.48 119.115 310.12C119.115 314.44 117.235 317.52 113.635 317.52ZM141.891 291.6H127.971V319H142.171V317H130.371V305.8H140.091V303.8H130.371V293.6H141.611L141.891 291.6ZM153.614 291.96C149.054 291.96 145.534 295.24 145.534 300.68C145.534 305.88 148.654 309.08 152.774 309.08C155.534 309.08 157.774 307.64 159.334 305.36C158.934 312.44 154.654 315.84 147.734 317.96L148.334 319.76C157.134 317.08 161.694 313.2 161.694 302.68C161.694 296.08 159.134 291.96 153.614 291.96ZM153.174 307.16C150.014 307.16 147.934 304.92 147.934 300.72C147.934 296.32 150.134 293.88 153.694 293.88C157.694 293.88 159.374 296.88 159.334 303.16C157.694 305.64 155.814 307.16 153.174 307.16Z" fill="#AB5852"/>
<rect width="1042" height="167" rx="8" fill="#E2D6A7"/>
<path d="M43.52 113.92V112.04H40.64L41.52 105.4H39.44L38.56 112.04H31.24L32.12 105.4H30.04L29.16 112.04H26.08V113.92H28.92L27.72 122.96H24.6V124.8H27.48L26.52 132H28.6L29.56 124.8H36.88L35.92 132H38L38.96 124.8H42.04V122.96H39.2L40.4 113.92H43.52ZM37.12 122.96H29.8L31 113.92H38.32L37.12 122.96ZM62.4772 104.6H48.5572V132H62.7572V130H50.9572V118.8H60.6772V116.8H50.9572V106.6H62.1972L62.4772 104.6ZM73.5859 104.96C70.3859 104.96 68.0259 106.2 65.9059 108.76L67.5059 109.96C69.1459 108 70.9059 106.92 73.4659 106.92C76.5059 106.92 78.5059 108.92 78.5059 112.08C78.5059 116.76 76.1859 119.52 66.3059 130.04V132H81.3059L81.6259 129.96H69.0259C77.9459 120.56 80.9059 117.24 80.9059 111.96C80.9059 107.96 78.1459 104.96 73.5859 104.96ZM93.6066 104.6H88.1666V132H94.0466C99.6866 132 106.367 129.44 106.367 118.08C106.367 106.8 99.9666 104.6 93.6066 104.6ZM93.9266 106.6C98.7266 106.6 103.847 108.04 103.847 118.08C103.847 127.92 98.9266 130 94.2066 130H90.5666V106.6H93.9266ZM120.84 114.68C117.96 114.68 115.68 116.16 114 118.6C114.16 111.76 116.76 106.88 121.2 106.88C122.72 106.88 123.96 107.32 125.2 108.12L126.2 106.52C124.8 105.56 123.28 104.96 121.24 104.96C115.28 104.96 111.64 110.72 111.64 120C111.64 127 113.88 132.44 120.08 132.44C124.56 132.44 127.92 128.88 127.92 123.04C127.92 117.36 124.68 114.68 120.84 114.68ZM120.08 130.52C115.84 130.52 114.16 126.92 114 121C115.52 118.36 117.76 116.6 120.52 116.6C123.4 116.6 125.56 118.48 125.56 123.12C125.56 127.44 123.68 130.52 120.08 130.52ZM149.377 132H151.897L142.777 104.6H139.777L130.617 132H133.057L135.457 124.52H146.977L149.377 132ZM136.137 122.48L141.257 106.56L146.337 122.48H136.137ZM167.853 105.4H153.013V107.36H165.453L155.213 131.6L157.373 132.32L167.853 107.2V105.4Z" fill="#AB5852"/>
</svg>
