<svg width="36" height="36" viewBox="0 0 36 36" fill="none" xmlns="http://www.w3.org/2000/svg">
<path d="M17.9997 0C8.07476 0 0 8.07476 0 18C0 27.9255 8.07476 36 17.9997 36C27.9249 36 36 27.9255 36 18C35.9997 8.07476 27.9246 0 17.9997 0ZM17.9997 34.2247C9.05355 34.2247 1.77532 26.9464 1.77532 18C1.77532 9.05385 9.05355 1.77532 17.9997 1.77532C26.9458 1.77532 34.2247 9.05385 34.2247 18C34.2244 26.9464 26.9458 34.2247 17.9997 34.2247Z" fill="white"/>
<path d="M8 11.75H7.75V12V24V24.25H8H28H28.25V24V12V11.75H28H8ZM19.8631 19.4832L25.5923 23.1234H10.4082L16.1369 19.4835L17.8437 20.8509L18 20.9762L18.1563 20.8509L19.8631 19.4832ZM18 19.5338L9.6909 12.8763H26.3091L18 19.5338ZM8.875 22.7637V13.6651L15.2083 18.7397L8.875 22.7637ZM27.125 13.6652V22.7637L20.792 18.7397L27.125 13.6652Z" fill="white" stroke="white" stroke-width="0.5"/>
</svg>
