<svg width="141" height="141" viewBox="0 0 141 141" fill="none" xmlns="http://www.w3.org/2000/svg">
<rect width="141" height="141" fill="#086788"/>
<path d="M51.8256 44.7552C51.8256 48.3904 52.9008 50.3872 55.0512 50.7456C54.8976 51.4624 54.3088 51.8208 53.2848 51.8208C51.1856 51.8208 49.7008 50.5664 48.8304 48.0576C48.4208 46.88 48.216 45.4464 48.216 43.7568C48.216 42.0672 48.8816 40.0192 50.2128 37.6128C53.2848 32.032 58.9168 28.4224 67.1088 26.784C70.0272 26.2208 73.2272 25.9392 76.7088 25.9392C80.1904 25.9392 83.3392 25.5296 86.1552 24.7104C89.0224 23.8912 91.1216 22.9696 92.4528 21.9456C93.8352 20.9216 95.1152 20 96.2928 19.1808C97.5216 18.3616 98.52 17.952 99.288 17.952C100.107 17.952 100.517 18.3104 100.517 19.0272C100.517 20.7168 98.8528 22.432 95.5248 24.1728C92.1968 25.9136 87.8704 27.04 82.5456 27.552C80.344 28.7296 78.6288 32.9024 77.4 40.0704C76.0176 48.3136 74.8656 55.0464 73.944 60.2688C73.0224 65.4912 71.9216 69.9712 70.6416 73.7088C69.4128 77.3952 68.0048 80.672 66.4176 83.5392C64.8304 86.3552 62.7312 88.608 60.12 90.2976C57.56 92.0384 54.5392 92.9088 51.0576 92.9088C47.6272 92.9088 44.8368 91.7824 42.6864 89.5296C40.3312 87.072 39.1536 83.744 39.1536 79.5456C39.1536 72.5312 41.0224 67.1552 44.76 63.4176C47.0128 61.1648 49.5216 60.0384 52.2864 60.0384C52.952 60.0384 53.4896 60.192 53.8992 60.4992C54.36 60.8064 54.6672 61.2672 54.8208 61.8816C50.4688 61.8816 46.936 64.1344 44.2224 68.64C42.2256 71.968 41.2272 75.424 41.2272 79.008C41.2272 84.896 43.2496 88.48 47.2944 89.76C48.216 90.0672 49.2144 90.2208 50.2896 90.2208C53.464 90.2208 56.2288 88.9152 58.584 86.304C60.9904 83.6928 62.808 80.3904 64.0368 76.3968C65.3168 72.4032 66.52 67.9232 67.6464 62.9568C68.824 57.9392 69.7968 53.1776 70.5648 48.672C71.3328 44.1664 72.3568 39.968 73.6368 36.0768C74.968 32.1344 76.4784 29.3696 78.168 27.7824H76.632C66.136 27.7824 58.8144 30.7264 54.6672 36.6144C52.7728 39.2768 51.8256 41.9904 51.8256 44.7552Z" fill="white"/>
<path d="M7.10379 110.579C26.7378 107.052 45.8491 101.585 65.3272 97.4827C82.8824 93.7852 100.568 90.353 118.472 88.1325C122.533 87.6288 126.561 87.5297 130.651 87.4921C131.438 87.4849 132.533 87.225 132.9 87.8373" stroke="white" stroke-width="3" stroke-linecap="round"/>
<path d="M20.1189 119.606C29.3444 118.873 38.4659 114.953 47.4509 112.237C63.3238 107.438 79.2029 103.086 95.3912 100.971C103.555 99.904 111.688 99.4936 119.881 99.3943" stroke="white" stroke-width="3" stroke-linecap="round"/>
</svg>
