<svg width="390" height="85" viewBox="0 0 390 85" fill="none" xmlns="http://www.w3.org/2000/svg">
<rect width="390" height="85" fill="white"/>
<path d="M39.792 36.528C39.76 34.64 39.568 33.072 39.216 31.824C38.864 30.576 38.24 29.648 37.344 29.04C36.48 28.4 35.216 28.096 33.552 28.128H29.472L29.424 54.288C29.424 55.152 29.408 55.904 29.376 56.544C29.376 57.152 29.344 57.664 29.28 58.08C29.952 58.048 30.608 58.016 31.248 57.984C31.92 57.952 32.592 57.92 33.264 57.888V60H21.984V58.416C23.2 58.352 24.016 58.064 24.432 57.552C24.88 57.04 25.12 56.352 25.152 55.488C25.216 54.592 25.248 53.6 25.248 52.512L25.296 28.176L20.352 28.224C18.336 28.224 16.912 28.896 16.08 30.24C15.248 31.584 14.832 33.68 14.832 36.528H13.056L13.344 26.4H41.328L41.616 36.528H39.792ZM58.2353 60C58.1393 59.456 58.0753 58.976 58.0433 58.56C58.0113 58.144 57.9633 57.712 57.8993 57.264C56.8113 58.352 55.6273 59.216 54.3473 59.856C53.0993 60.464 51.7713 60.768 50.3633 60.768C47.9313 60.768 46.1233 60.224 44.9393 59.136C43.7553 58.016 43.1633 56.656 43.1633 55.056C43.1633 53.584 43.6113 52.32 44.5073 51.264C45.4353 50.176 46.6193 49.296 48.0593 48.624C49.5313 47.92 51.1153 47.408 52.8113 47.088C54.5393 46.736 56.2033 46.576 57.8033 46.608V43.632C57.8033 42.512 57.7073 41.456 57.5153 40.464C57.3233 39.472 56.9073 38.656 56.2673 38.016C55.6273 37.376 54.6033 37.04 53.1953 37.008C52.2673 36.976 51.3073 37.152 50.3153 37.536C49.3553 37.92 48.6513 38.576 48.2033 39.504C48.4593 39.76 48.6193 40.064 48.6833 40.416C48.7793 40.736 48.8273 41.04 48.8273 41.328C48.8273 41.712 48.6673 42.16 48.3473 42.672C48.0273 43.152 47.4673 43.376 46.6673 43.344C45.9953 43.344 45.4833 43.12 45.1313 42.672C44.7793 42.192 44.6033 41.632 44.6033 40.992C44.6033 39.904 45.0033 38.928 45.8033 38.064C46.6353 37.2 47.7713 36.512 49.2113 36C50.6513 35.488 52.2833 35.232 54.1073 35.232C56.7953 35.232 58.7793 35.952 60.0593 37.392C61.3393 38.8 61.9633 41.04 61.9313 44.112C61.9313 45.296 61.9313 46.496 61.9313 47.712C61.9313 48.896 61.9153 50.096 61.8833 51.312C61.8833 52.496 61.8833 53.696 61.8833 54.912C61.8833 55.424 61.8673 55.936 61.8353 56.448C61.8033 56.96 61.7553 57.536 61.6913 58.176C62.2673 58.144 62.8273 58.112 63.3713 58.08C63.9473 58.048 64.5233 58.016 65.0993 57.984V60H58.2353ZM57.8033 48.24C56.7153 48.272 55.5633 48.416 54.3473 48.672C53.1633 48.896 52.0593 49.248 51.0353 49.728C50.0433 50.208 49.2273 50.848 48.5872 51.648C47.9793 52.416 47.6913 53.36 47.7233 54.48C47.7873 55.664 48.1713 56.56 48.8753 57.168C49.6113 57.744 50.4753 58.032 51.4673 58.032C52.7793 58.032 53.9153 57.792 54.8753 57.312C55.8673 56.8 56.8433 56.096 57.8033 55.2C57.7713 54.848 57.7553 54.464 57.7553 54.048C57.7553 53.632 57.7553 53.2 57.7553 52.752C57.7553 52.592 57.7553 52.08 57.7553 51.216C57.7873 50.352 57.8033 49.36 57.8033 48.24ZM69.9293 30C69.9293 29.488 69.9293 29.008 69.9293 28.56C69.9613 28.08 70.0093 27.52 70.0733 26.88C69.4973 26.912 68.9213 26.944 68.3453 26.976C67.8013 27.008 67.2413 27.04 66.6653 27.072V25.056C68.0733 25.056 69.1613 24.992 69.9293 24.864C70.7293 24.736 71.3213 24.576 71.7053 24.384C72.1213 24.192 72.4413 23.984 72.6653 23.76H74.0573V38.064C74.9533 37.168 76.0093 36.48 77.2253 36C78.4733 35.488 79.8333 35.232 81.3053 35.232C83.3533 35.232 85.1933 35.728 86.8253 36.72C88.4893 37.712 89.8013 39.12 90.7613 40.944C91.7213 42.768 92.2013 44.928 92.2013 47.424C92.2013 50.144 91.6093 52.512 90.4253 54.528C89.2413 56.512 87.7053 58.048 85.8173 59.136C83.9293 60.224 81.8973 60.768 79.7213 60.768C78.6333 60.768 77.4333 60.56 76.1213 60.144C74.8413 59.76 73.6893 58.992 72.6653 57.84L71.5133 60H69.8333L69.9293 30ZM74.0573 52.464C74.0573 54.16 74.3293 55.472 74.8733 56.4C75.4173 57.296 76.1213 57.92 76.9853 58.272C77.8493 58.624 78.7613 58.8 79.7213 58.8C81.2573 58.8 82.5853 58.368 83.7053 57.504C84.8253 56.64 85.6893 55.456 86.2973 53.952C86.9373 52.416 87.2573 50.64 87.2573 48.624C87.2573 46.448 86.9853 44.544 86.4413 42.912C85.8973 41.248 85.0813 39.952 83.9933 39.024C82.9053 38.064 81.5293 37.584 79.8653 37.584C78.8093 37.584 77.7533 37.84 76.6973 38.352C75.6733 38.832 74.7933 39.488 74.0573 40.32V52.464ZM96.3308 58.56C97.3228 58.56 98.0108 58.32 98.3948 57.84C98.7788 57.328 99.0028 56.64 99.0668 55.776C99.1308 54.88 99.1628 53.856 99.1628 52.704V41.76C99.1628 41.248 99.1788 40.768 99.2108 40.32C99.2428 39.84 99.2908 39.28 99.3548 38.64C98.7788 38.672 98.2028 38.704 97.6268 38.736C97.0828 38.768 96.5228 38.8 95.9468 38.832V36.816C97.3548 36.816 98.4428 36.752 99.2108 36.624C99.9788 36.496 100.555 36.336 100.939 36.144C101.355 35.952 101.675 35.744 101.899 35.52H103.291V54.912C103.291 55.552 103.275 56.128 103.243 56.64C103.243 57.12 103.195 57.632 103.099 58.176C103.611 58.144 104.107 58.128 104.587 58.128C105.099 58.096 105.611 58.064 106.123 58.032V60H96.3308V58.56ZM100.987 30.768C100.315 30.768 99.7228 30.496 99.2108 29.952C98.6988 29.408 98.4428 28.736 98.4428 27.936C98.4428 27.136 98.6988 26.464 99.2108 25.92C99.7548 25.344 100.363 25.056 101.035 25.056C101.771 25.056 102.379 25.344 102.859 25.92C103.371 26.464 103.627 27.136 103.627 27.936C103.627 28.736 103.355 29.408 102.811 29.952C102.299 30.496 101.691 30.768 100.987 30.768ZM119.605 60.768C118.869 60.768 118.117 60.656 117.349 60.432C116.581 60.24 115.861 59.84 115.189 59.232C114.549 58.624 114.037 57.744 113.653 56.592C113.269 55.408 113.077 53.856 113.077 51.936L113.173 38.016L109.477 38.064V36C110.309 35.968 111.157 35.664 112.021 35.088C112.885 34.48 113.653 33.664 114.325 32.64C115.029 31.616 115.509 30.496 115.765 29.28H117.397V36H125.461V37.872L117.397 37.968L117.301 51.312C117.301 52.752 117.413 53.984 117.637 55.008C117.893 56 118.293 56.752 118.837 57.264C119.381 57.776 120.085 58.032 120.949 58.032C121.845 58.032 122.677 57.776 123.445 57.264C124.245 56.752 124.949 56.048 125.557 55.152L126.853 56.208C126.149 57.264 125.445 58.096 124.741 58.704C124.069 59.312 123.413 59.76 122.773 60.048C122.133 60.368 121.541 60.56 120.997 60.624C120.453 60.72 119.989 60.768 119.605 60.768ZM144.551 58.56C145.543 58.56 146.231 58.32 146.615 57.84C146.999 57.328 147.223 56.64 147.287 55.776C147.351 54.88 147.383 53.856 147.383 52.704V45.984C147.383 43.232 146.935 41.168 146.039 39.792C145.175 38.416 143.799 37.744 141.911 37.776C140.727 37.808 139.559 38.096 138.407 38.64C137.287 39.184 136.375 39.888 135.671 40.752V54.912C135.671 55.552 135.655 56.128 135.623 56.64C135.591 57.12 135.527 57.632 135.431 58.176C135.943 58.144 136.439 58.128 136.919 58.128C137.431 58.096 137.943 58.064 138.455 58.032V60H128.663V58.56C129.655 58.56 130.343 58.32 130.727 57.84C131.111 57.328 131.335 56.64 131.399 55.776C131.495 54.88 131.543 53.856 131.543 52.704V30C131.543 29.488 131.543 29.008 131.543 28.56C131.575 28.08 131.623 27.52 131.687 26.88C131.111 26.912 130.535 26.944 129.959 26.976C129.415 27.008 128.855 27.04 128.279 27.072V25.056C129.687 25.056 130.775 24.992 131.543 24.864C132.343 24.736 132.935 24.576 133.319 24.384C133.735 24.192 134.055 23.984 134.279 23.76H135.671V38.4C136.375 37.792 137.159 37.264 138.023 36.816C138.919 36.336 139.831 35.952 140.759 35.664C141.719 35.376 142.647 35.232 143.543 35.232C146.327 35.232 148.327 36.112 149.543 37.872C150.791 39.6 151.431 42.304 151.463 45.984L151.511 54.912C151.511 55.552 151.495 56.128 151.463 56.64C151.463 57.12 151.415 57.632 151.319 58.176C151.831 58.144 152.327 58.128 152.807 58.128C153.319 58.096 153.831 58.064 154.343 58.032V60H144.551V58.56ZM172.47 60C172.374 59.456 172.31 58.976 172.278 58.56C172.246 58.144 172.198 57.712 172.134 57.264C171.046 58.352 169.862 59.216 168.582 59.856C167.334 60.464 166.006 60.768 164.598 60.768C162.166 60.768 160.358 60.224 159.174 59.136C157.99 58.016 157.398 56.656 157.398 55.056C157.398 53.584 157.846 52.32 158.742 51.264C159.67 50.176 160.854 49.296 162.294 48.624C163.766 47.92 165.35 47.408 167.046 47.088C168.774 46.736 170.438 46.576 172.038 46.608V43.632C172.038 42.512 171.942 41.456 171.75 40.464C171.558 39.472 171.142 38.656 170.502 38.016C169.862 37.376 168.838 37.04 167.43 37.008C166.502 36.976 165.542 37.152 164.55 37.536C163.59 37.92 162.886 38.576 162.438 39.504C162.694 39.76 162.854 40.064 162.918 40.416C163.014 40.736 163.062 41.04 163.062 41.328C163.062 41.712 162.902 42.16 162.582 42.672C162.262 43.152 161.702 43.376 160.902 43.344C160.23 43.344 159.718 43.12 159.366 42.672C159.014 42.192 158.838 41.632 158.838 40.992C158.838 39.904 159.238 38.928 160.038 38.064C160.87 37.2 162.006 36.512 163.446 36C164.886 35.488 166.518 35.232 168.342 35.232C171.03 35.232 173.014 35.952 174.294 37.392C175.574 38.8 176.198 41.04 176.166 44.112C176.166 45.296 176.166 46.496 176.166 47.712C176.166 48.896 176.15 50.096 176.118 51.312C176.118 52.496 176.118 53.696 176.118 54.912C176.118 55.424 176.102 55.936 176.07 56.448C176.038 56.96 175.99 57.536 175.926 58.176C176.502 58.144 177.062 58.112 177.606 58.08C178.182 58.048 178.758 58.016 179.334 57.984V60H172.47ZM172.038 48.24C170.95 48.272 169.798 48.416 168.582 48.672C167.398 48.896 166.294 49.248 165.27 49.728C164.278 50.208 163.462 50.848 162.822 51.648C162.214 52.416 161.926 53.36 161.958 54.48C162.022 55.664 162.406 56.56 163.11 57.168C163.846 57.744 164.71 58.032 165.702 58.032C167.014 58.032 168.15 57.792 169.11 57.312C170.102 56.8 171.078 56.096 172.038 55.2C172.006 54.848 171.99 54.464 171.99 54.048C171.99 53.632 171.99 53.2 171.99 52.752C171.99 52.592 171.99 52.08 171.99 51.216C172.022 50.352 172.038 49.36 172.038 48.24ZM195.765 60V58.416C196.981 58.352 197.813 58.08 198.261 57.6C198.709 57.088 198.949 56.4 198.981 55.536C199.045 54.64 199.077 53.632 199.077 52.512V31.776C199.077 31.136 199.093 30.528 199.125 29.952C199.157 29.344 199.189 28.8 199.221 28.32C198.645 28.352 198.069 28.384 197.493 28.416C196.917 28.448 196.341 28.48 195.765 28.512V26.4H206.565V27.984C205.381 28.016 204.549 28.288 204.069 28.8C203.621 29.312 203.365 30 203.301 30.864C203.269 31.728 203.253 32.736 203.253 33.888V54.48C203.253 55.344 203.237 56.08 203.205 56.688C203.205 57.296 203.173 57.808 203.109 58.224L212.085 58.08C214.101 58.048 215.621 57.408 216.645 56.16C217.701 54.912 218.229 52.88 218.229 50.064H219.861L219.573 60H195.765ZM234.603 60.768C232.395 60.768 230.395 60.256 228.603 59.232C226.843 58.176 225.451 56.704 224.427 54.816C223.403 52.896 222.891 50.64 222.891 48.048C222.891 45.808 223.387 43.712 224.379 41.76C225.403 39.808 226.827 38.24 228.651 37.056C230.475 35.84 232.587 35.232 234.987 35.232C236.331 35.232 237.579 35.456 238.731 35.904C239.915 36.32 240.955 36.976 241.851 37.872C242.747 38.736 243.451 39.84 243.963 41.184C244.475 42.496 244.731 44.048 244.731 45.84L227.835 46.128C227.835 48.56 228.091 50.704 228.603 52.56C229.147 54.384 230.011 55.808 231.195 56.832C232.379 57.824 233.899 58.32 235.755 58.32C236.747 58.32 237.755 58.144 238.779 57.792C239.835 57.44 240.811 56.96 241.707 56.352C242.603 55.744 243.323 55.072 243.867 54.336L245.019 55.296C244.155 56.64 243.115 57.712 241.899 58.512C240.683 59.312 239.435 59.888 238.155 60.24C236.875 60.592 235.691 60.768 234.603 60.768ZM227.979 44.112H240.219C240.219 42.96 240.043 41.856 239.691 40.8C239.371 39.712 238.827 38.832 238.059 38.16C237.291 37.456 236.283 37.104 235.035 37.104C233.179 37.104 231.627 37.664 230.379 38.784C229.163 39.872 228.363 41.648 227.979 44.112ZM260.672 60.768C258.432 60.768 256.4 60.256 254.576 59.232C252.752 58.176 251.296 56.736 250.208 54.912C249.152 53.056 248.624 50.944 248.624 48.576C248.624 46.048 249.152 43.776 250.208 41.76C251.264 39.744 252.704 38.16 254.528 37.008C256.352 35.824 258.4 35.232 260.672 35.232C262.912 35.232 264.944 35.776 266.768 36.864C268.592 37.92 270.048 39.36 271.136 41.184C272.224 43.008 272.768 45.088 272.768 47.424C272.768 49.888 272.224 52.144 271.136 54.192C270.08 56.208 268.64 57.808 266.816 58.992C264.992 60.176 262.944 60.768 260.672 60.768ZM261.056 58.848C262.752 58.848 264.096 58.368 265.088 57.408C266.08 56.448 266.784 55.2 267.2 53.664C267.648 52.128 267.872 50.512 267.872 48.816C267.872 47.376 267.728 45.968 267.44 44.592C267.184 43.184 266.768 41.92 266.192 40.8C265.616 39.648 264.864 38.736 263.936 38.064C263.04 37.392 261.952 37.056 260.672 37.056C259.008 37.056 257.648 37.536 256.592 38.496C255.536 39.456 254.752 40.704 254.24 42.24C253.76 43.776 253.52 45.424 253.52 47.184C253.52 49.168 253.792 51.056 254.336 52.848C254.88 54.608 255.712 56.048 256.832 57.168C257.952 58.288 259.36 58.848 261.056 58.848ZM276.846 60V58.56C277.838 58.56 278.526 58.32 278.91 57.84C279.294 57.328 279.518 56.64 279.582 55.776C279.646 54.88 279.678 53.856 279.678 52.704L279.726 41.76C279.726 41.248 279.726 40.736 279.726 40.224C279.758 39.712 279.822 39.184 279.918 38.64C279.342 38.672 278.766 38.704 278.19 38.736C277.646 38.768 277.086 38.8 276.51 38.832V36.816C277.918 36.816 278.974 36.752 279.678 36.624C280.414 36.496 280.958 36.336 281.31 36.144C281.662 35.952 281.95 35.744 282.174 35.52H283.566C283.598 35.744 283.614 36 283.614 36.288C283.646 36.576 283.678 36.896 283.71 37.248C283.742 37.6 283.758 38 283.758 38.448C284.462 37.84 285.23 37.296 286.062 36.816C286.926 36.336 287.822 35.952 288.75 35.664C289.71 35.376 290.654 35.232 291.582 35.232C294.366 35.232 296.398 36.112 297.678 37.872C298.958 39.6 299.598 42.304 299.598 45.984V54.912C299.598 55.552 299.582 56.128 299.55 56.64C299.55 57.12 299.502 57.632 299.406 58.176C299.918 58.144 300.414 58.128 300.894 58.128C301.406 58.096 301.918 58.064 302.43 58.032V60H292.638V58.56C293.63 58.56 294.318 58.32 294.702 57.84C295.086 57.328 295.31 56.64 295.374 55.776C295.438 54.88 295.47 53.856 295.47 52.704V45.984C295.438 43.232 294.974 41.152 294.078 39.744C293.214 38.336 291.838 37.648 289.95 37.68C288.798 37.712 287.662 38.016 286.542 38.592C285.454 39.168 284.542 39.904 283.806 40.8C283.838 41.056 283.854 41.344 283.854 41.664C283.854 41.984 283.854 42.32 283.854 42.672L283.806 54.912C283.806 55.552 283.79 56.128 283.758 56.64C283.758 57.12 283.71 57.632 283.614 58.176C284.126 58.144 284.622 58.128 285.102 58.128C285.614 58.096 286.126 58.064 286.638 58.032V60H276.846ZM320.595 60C320.499 59.456 320.435 58.976 320.403 58.56C320.371 58.144 320.323 57.712 320.259 57.264C319.171 58.352 317.987 59.216 316.707 59.856C315.459 60.464 314.131 60.768 312.723 60.768C310.291 60.768 308.483 60.224 307.299 59.136C306.115 58.016 305.523 56.656 305.523 55.056C305.523 53.584 305.971 52.32 306.867 51.264C307.795 50.176 308.979 49.296 310.419 48.624C311.891 47.92 313.475 47.408 315.171 47.088C316.899 46.736 318.563 46.576 320.163 46.608V43.632C320.163 42.512 320.067 41.456 319.875 40.464C319.683 39.472 319.267 38.656 318.627 38.016C317.987 37.376 316.963 37.04 315.555 37.008C314.627 36.976 313.667 37.152 312.675 37.536C311.715 37.92 311.011 38.576 310.563 39.504C310.819 39.76 310.979 40.064 311.043 40.416C311.139 40.736 311.187 41.04 311.187 41.328C311.187 41.712 311.027 42.16 310.707 42.672C310.387 43.152 309.827 43.376 309.027 43.344C308.355 43.344 307.843 43.12 307.491 42.672C307.139 42.192 306.963 41.632 306.963 40.992C306.963 39.904 307.363 38.928 308.163 38.064C308.995 37.2 310.131 36.512 311.571 36C313.011 35.488 314.643 35.232 316.467 35.232C319.155 35.232 321.139 35.952 322.419 37.392C323.699 38.8 324.323 41.04 324.291 44.112C324.291 45.296 324.291 46.496 324.291 47.712C324.291 48.896 324.275 50.096 324.243 51.312C324.243 52.496 324.243 53.696 324.243 54.912C324.243 55.424 324.227 55.936 324.195 56.448C324.163 56.96 324.115 57.536 324.051 58.176C324.627 58.144 325.187 58.112 325.731 58.08C326.307 58.048 326.883 58.016 327.459 57.984V60H320.595ZM320.163 48.24C319.075 48.272 317.923 48.416 316.707 48.672C315.523 48.896 314.419 49.248 313.395 49.728C312.403 50.208 311.587 50.848 310.947 51.648C310.339 52.416 310.051 53.36 310.083 54.48C310.147 55.664 310.531 56.56 311.235 57.168C311.971 57.744 312.835 58.032 313.827 58.032C315.139 58.032 316.275 57.792 317.235 57.312C318.227 56.8 319.203 56.096 320.163 55.2C320.131 54.848 320.115 54.464 320.115 54.048C320.115 53.632 320.115 53.2 320.115 52.752C320.115 52.592 320.115 52.08 320.115 51.216C320.147 50.352 320.163 49.36 320.163 48.24ZM330.753 58.56C331.745 58.56 332.433 58.32 332.817 57.84C333.201 57.328 333.425 56.64 333.489 55.776C333.553 54.88 333.585 53.856 333.585 52.704V41.76C333.585 41.248 333.585 40.736 333.585 40.224C333.617 39.712 333.681 39.184 333.777 38.64C333.201 38.672 332.625 38.704 332.049 38.736C331.505 38.736 330.945 38.752 330.369 38.784V36.816H331.857C333.233 36.816 334.177 36.688 334.689 36.432C335.233 36.144 335.681 35.84 336.033 35.52H337.425C337.489 36.032 337.537 36.672 337.569 37.44C337.601 38.176 337.633 39.12 337.665 40.272C338.145 39.472 338.801 38.688 339.633 37.92C340.465 37.152 341.393 36.512 342.417 36C343.473 35.488 344.577 35.232 345.729 35.232C346.625 35.232 347.409 35.472 348.081 35.952C348.753 36.432 349.089 37.2 349.089 38.256C349.089 38.512 349.009 38.832 348.849 39.216C348.689 39.568 348.433 39.888 348.081 40.176C347.729 40.432 347.265 40.56 346.689 40.56C345.985 40.528 345.425 40.256 345.009 39.744C344.593 39.2 344.433 38.576 344.529 37.872C343.729 37.84 342.897 38.048 342.033 38.496C341.201 38.944 340.417 39.568 339.681 40.368C338.945 41.136 338.289 42.048 337.713 43.104L337.761 54.912C337.761 55.552 337.745 56.128 337.713 56.64C337.713 57.12 337.665 57.632 337.569 58.176C338.081 58.144 338.577 58.128 339.057 58.128C339.569 58.096 340.081 58.064 340.593 58.032V60H330.753V58.56ZM361.462 60.768C359.51 60.768 357.75 60.288 356.182 59.328C354.614 58.336 353.366 56.928 352.438 55.104C351.542 53.28 351.094 51.136 351.094 48.672C351.094 46.048 351.622 43.728 352.678 41.712C353.734 39.696 355.19 38.112 357.046 36.96C358.934 35.808 361.062 35.232 363.43 35.232C364.486 35.232 365.526 35.376 366.55 35.664C367.606 35.92 368.438 36.224 369.046 36.576V30C369.046 29.488 369.046 29.008 369.046 28.56C369.078 28.08 369.126 27.52 369.19 26.88C368.614 26.912 368.038 26.944 367.462 26.976C366.918 27.008 366.358 27.04 365.782 27.072V25.056C367.19 25.056 368.278 24.992 369.046 24.864C369.814 24.736 370.39 24.576 370.774 24.384C371.19 24.192 371.51 23.984 371.734 23.76H373.126V54.912C373.126 55.424 373.11 55.936 373.078 56.448C373.046 56.96 372.998 57.536 372.934 58.176C373.51 58.144 374.07 58.112 374.614 58.08C375.19 58.048 375.766 58.016 376.342 57.984V60H369.478C369.382 59.52 369.302 59.088 369.238 58.704C369.206 58.288 369.174 57.888 369.142 57.504C368.246 58.496 367.142 59.296 365.83 59.904C364.518 60.48 363.062 60.768 361.462 60.768ZM363.19 58.416C364.246 58.416 365.302 58.112 366.358 57.504C367.446 56.896 368.342 56.144 369.046 55.248C369.014 54.864 368.998 54.464 368.998 54.048C368.998 53.6 368.998 53.12 368.998 52.608L369.046 38.784C368.278 38.208 367.43 37.792 366.502 37.536C365.606 37.248 364.678 37.104 363.718 37.104C362.118 37.104 360.726 37.568 359.542 38.496C358.358 39.424 357.462 40.72 356.854 42.384C356.246 44.048 355.974 46 356.038 48.24C356.102 50.192 356.406 51.936 356.95 53.472C357.526 55.008 358.326 56.224 359.35 57.12C360.406 57.984 361.686 58.416 363.19 58.416Z" fill="#086788"/>
</svg>
