<svg width="1458" height="386" viewBox="0 0 1458 386" fill="none" xmlns="http://www.w3.org/2000/svg">
<rect width="534" height="386" fill="#103049"/>
<path d="M50.4581 328.908V326.388H48.0461L48.7661 320.916H45.9581L45.2381 326.388H39.6941L40.4141 320.916H37.6061L36.8861 326.388H34.2221V328.908H36.5621L35.5541 336.648H32.8901V339.132H35.1941L34.4381 345H37.2461L38.0021 339.132H43.5461L42.7901 345H45.5981L46.3541 339.132H49.1261V336.648H46.7141L47.7221 328.908H50.4581ZM43.9061 336.648H38.3621L39.3701 328.908H44.9141L43.9061 336.648ZM62.7709 320.916H59.8549L52.4029 325.524L53.8429 327.864L59.4589 324.444V345H62.7709V320.916ZM76.9211 320.556C71.5211 320.556 68.8571 324.984 68.8571 332.976C68.8571 340.968 71.5211 345.432 76.9211 345.432C82.3211 345.432 84.9851 340.968 84.9851 332.976C84.9851 325.02 82.3211 320.556 76.9211 320.556ZM76.9211 323.184C79.9091 323.184 81.5291 325.92 81.5291 332.976C81.5291 340.068 79.9091 342.804 76.9211 342.804C73.8971 342.804 72.3131 340.068 72.3131 332.976C72.3131 325.92 73.8971 323.184 76.9211 323.184ZM94.8598 320.556C92.2678 320.556 90.0358 321.492 87.9838 323.4L89.7118 325.38C91.3318 323.868 92.7718 323.22 94.6798 323.22C97.0918 323.22 98.6758 324.624 98.6758 326.892C98.6758 329.7 96.6958 331.14 94.3198 331.14H93.0958L92.6998 333.696H94.4998C97.4158 333.696 99.2878 334.704 99.2878 338.016C99.2878 340.86 97.4518 342.732 94.4278 342.732C92.4838 342.732 90.8638 342.012 89.2798 340.356L87.2998 342.192C89.1358 344.388 91.6558 345.432 94.5358 345.432C99.5398 345.432 102.744 342.264 102.744 338.052C102.744 334.416 100.332 332.508 97.3078 332.22C100.008 331.572 101.988 329.736 101.988 326.676C101.988 323.436 99.4678 320.556 94.8598 320.556ZM114.929 320.556C109.529 320.556 106.865 324.984 106.865 332.976C106.865 340.968 109.529 345.432 114.929 345.432C120.329 345.432 122.993 340.968 122.993 332.976C122.993 325.02 120.329 320.556 114.929 320.556ZM114.929 323.184C117.917 323.184 119.537 325.92 119.537 332.976C119.537 340.068 117.917 342.804 114.929 342.804C111.905 342.804 110.321 340.068 110.321 332.976C110.321 325.92 111.905 323.184 114.929 323.184ZM143.191 336.432H140.059V329.952H137.179L136.891 336.432H130.051L136.567 321.708L133.795 320.556L126.559 336.684V339.06H136.855V345H140.059V339.06H143.191V336.432ZM153.06 320.556C148.884 320.556 145.356 323.472 145.356 328.512C145.356 333.3 148.272 336.252 152.016 336.252C154.464 336.252 156.372 334.992 157.416 333.372C157.164 338.808 153.312 341.58 147.264 343.308L148.02 345.792C156.876 343.236 160.836 339.888 160.836 329.916C160.836 324.264 158.244 320.556 153.06 320.556ZM152.7 333.66C150.36 333.66 148.704 332.04 148.704 328.584C148.704 325.128 150.324 323.184 153.132 323.184C156.12 323.184 157.596 325.236 157.488 330.672C156.3 332.508 154.752 333.66 152.7 333.66Z" fill="white"/>
<rect x="534" y="193" width="512" height="193" fill="#569697"/>
<path d="M585.478 328.908V326.388H583.066L583.786 320.916H580.978L580.258 326.388H574.714L575.434 320.916H572.626L571.906 326.388H569.242V328.908H571.582L570.574 336.648H567.91V339.132H570.214L569.458 345H572.266L573.022 339.132H578.566L577.81 345H580.618L581.374 339.132H584.146V336.648H581.734L582.742 328.908H585.478ZM578.926 336.648H573.382L574.39 328.908H579.934L578.926 336.648ZM601.75 320.916H588.718V333.048H591.31C592.462 332.508 593.434 332.22 594.73 332.22C597.214 332.22 599.122 333.516 599.122 337.224C599.122 340.752 597.214 342.732 594.19 342.732C592.102 342.732 590.554 341.976 589.042 340.464L587.098 342.372C588.97 344.28 591.166 345.432 594.226 345.432C599.23 345.432 602.578 342.084 602.578 337.296C602.578 332.508 599.806 329.664 595.738 329.664C594.442 329.664 593.146 329.952 591.886 330.6V323.508H601.282L601.75 320.916ZM615.446 329.16C613.178 329.16 611.234 330.096 609.65 332.328C609.83 326.82 611.918 323.184 615.41 323.184C616.742 323.184 618.002 323.544 619.118 324.228L620.414 322.032C619.01 321.096 617.39 320.556 615.446 320.556C609.758 320.556 606.338 325.812 606.338 333.696C606.338 340.608 608.57 345.432 614.438 345.432C618.686 345.432 622.106 342.084 622.106 336.828C622.106 331.68 618.974 329.16 615.446 329.16ZM614.438 342.804C611.234 342.804 609.83 340.356 609.686 335.1C610.91 333.12 612.71 331.788 614.87 331.788C617.138 331.788 618.758 333.12 618.758 336.936C618.758 340.464 617.282 342.804 614.438 342.804ZM632.51 320.556C628.334 320.556 624.806 323.472 624.806 328.512C624.806 333.3 627.722 336.252 631.466 336.252C633.914 336.252 635.822 334.992 636.866 333.372C636.614 338.808 632.762 341.58 626.714 343.308L627.47 345.792C636.326 343.236 640.286 339.888 640.286 329.916C640.286 324.264 637.694 320.556 632.51 320.556ZM632.15 333.66C629.81 333.66 628.154 332.04 628.154 328.584C628.154 325.128 629.774 323.184 632.582 323.184C635.57 323.184 637.046 325.236 636.938 330.672C635.75 332.508 634.202 333.66 632.15 333.66ZM653.348 329.16C651.08 329.16 649.136 330.096 647.552 332.328C647.732 326.82 649.82 323.184 653.312 323.184C654.644 323.184 655.904 323.544 657.02 324.228L658.316 322.032C656.912 321.096 655.292 320.556 653.348 320.556C647.66 320.556 644.24 325.812 644.24 333.696C644.24 340.608 646.472 345.432 652.34 345.432C656.588 345.432 660.008 342.084 660.008 336.828C660.008 331.68 656.876 329.16 653.348 329.16ZM652.34 342.804C649.136 342.804 647.732 340.356 647.588 335.1C648.812 333.12 650.612 331.788 652.772 331.788C655.04 331.788 656.66 333.12 656.66 336.936C656.66 340.464 655.184 342.804 652.34 342.804ZM670.412 320.556C666.236 320.556 662.708 323.472 662.708 328.512C662.708 333.3 665.624 336.252 669.368 336.252C671.816 336.252 673.724 334.992 674.768 333.372C674.516 338.808 670.664 341.58 664.616 343.308L665.372 345.792C674.228 343.236 678.188 339.888 678.188 329.916C678.188 324.264 675.596 320.556 670.412 320.556ZM670.052 333.66C667.712 333.66 666.056 332.04 666.056 328.584C666.056 325.128 667.676 323.184 670.484 323.184C673.472 323.184 674.948 325.236 674.84 330.672C673.652 332.508 672.104 333.66 670.052 333.66ZM694.538 320.916H680.534V323.616H691.19L682.514 344.352L685.538 345.36L694.538 323.4V320.916Z" fill="white"/>
<rect x="534" width="512" height="193" fill="#256869"/>
<path d="M583.22 135.908V133.388H580.808L581.528 127.916H578.72L578 133.388H572.456L573.176 127.916H570.368L569.648 133.388H566.984V135.908H569.324L568.316 143.648H565.652V146.132H567.956L567.2 152H570.008L570.764 146.132H576.308L575.552 152H578.36L579.116 146.132H581.888V143.648H579.476L580.484 135.908H583.22ZM576.668 143.648H571.124L572.132 135.908H577.676L576.668 143.648ZM591.831 127.556C588.807 127.556 586.467 128.78 584.523 131.192L586.683 132.92C588.303 131.084 589.635 130.292 591.651 130.292C593.991 130.292 595.611 131.768 595.611 134.288C595.611 138.212 593.523 140.516 585.027 149.372V152H599.247L599.643 149.228H588.807C596.187 141.848 599.067 138.644 599.067 134.144C599.067 130.4 596.259 127.556 591.831 127.556ZM617.196 127.916H604.164V140.048H606.756C607.908 139.508 608.88 139.22 610.176 139.22C612.66 139.22 614.568 140.516 614.568 144.224C614.568 147.752 612.66 149.732 609.636 149.732C607.548 149.732 606 148.976 604.488 147.464L602.544 149.372C604.416 151.28 606.612 152.432 609.672 152.432C614.676 152.432 618.024 149.084 618.024 144.296C618.024 139.508 615.252 136.664 611.184 136.664C609.888 136.664 608.592 136.952 607.332 137.6V130.508H616.728L617.196 127.916ZM630.891 136.16C628.623 136.16 626.679 137.096 625.095 139.328C625.275 133.82 627.363 130.184 630.855 130.184C632.187 130.184 633.447 130.544 634.563 131.228L635.859 129.032C634.455 128.096 632.835 127.556 630.891 127.556C625.203 127.556 621.783 132.812 621.783 140.696C621.783 147.608 624.015 152.432 629.883 152.432C634.131 152.432 637.551 149.084 637.551 143.828C637.551 138.68 634.419 136.16 630.891 136.16ZM629.883 149.804C626.679 149.804 625.275 147.356 625.131 142.1C626.355 140.12 628.155 138.788 630.315 138.788C632.583 138.788 634.203 140.12 634.203 143.936C634.203 147.464 632.727 149.804 629.883 149.804ZM652.298 139.076C655.034 137.708 656.402 136.088 656.402 133.64C656.402 129.536 652.694 127.556 649.094 127.556C645.422 127.556 641.786 129.68 641.786 133.748C641.786 136.232 642.938 138.068 645.53 139.364C642.578 140.66 640.778 142.532 640.778 145.628C640.778 149.588 644.054 152.432 649.022 152.432C653.918 152.432 657.374 149.588 657.374 145.556C657.374 142.532 655.61 140.408 652.298 139.076ZM649.094 130.04C651.722 130.04 653.162 131.516 653.162 133.748C653.162 135.8 652.262 137.06 650.102 138.284L649.49 138.068C646.718 137.168 645.026 136.268 645.026 133.784C645.026 131.372 646.61 130.04 649.094 130.04ZM649.058 149.804C646.07 149.804 644.234 148.256 644.234 145.628C644.234 143 645.386 141.344 647.762 140.192L648.662 140.516C652.55 141.848 653.918 143 653.918 145.592C653.918 148.112 652.082 149.804 649.058 149.804ZM670.234 136.16C667.966 136.16 666.022 137.096 664.438 139.328C664.618 133.82 666.706 130.184 670.198 130.184C671.53 130.184 672.79 130.544 673.906 131.228L675.202 129.032C673.798 128.096 672.178 127.556 670.234 127.556C664.546 127.556 661.126 132.812 661.126 140.696C661.126 147.608 663.358 152.432 669.226 152.432C673.474 152.432 676.894 149.084 676.894 143.828C676.894 138.68 673.762 136.16 670.234 136.16ZM669.226 149.804C666.022 149.804 664.618 147.356 664.474 142.1C665.698 140.12 667.498 138.788 669.658 138.788C671.926 138.788 673.546 140.12 673.546 143.936C673.546 147.464 672.07 149.804 669.226 149.804ZM687.298 127.556C683.122 127.556 679.594 130.472 679.594 135.512C679.594 140.3 682.51 143.252 686.254 143.252C688.702 143.252 690.61 141.992 691.654 140.372C691.402 145.808 687.55 148.58 681.502 150.308L682.258 152.792C691.114 150.236 695.074 146.888 695.074 136.916C695.074 131.264 692.482 127.556 687.298 127.556ZM686.938 140.66C684.598 140.66 682.942 139.04 682.942 135.584C682.942 132.128 684.562 130.184 687.37 130.184C690.358 130.184 691.834 132.236 691.726 137.672C690.538 139.508 688.99 140.66 686.938 140.66Z" fill="white"/>
<rect x="1046" y="386" width="386" height="206" transform="rotate(-90 1046 386)" fill="#3E5975"/>
<path d="M1098.14 329.295V326.775H1095.73L1096.45 321.303H1093.64L1092.92 326.775H1087.37L1088.09 321.303H1085.29L1084.57 326.775H1081.9V329.295H1084.24L1083.23 337.035H1080.57V339.519H1082.87L1082.12 345.387H1084.93L1085.68 339.519H1091.23L1090.47 345.387H1093.28L1094.03 339.519H1096.81V337.035H1094.39L1095.4 329.295H1098.14ZM1091.59 337.035H1086.04L1087.05 329.295H1092.59L1091.59 337.035ZM1106.64 320.943C1104.05 320.943 1101.82 321.879 1099.77 323.787L1101.49 325.767C1103.11 324.255 1104.55 323.607 1106.46 323.607C1108.87 323.607 1110.46 325.011 1110.46 327.279C1110.46 330.087 1108.48 331.527 1106.1 331.527H1104.88L1104.48 334.083H1106.28C1109.2 334.083 1111.07 335.091 1111.07 338.403C1111.07 341.247 1109.23 343.119 1106.21 343.119C1104.27 343.119 1102.65 342.399 1101.06 340.743L1099.08 342.579C1100.92 344.775 1103.44 345.819 1106.32 345.819C1111.32 345.819 1114.53 342.651 1114.53 338.439C1114.53 334.803 1112.11 332.895 1109.09 332.607C1111.79 331.959 1113.77 330.123 1113.77 327.063C1113.77 323.823 1111.25 320.943 1106.64 320.943ZM1133.69 320.583H1120.27V345.387H1133.98V342.651H1123.69V334.155H1132.04V331.419H1123.69V323.319H1133.3L1133.69 320.583ZM1151.68 321.303H1138.65V333.435H1141.24C1142.39 332.895 1143.36 332.607 1144.66 332.607C1147.14 332.607 1149.05 333.903 1149.05 337.611C1149.05 341.139 1147.14 343.119 1144.12 343.119C1142.03 343.119 1140.48 342.363 1138.97 340.851L1137.03 342.759C1138.9 344.667 1141.1 345.819 1144.16 345.819C1149.16 345.819 1152.51 342.471 1152.51 337.683C1152.51 332.895 1149.74 330.051 1145.67 330.051C1144.37 330.051 1143.08 330.339 1141.82 330.987V323.895H1151.21L1151.68 321.303ZM1163.08 320.943C1158.91 320.943 1155.38 323.859 1155.38 328.899C1155.38 333.687 1158.3 336.639 1162.04 336.639C1164.49 336.639 1166.4 335.379 1167.44 333.759C1167.19 339.195 1163.34 341.967 1157.29 343.695L1158.04 346.179C1166.9 343.623 1170.86 340.275 1170.86 330.303C1170.86 324.651 1168.27 320.943 1163.08 320.943ZM1162.72 334.047C1160.38 334.047 1158.73 332.427 1158.73 328.971C1158.73 325.515 1160.35 323.571 1163.16 323.571C1166.14 323.571 1167.62 325.623 1167.51 331.059C1166.32 332.895 1164.78 334.047 1162.72 334.047ZM1187.21 321.303H1173.21V324.003H1183.86L1175.19 344.739L1178.21 345.747L1187.21 323.787V321.303ZM1203.52 321.303H1190.49V333.435H1193.08C1194.24 332.895 1195.21 332.607 1196.5 332.607C1198.99 332.607 1200.9 333.903 1200.9 337.611C1200.9 341.139 1198.99 343.119 1195.96 343.119C1193.88 343.119 1192.33 342.363 1190.82 340.851L1188.87 342.759C1190.74 344.667 1192.94 345.819 1196 345.819C1201 345.819 1204.35 342.471 1204.35 337.683C1204.35 332.895 1201.58 330.051 1197.51 330.051C1196.22 330.051 1194.92 330.339 1193.66 330.987V323.895H1203.06L1203.52 321.303Z" fill="white"/>
<rect x="1252" y="386" width="386" height="206" transform="rotate(-90 1252 386)" fill="#86C7C8"/>
<path d="M1300.45 329.295V326.775H1298.03L1298.75 321.303H1295.95L1295.23 326.775H1289.68L1290.4 321.303H1287.59L1286.87 326.775H1284.21V329.295H1286.55L1285.54 337.035H1282.88V339.519H1285.18L1284.43 345.387H1287.23L1287.99 339.519H1293.53L1292.78 345.387H1295.59L1296.34 339.519H1299.11V337.035H1296.7L1297.71 329.295H1300.45ZM1293.89 337.035H1288.35L1289.36 329.295H1294.9L1293.89 337.035ZM1314.27 332.463C1317.01 331.095 1318.38 329.475 1318.38 327.027C1318.38 322.923 1314.67 320.943 1311.07 320.943C1307.4 320.943 1303.76 323.067 1303.76 327.135C1303.76 329.619 1304.91 331.455 1307.5 332.751C1304.55 334.047 1302.75 335.919 1302.75 339.015C1302.75 342.975 1306.03 345.819 1311 345.819C1315.89 345.819 1319.35 342.975 1319.35 338.943C1319.35 335.919 1317.58 333.795 1314.27 332.463ZM1311.07 323.427C1313.7 323.427 1315.14 324.903 1315.14 327.135C1315.14 329.187 1314.24 330.447 1312.08 331.671L1311.46 331.455C1308.69 330.555 1307 329.655 1307 327.171C1307 324.759 1308.58 323.427 1311.07 323.427ZM1311.03 343.191C1308.04 343.191 1306.21 341.643 1306.21 339.015C1306.21 336.387 1307.36 334.731 1309.74 333.579L1310.64 333.903C1314.52 335.235 1315.89 336.387 1315.89 338.979C1315.89 341.499 1314.06 343.191 1311.03 343.191ZM1332.21 329.547C1329.94 329.547 1328 330.483 1326.41 332.715C1326.59 327.207 1328.68 323.571 1332.17 323.571C1333.5 323.571 1334.76 323.931 1335.88 324.615L1337.18 322.419C1335.77 321.483 1334.15 320.943 1332.21 320.943C1326.52 320.943 1323.1 326.199 1323.1 334.083C1323.1 340.995 1325.33 345.819 1331.2 345.819C1335.45 345.819 1338.87 342.471 1338.87 337.215C1338.87 332.067 1335.74 329.547 1332.21 329.547ZM1331.2 343.191C1328 343.191 1326.59 340.743 1326.45 335.487C1327.67 333.507 1329.47 332.175 1331.63 332.175C1333.9 332.175 1335.52 333.507 1335.52 337.323C1335.52 340.851 1334.04 343.191 1331.2 343.191ZM1352.75 320.151C1347.13 320.151 1342.45 324.579 1342.45 332.967C1342.45 341.319 1346.81 345.819 1352.82 345.819C1356.17 345.819 1358.55 344.451 1359.91 343.047L1358.22 340.887C1356.82 341.931 1355.27 342.939 1352.93 342.939C1349.08 342.939 1346.09 340.131 1346.09 332.967C1346.09 325.479 1349.22 322.959 1352.97 322.959C1354.69 322.959 1356.21 323.535 1357.75 324.795L1359.63 322.599C1357.65 321.015 1355.88 320.151 1352.75 320.151ZM1375.33 321.303H1361.33V324.003H1371.98L1363.31 344.739L1366.33 345.747L1375.33 323.787V321.303ZM1388.51 320.151C1382.89 320.151 1378.21 324.579 1378.21 332.967C1378.21 341.319 1382.57 345.819 1388.58 345.819C1391.93 345.819 1394.3 344.451 1395.67 343.047L1393.98 340.887C1392.58 341.931 1391.03 342.939 1388.69 342.939C1384.84 342.939 1381.85 340.131 1381.85 332.967C1381.85 325.479 1384.98 322.959 1388.72 322.959C1390.45 322.959 1391.96 323.535 1393.51 324.795L1395.38 322.599C1393.4 321.015 1391.64 320.151 1388.51 320.151ZM1408.97 332.463C1411.71 331.095 1413.08 329.475 1413.08 327.027C1413.08 322.923 1409.37 320.943 1405.77 320.943C1402.1 320.943 1398.46 323.067 1398.46 327.135C1398.46 329.619 1399.61 331.455 1402.21 332.751C1399.25 334.047 1397.45 335.919 1397.45 339.015C1397.45 342.975 1400.73 345.819 1405.7 345.819C1410.59 345.819 1414.05 342.975 1414.05 338.943C1414.05 335.919 1412.29 333.795 1408.97 332.463ZM1405.77 323.427C1408.4 323.427 1409.84 324.903 1409.84 327.135C1409.84 329.187 1408.94 330.447 1406.78 331.671L1406.17 331.455C1403.39 330.555 1401.7 329.655 1401.7 327.171C1401.7 324.759 1403.29 323.427 1405.77 323.427ZM1405.73 343.191C1402.75 343.191 1400.91 341.643 1400.91 339.015C1400.91 336.387 1402.06 334.731 1404.44 333.579L1405.34 333.903C1409.23 335.235 1410.59 336.387 1410.59 338.979C1410.59 341.499 1408.76 343.191 1405.73 343.191Z" fill="white"/>
</svg>
