<svg width="100" height="100" viewBox="0 0 100 100" fill="none" xmlns="http://www.w3.org/2000/svg">
<path d="M82.5 0H17.5C7.83502 0 0 8.10519 0 18.1034V81.8966C0 91.8948 7.83502 100 17.5 100H82.5C92.165 100 100 91.8948 100 81.8966V18.1034C100 8.10519 92.165 0 82.5 0Z" fill="#470137"/>
<path d="M51.4042 28.2931L39.1042 50.1552L52.3583 73.431C52.6292 73.9052 52.5125 74.1379 52.0167 74.1379H43.75C43.5453 74.1603 43.3389 74.1184 43.1576 74.0177C42.9762 73.917 42.8284 73.7621 42.7333 73.5733L33.4042 55.8707H33.3333L24.25 73.5733C24.1665 73.7417 24.0401 73.8834 23.8844 73.9829C23.7287 74.0824 23.5497 74.136 23.3667 74.1379H15.4167C14.9625 74.1379 14.875 73.9052 15.1458 73.431L28.1792 50.7931L15.7625 28.1509C15.4917 27.7759 15.5833 27.5862 16.0333 27.5862H24.3167C24.4943 27.5731 24.6718 27.6127 24.8283 27.7006C24.9849 27.7884 25.1138 27.9207 25.2 28.0819L33.95 45.5733H34.0167L42.7208 28.0819C42.8067 27.9214 42.935 27.7896 43.0907 27.7018C43.2464 27.614 43.4231 27.5739 43.6 27.5862H51.1333C51.6333 27.5862 51.7208 27.8233 51.4042 28.2931ZM71.6125 75C66.7792 75 63.0583 73.5819 60.1708 70.75C57.2833 67.9181 55.8333 63.7328 55.8333 58.1897C55.8333 53.1523 57.3861 49.0144 60.4917 45.7759C62.0808 44.0744 63.9914 42.7295 66.1046 41.8248C68.2178 40.9201 70.4884 40.475 72.775 40.5172C73.7985 40.4984 74.8202 40.6113 75.8167 40.8534V26.2672C75.8092 26.2126 75.814 26.1569 75.8307 26.1045C75.8474 26.0521 75.8757 26.0044 75.9132 25.9651C75.9507 25.9259 75.9965 25.8962 76.047 25.8783C76.0975 25.8604 76.1513 25.8549 76.2042 25.8621H83.8209C84.0333 25.8621 84.1417 25.9957 84.1417 26.2672V67.1078C84.1417 68.8319 84.8625 70.3017 84.975 71.5603C84.998 71.685 84.9781 71.814 84.9187 71.925C84.8593 72.036 84.7643 72.122 84.65 72.1681C80.9125 74.056 76.0125 75 71.6125 75ZM75.8334 68.3233V47.4741C75.5625 46.9828 74.1292 46.5517 72.6625 46.5517C71.4486 46.5192 70.243 46.7673 69.1336 47.2781C68.0243 47.789 67.0391 48.5495 66.25 49.5043C64.3283 51.8327 63.2915 54.8051 63.3333 57.8664C63.3333 61.6422 64.5834 64.2284 66.2125 66.0259C66.9826 66.9394 67.9311 67.6737 68.9954 68.1804C70.0598 68.6871 71.2159 68.9547 72.3875 68.9655C73.9417 68.9655 75.4625 68.7241 75.8334 68.3233Z" fill="#FF61F6"/>
</svg>
