<svg width="1433" height="316" viewBox="0 0 1433 316" fill="none" xmlns="http://www.w3.org/2000/svg">
<path d="M104.399 22.8394C108.317 14.0356 109.492 5.59131 102.831 0.291016L60.4194 52.0354L55.4238 58.2339C55.4238 58.2339 47.294 69.017 44.4534 74.0448C41.6128 79.0726 38.7722 84.6451 36.4216 88.5979C34.3587 92.0667 33.35 92.7 32.207 91.7101C32.0581 91.5514 31.9058 91.3954 31.75 91.2423L31.7177 91.2051C31.3813 90.8084 30.9084 90.396 30.3537 90.0012C27.5991 87.8239 24.1717 86.5316 20.4556 86.5316C11.3677 86.5316 4 94.2537 4 103.78C4 113.306 11.3677 121.028 20.4556 121.028C27.8954 121.028 34.1789 115.852 36.2147 108.749L36.2135 108.761C36.2135 108.761 40.1435 97.5812 45.8247 89.4962C51.5059 81.4111 60.4194 77.9076 60.4194 77.9076L69.8225 69.2835C69.8225 69.2835 100.481 31.6433 104.399 22.8394ZM20.4556 112.404C15.9186 112.404 12.2402 108.536 12.2402 103.78C12.2402 99.0239 15.9186 95.1557 20.4556 95.1557C24.993 95.1557 28.6711 99.0239 28.6711 103.78C28.6711 108.536 24.993 112.404 20.4556 112.404V112.404ZM60.5 69.2835C57.8998 69.2835 55.7917 67.3531 55.7917 64.9715C55.7917 62.5902 57.8998 60.6594 60.5 60.6594C63.1005 60.6594 65.2083 62.5902 65.2083 64.9715C65.2083 67.3531 63.1005 69.2835 60.5 69.2835Z" fill="#800059"/>
<path d="M46.1631 63.1537C47.925 60.6767 49.7206 58.2199 51.5495 55.7839L51.5915 55.7278L51.6357 55.6731L56.6312 49.4746L56.6424 49.4606L56.6539 49.4465L57.5193 48.3906L18.0944 0.291016C11.4339 5.59131 12.6092 14.0356 16.5271 22.8394C19.456 29.4207 37.3259 52.1135 46.1631 63.1537ZM100.47 86.5316C96.7542 86.5316 93.3268 87.8239 90.5718 90.0012C90.0171 90.396 89.5442 90.8084 89.2079 91.2051L89.1758 91.2423C89.0203 91.3955 88.8679 91.5515 88.7188 91.7101C87.5759 92.7 86.5671 92.0667 84.5043 88.5979C82.1536 84.6451 79.313 79.0726 76.4724 74.0448C75.9516 73.1228 75.2524 72.0071 74.4587 70.8005C74.1716 71.1546 73.884 71.5083 73.5959 71.8618L73.3935 72.1109L73.1542 72.3305L64.7122 80.073C67.7823 81.9205 71.941 84.9984 75.1017 89.4962C80.7826 97.5812 84.7126 108.761 84.7126 108.761L84.7114 108.749C86.7469 115.852 93.0305 121.028 100.47 121.028C109.558 121.028 117 113.306 117 103.78C117 94.2537 109.558 86.5316 100.47 86.5316ZM100.47 112.404C95.9326 112.404 92.2548 108.536 92.2548 103.78C92.2548 99.0239 95.9326 95.1557 100.47 95.1557C105.007 95.1557 108.686 99.0239 108.686 103.78C108.686 108.536 105.007 112.404 100.47 112.404Z" fill="#800059"/>
<path d="M278.799 35.4162C277.902 35.4609 277.005 35.3135 276.162 34.9827C275.318 34.6519 274.545 34.1442 273.887 33.4896C273.518 33.0952 273.311 32.5604 273.311 32.0027C273.311 31.445 273.518 30.9102 273.887 30.5158C274.255 30.1215 274.755 29.9 275.276 29.9C275.798 29.9 276.297 30.1215 276.666 30.5158C278.525 32.61 285.649 30.5158 292.969 22.6627C293.148 22.4847 293.318 22.2959 293.478 22.0973C300.367 14.4535 302.089 7.12394 300.308 5.21825C298.527 3.31255 291.677 5.21825 284.651 12.485C284.471 12.6992 284.252 12.8714 284.007 12.9907C283.762 13.1101 283.496 13.174 283.227 13.1786C282.958 13.1831 282.691 13.1282 282.442 13.0173C282.194 12.9063 281.969 12.7416 281.783 12.5336C281.597 12.3256 281.452 12.0787 281.359 11.8084C281.266 11.5381 281.226 11.2501 281.242 10.9625C281.258 10.6749 281.329 10.3938 281.451 10.1369C281.573 9.88001 281.743 9.65277 281.95 9.46941C290.19 0.946134 299.114 -2.06947 303.166 2.24452C307.217 6.55851 304.379 16.1289 296.414 24.9453L295.826 25.6364C289.955 31.898 283.496 35.4162 278.799 35.4162Z" fill="#800059"/>
<path d="M224.958 121.005C224.266 121.023 223.577 120.893 222.932 120.624C222.287 120.354 221.698 119.95 221.201 119.435L193.488 89.8649C192.894 89.1876 192.459 88.3697 192.217 87.4779C191.976 86.5862 191.935 85.646 192.098 84.7342C192.42 82.8633 193.275 81.1445 194.544 79.8129L254.335 15.8359C255.481 14.6128 256.914 13.7444 258.484 13.3229L279.602 8.255C280.427 8.02916 281.29 8.00798 282.124 8.19307C282.959 8.37815 283.743 8.76463 284.416 9.32303C284.556 9.42169 284.687 9.53385 284.808 9.6581L296.159 21.8043C296.28 21.929 296.385 22.0697 296.472 22.2231C296.995 22.9392 297.357 23.7744 297.53 24.664C297.703 25.5537 297.683 26.474 297.47 27.3538V27.3538L292.734 49.9709C292.315 51.6398 291.507 53.1675 290.386 54.4105L230.595 118.387C229.35 119.746 227.744 120.66 225.996 121.005C225.65 121.036 225.304 121.036 224.958 121.005V121.005ZM281.03 12.1083C280.835 12.0837 280.638 12.0837 280.443 12.1083L259.345 17.4275C258.492 17.6467 257.717 18.127 257.114 18.8096L197.324 82.7866C195.914 84.2734 195.601 86.2001 196.267 86.9749L223.98 116.545C224.626 117.257 226.426 116.922 227.894 115.414L287.606 51.4368C287.863 51.1757 288.087 50.88 288.272 50.5573C288.575 50.0955 288.794 49.5769 288.918 49.0285L293.634 26.4534C293.716 26.1895 293.741 25.9092 293.707 25.6336C293.673 25.3579 293.581 25.0941 293.439 24.8618L293.321 24.6733L282.126 12.6318C281.819 12.3634 281.425 12.2355 281.03 12.2758V12.1083Z" fill="#800059"/>
<path d="M289.955 121.005H242.984C242.465 121.005 241.967 120.784 241.6 120.391C241.233 119.999 241.026 119.466 241.026 118.911V102.157C241.025 101.882 241.074 101.608 241.172 101.353C241.269 101.098 241.413 100.866 241.594 100.67L287.606 51.4363C287.863 51.1752 288.087 50.8795 288.272 50.5568C288.491 50.1622 288.825 49.8554 289.222 49.6836C289.62 49.5118 290.059 49.4845 290.473 49.6058C290.886 49.7271 291.251 49.9904 291.511 50.3552C291.771 50.7199 291.912 51.166 291.912 51.6248V118.911C291.912 119.466 291.706 119.999 291.339 120.391C290.972 120.784 290.474 121.005 289.955 121.005ZM244.941 116.816H287.998V56.944L244.941 103.016V116.816ZM229.284 74.9329C228.122 74.9329 226.987 74.5645 226.022 73.8741C225.056 73.1838 224.304 72.2026 223.859 71.0546C223.415 69.9067 223.298 68.6435 223.525 67.4248C223.752 66.2061 224.311 65.0866 225.132 64.208C225.953 63.3294 226.999 62.731 228.138 62.4886C229.277 62.2462 230.458 62.3706 231.531 62.8461C232.603 63.3216 233.52 64.1269 234.166 65.16C234.811 66.1932 235.155 67.4079 235.155 68.6504C235.155 70.3166 234.536 71.9146 233.435 73.0928C232.334 74.271 230.841 74.9329 229.284 74.9329ZM229.284 66.5562C228.897 66.5562 228.518 66.6791 228.196 66.9092C227.874 67.1393 227.624 67.4664 227.475 67.849C227.327 68.2317 227.289 68.6527 227.364 69.059C227.44 69.4652 227.626 69.8384 227.9 70.1312C228.173 70.4241 228.522 70.6235 228.902 70.7044C229.281 70.7852 229.675 70.7437 230.033 70.5852C230.39 70.4267 230.696 70.1583 230.911 69.8139C231.126 69.4695 231.241 69.0646 231.241 68.6504C231.241 68.095 231.035 67.5623 230.668 67.1696C230.301 66.7769 229.803 66.5562 229.284 66.5562ZM229.284 100.063C228.122 100.063 226.987 99.6945 226.022 99.0042C225.056 98.3139 224.304 97.3327 223.859 96.1847C223.415 95.0367 223.298 93.7735 223.525 92.5548C223.752 91.3361 224.311 90.2167 225.132 89.3381C225.953 88.4595 226.999 87.8611 228.138 87.6187C229.277 87.3763 230.458 87.5007 231.531 87.9762C232.603 88.4517 233.52 89.257 234.166 90.2901C234.811 91.3233 235.155 92.5379 235.155 93.7805C235.155 95.4467 234.536 97.0447 233.435 98.2229C232.334 99.4011 230.841 100.063 229.284 100.063ZM229.284 91.6863C228.897 91.6863 228.518 91.8091 228.196 92.0392C227.874 92.2694 227.624 92.5964 227.475 92.9791C227.327 93.3617 227.289 93.7828 227.364 94.189C227.44 94.5953 227.626 94.9684 227.9 95.2613C228.173 95.5542 228.522 95.7536 228.902 95.8344C229.281 95.9152 229.675 95.8737 230.033 95.7152C230.39 95.5567 230.696 95.2883 230.911 94.9439C231.126 94.5996 231.241 94.1947 231.241 93.7805C231.241 93.2251 231.035 92.6924 230.668 92.2997C230.301 91.9069 229.803 91.6863 229.284 91.6863ZM242.984 83.3096H215.584C215.065 83.3096 214.567 83.089 214.2 82.6963C213.833 82.3035 213.627 81.7709 213.627 81.2155C213.627 80.66 213.833 80.1274 214.2 79.7346C214.567 79.3419 215.065 79.1213 215.584 79.1213H242.984C243.503 79.1213 244.001 79.3419 244.368 79.7346C244.735 80.1274 244.941 80.66 244.941 81.2155C244.941 81.7709 244.735 82.3035 244.368 82.6963C244.001 83.089 243.503 83.3096 242.984 83.3096Z" fill="#800059"/>
<path d="M392.758 48.5858H400.048C400.532 48.5858 400.995 48.3738 401.337 47.9964C401.679 47.619 401.871 47.1072 401.871 46.5735C401.871 46.0398 401.679 45.528 401.337 45.1506C400.995 44.7732 400.532 44.5612 400.048 44.5612H392.758C392.275 44.5612 391.811 44.7732 391.469 45.1506C391.128 45.528 390.935 46.0398 390.935 46.5735C390.935 47.1072 391.128 47.619 391.469 47.9964C391.811 48.3738 392.275 48.5858 392.758 48.5858V48.5858ZM396.403 36.5121H447.435C448.886 36.5121 450.276 35.8761 451.302 34.7439C452.327 33.6118 452.903 32.0763 452.903 30.4752V18.4015C452.903 16.8005 452.327 15.265 451.302 14.1329C450.276 13.0007 448.886 12.3647 447.435 12.3647H396.403C394.953 12.3647 393.562 13.0007 392.537 14.1329C391.512 15.265 390.935 16.8005 390.935 18.4015V30.4752C390.935 32.0763 391.512 33.6118 392.537 34.7439C393.562 35.8761 394.953 36.5121 396.403 36.5121ZM394.581 18.4015C394.581 17.8679 394.773 17.356 395.114 16.9786C395.456 16.6013 395.92 16.3893 396.403 16.3893H447.435C447.919 16.3893 448.382 16.6013 448.724 16.9786C449.066 17.356 449.258 17.8679 449.258 18.4015V30.4752C449.258 31.0089 449.066 31.5208 448.724 31.8981C448.382 32.2755 447.919 32.4875 447.435 32.4875H396.403C395.92 32.4875 395.456 32.2755 395.114 31.8981C394.773 31.5208 394.581 31.0089 394.581 30.4752V18.4015ZM451.081 44.5612H436.5C436.017 44.5612 435.553 44.7732 435.211 45.1506C434.869 45.528 434.677 46.0398 434.677 46.5735C434.677 47.1072 434.869 47.619 435.211 47.9964C435.553 48.3738 436.017 48.5858 436.5 48.5858H451.081C451.564 48.5858 452.028 48.3738 452.369 47.9964C452.711 47.619 452.903 47.1072 452.903 46.5735C452.903 46.0398 452.711 45.528 452.369 45.1506C452.028 44.7732 451.564 44.5612 451.081 44.5612ZM447.435 52.6103H440.145C438.695 52.6103 437.304 53.2463 436.279 54.3785C435.253 55.5106 434.677 57.0461 434.677 58.6472V62.6717C434.677 64.2728 435.253 65.8083 436.279 66.9404C437.304 68.0725 438.695 68.7086 440.145 68.7086H447.435C448.886 68.7086 450.276 68.0725 451.302 66.9404C452.327 65.8083 452.903 64.2728 452.903 62.6717V58.6472C452.903 57.0461 452.327 55.5106 451.302 54.3785C450.276 53.2463 448.886 52.6103 447.435 52.6103ZM449.258 62.6717C449.258 63.2054 449.066 63.7172 448.724 64.0946C448.382 64.472 447.919 64.684 447.435 64.684H440.145C439.662 64.684 439.198 64.472 438.856 64.0946C438.515 63.7172 438.323 63.2054 438.323 62.6717V58.6472C438.323 58.1135 438.515 57.6016 438.856 57.2243C439.198 56.8469 439.662 56.6349 440.145 56.6349H447.435C447.919 56.6349 448.382 56.8469 448.724 57.2243C449.066 57.6016 449.258 58.1135 449.258 58.6472V62.6717ZM407.339 44.5612C406.855 44.5612 406.392 44.7732 406.05 45.1506C405.708 45.528 405.516 46.0398 405.516 46.5735C405.516 47.1072 405.708 47.619 406.05 47.9964C406.392 48.3738 406.855 48.5858 407.339 48.5858H414.629C415.112 48.5858 415.576 48.3738 415.918 47.9964C416.26 47.619 416.452 47.1072 416.452 46.5735C416.452 46.0398 416.26 45.528 415.918 45.1506C415.576 44.7732 415.112 44.5612 414.629 44.5612H407.339ZM403.694 52.6103H396.403C394.953 52.6103 393.562 53.2463 392.537 54.3785C391.512 55.5106 390.935 57.0461 390.935 58.6472V62.6717C390.935 64.2728 391.512 65.8083 392.537 66.9404C393.562 68.0725 394.953 68.7086 396.403 68.7086H403.694C405.144 68.7086 406.534 68.0725 407.56 66.9404C408.585 65.8083 409.161 64.2728 409.161 62.6717V58.6472C409.161 57.0461 408.585 55.5106 407.56 54.3785C406.534 53.2463 405.144 52.6103 403.694 52.6103V52.6103ZM405.516 62.6717C405.516 63.2054 405.324 63.7172 404.982 64.0946C404.641 64.472 404.177 64.684 403.694 64.684H396.403C395.92 64.684 395.456 64.472 395.114 64.0946C394.773 63.7172 394.581 63.2054 394.581 62.6717V58.6472C394.581 58.1135 394.773 57.6016 395.114 57.2243C395.456 56.8469 395.92 56.6349 396.403 56.6349H403.694C404.177 56.6349 404.641 56.8469 404.982 57.2243C405.324 57.6016 405.516 58.1135 405.516 58.6472V62.6717ZM467.484 84.8068H471.129C472.096 84.8068 473.023 85.2308 473.707 85.9856C474.39 86.7403 474.774 87.764 474.774 88.8314C474.774 89.3651 474.966 89.8769 475.308 90.2543C475.65 90.6317 476.113 90.8437 476.597 90.8437C477.08 90.8437 477.544 90.6317 477.886 90.2543C478.227 89.8769 478.419 89.3651 478.419 88.8314C478.414 86.6986 477.644 84.6549 476.278 83.1468C474.912 81.6387 473.061 80.7886 471.129 80.7823V78.77C471.129 78.2363 470.937 77.7244 470.595 77.3471C470.253 76.9697 469.79 76.7577 469.306 76.7577C468.823 76.7577 468.359 76.9697 468.018 77.3471C467.676 77.7244 467.484 78.2363 467.484 78.77V80.7823C466.281 80.7833 465.096 81.1132 464.037 81.7426C462.977 82.3719 462.075 83.281 461.41 84.3888C460.746 85.4967 460.341 86.7688 460.23 88.0917C460.12 89.4146 460.307 90.7472 460.777 91.9705C460.886 92.2986 461.033 92.6097 461.214 92.8962C461.354 93.1986 461.526 93.4822 461.725 93.7413C462.044 94.2278 462.424 94.6615 462.855 95.0292C463.152 95.3289 463.483 95.5859 463.839 95.7939C464.946 96.5032 466.203 96.878 467.484 96.8805H471.129C472.096 96.8805 473.023 97.3045 473.707 98.0593C474.39 98.814 474.774 99.8377 474.774 100.905C474.774 101.972 474.39 102.996 473.707 103.751C473.023 104.506 472.096 104.93 471.129 104.93H467.484C466.517 104.93 465.59 104.506 464.906 103.751C464.223 102.996 463.839 101.972 463.839 100.905C463.839 100.371 463.647 99.8595 463.305 99.4822C462.963 99.1048 462.5 98.8928 462.016 98.8928C461.533 98.8928 461.069 99.1048 460.727 99.4822C460.386 99.8595 460.194 100.371 460.194 100.905C460.194 103.04 460.962 105.087 462.329 106.597C463.696 108.106 465.55 108.954 467.484 108.954V110.966C467.484 111.5 467.676 112.012 468.018 112.389C468.359 112.767 468.823 112.979 469.306 112.979C469.79 112.979 470.253 112.767 470.595 112.389C470.937 112.012 471.129 111.5 471.129 110.966V108.954C473.063 108.954 474.917 108.106 476.284 106.597C477.651 105.087 478.419 103.04 478.419 100.905C478.419 98.7703 477.651 96.723 476.284 95.2135C474.917 93.704 473.063 92.8559 471.129 92.8559H467.484C466.517 92.8559 465.59 92.4319 464.906 91.6772C464.223 90.9224 463.839 89.8988 463.839 88.8314C463.839 87.764 464.223 86.7403 464.906 85.9856C465.59 85.2308 466.517 84.8068 467.484 84.8068ZM403.694 92.8559H396.403C394.953 92.8559 393.562 93.492 392.537 94.6241C391.512 95.7562 390.935 97.2917 390.935 98.8928V102.917C390.935 104.518 391.512 106.054 392.537 107.186C393.562 108.318 394.953 108.954 396.403 108.954H403.694C405.144 108.954 406.534 108.318 407.56 107.186C408.585 106.054 409.161 104.518 409.161 102.917V98.8928C409.161 97.2917 408.585 95.7562 407.56 94.6241C406.534 93.492 405.144 92.8559 403.694 92.8559V92.8559ZM405.516 102.917C405.516 103.451 405.324 103.963 404.982 104.34C404.641 104.718 404.177 104.93 403.694 104.93H396.403C395.92 104.93 395.456 104.718 395.114 104.34C394.773 103.963 394.581 103.451 394.581 102.917V98.8928C394.581 98.3591 394.773 97.8473 395.114 97.4699C395.456 97.0925 395.92 96.8805 396.403 96.8805H403.694C404.177 96.8805 404.641 97.0925 404.982 97.4699C405.324 97.8473 405.516 98.3591 405.516 98.8928V102.917ZM425.565 52.6103H418.274C416.824 52.6103 415.433 53.2463 414.408 54.3785C413.383 55.5106 412.806 57.0461 412.806 58.6472V62.6717C412.806 64.2728 413.383 65.8083 414.408 66.9404C415.433 68.0725 416.824 68.7086 418.274 68.7086H425.565C427.015 68.7086 428.405 68.0725 429.431 66.9404C430.456 65.8083 431.032 64.2728 431.032 62.6717V58.6472C431.032 57.0461 430.456 55.5106 429.431 54.3785C428.405 53.2463 427.015 52.6103 425.565 52.6103ZM427.387 62.6717C427.387 63.2054 427.195 63.7172 426.853 64.0946C426.511 64.472 426.048 64.684 425.565 64.684H418.274C417.791 64.684 417.327 64.472 416.985 64.0946C416.644 63.7172 416.452 63.2054 416.452 62.6717V58.6472C416.452 58.1135 416.644 57.6016 416.985 57.2243C417.327 56.8469 417.791 56.6349 418.274 56.6349H425.565C426.048 56.6349 426.511 56.8469 426.853 57.2243C427.195 57.6016 427.387 58.1135 427.387 58.6472V62.6717ZM469.306 68.7086C467.464 68.7015 465.627 68.9448 463.839 69.433V10.3524C463.839 9.03114 463.603 7.72279 463.145 6.50209C462.687 5.28138 462.016 4.17222 461.17 3.23793C460.323 2.30365 459.319 1.56253 458.213 1.05689C457.108 0.551262 455.923 0.291016 454.726 0.291016H389.113C386.696 0.291016 384.378 1.35105 382.669 3.23793C380.96 5.12481 380 7.68397 380 10.3524V110.966C380 113.635 380.96 116.194 382.669 118.081C384.378 119.968 386.696 121.028 389.113 121.028H454.726C456.698 121.028 458.616 120.322 460.194 119.016C463.429 120.504 466.924 121.181 470.426 120.999C473.927 120.816 477.349 119.777 480.443 117.958C483.537 116.139 486.227 113.585 488.319 110.479C490.411 107.373 491.852 103.794 492.54 99.9986C493.227 96.2033 493.144 92.287 492.294 88.5319C491.445 84.7767 489.852 81.2764 487.63 78.2833C485.407 75.2902 482.611 72.8788 479.442 71.2231C476.274 69.5674 472.812 68.7086 469.306 68.7086ZM454.726 117.003H389.113C387.663 117.003 386.272 116.367 385.247 115.235C384.221 114.103 383.645 112.568 383.645 110.966V10.3524C383.645 8.75135 384.221 7.21586 385.247 6.08373C386.272 4.9516 387.663 4.31558 389.113 4.31558H454.726C456.176 4.31558 457.567 4.9516 458.592 6.08373C459.617 7.21586 460.194 8.75135 460.194 10.3524V70.7208C457.305 72.0656 454.689 74.0363 452.502 76.5162C452.095 75.3999 451.396 74.4433 450.493 73.7693C449.59 73.0952 448.525 72.7344 447.435 72.7331H440.145C438.695 72.7331 437.304 73.3692 436.279 74.5013C435.253 75.6334 434.677 77.1689 434.677 78.77V82.7945C434.677 84.3956 435.253 85.9311 436.279 87.0632C437.304 88.1954 438.695 88.8314 440.145 88.8314H446.269C445.98 90.1541 445.785 91.4997 445.686 92.8559H440.145C438.695 92.8559 437.304 93.492 436.279 94.6241C435.253 95.7562 434.677 97.2917 434.677 98.8928V102.917C434.677 104.518 435.253 106.054 436.279 107.186C437.304 108.318 438.695 108.954 440.145 108.954H447.435C448.034 108.959 448.628 108.836 449.185 108.592C450.978 111.851 453.406 114.629 456.293 116.722C455.79 116.916 455.259 117.011 454.726 117.003V117.003ZM449.258 78.77V82.7945C449.258 83.3282 449.066 83.8401 448.724 84.2174C448.382 84.5948 447.919 84.8068 447.435 84.8068H440.145C439.662 84.8068 439.198 84.5948 438.856 84.2174C438.515 83.8401 438.323 83.3282 438.323 82.7945V78.77C438.323 78.2363 438.515 77.7244 438.856 77.3471C439.198 76.9697 439.662 76.7577 440.145 76.7577H447.435C447.919 76.7577 448.382 76.9697 448.724 77.3471C449.066 77.7244 449.258 78.2363 449.258 78.77ZM447.435 104.93H440.145C439.662 104.93 439.198 104.718 438.856 104.34C438.515 103.963 438.323 103.451 438.323 102.917V98.8928C438.323 98.3591 438.515 97.8473 438.856 97.4699C439.198 97.0925 439.662 96.8805 440.145 96.8805H445.686C445.866 99.6512 446.457 102.371 447.435 104.93V104.93ZM469.306 117.003C467.071 117.005 464.851 116.583 462.745 115.756C461.573 115.333 460.448 114.766 459.392 114.065C456.325 112.129 453.774 109.336 451.995 105.966C450.217 102.596 449.273 98.7685 449.258 94.8682C449.245 94.3303 449.269 93.7922 449.331 93.2584C449.57 89.275 450.807 85.4434 452.903 82.1909C454.77 79.2258 457.275 76.8194 460.194 75.1881C461.354 74.511 462.576 73.9713 463.839 73.5783C465.616 73.0107 467.457 72.7261 469.306 72.7331C474.624 72.7331 479.723 75.0652 483.483 79.2163C487.243 83.3675 489.355 88.9976 489.355 94.8682C489.355 100.739 487.243 106.369 483.483 110.52C479.723 114.671 474.624 117.003 469.306 117.003ZM429.21 44.5612H421.919C421.436 44.5612 420.972 44.7732 420.631 45.1506C420.289 45.528 420.097 46.0398 420.097 46.5735C420.097 47.1072 420.289 47.619 420.631 47.9964C420.972 48.3738 421.436 48.5858 421.919 48.5858H429.21C429.693 48.5858 430.157 48.3738 430.498 47.9964C430.84 47.619 431.032 47.1072 431.032 46.5735C431.032 46.0398 430.84 45.528 430.498 45.1506C430.157 44.7732 429.693 44.5612 429.21 44.5612ZM425.565 72.7331H418.274C416.824 72.7331 415.433 73.3692 414.408 74.5013C413.383 75.6334 412.806 77.1689 412.806 78.77V82.7945C412.806 84.3956 413.383 85.9311 414.408 87.0632C415.433 88.1954 416.824 88.8314 418.274 88.8314H425.565C427.015 88.8314 428.405 88.1954 429.431 87.0632C430.456 85.9311 431.032 84.3956 431.032 82.7945V78.77C431.032 77.1689 430.456 75.6334 429.431 74.5013C428.405 73.3692 427.015 72.7331 425.565 72.7331ZM427.387 82.7945C427.387 83.3282 427.195 83.8401 426.853 84.2174C426.511 84.5948 426.048 84.8068 425.565 84.8068H418.274C417.791 84.8068 417.327 84.5948 416.985 84.2174C416.644 83.8401 416.452 83.3282 416.452 82.7945V78.77C416.452 78.2363 416.644 77.7244 416.985 77.3471C417.327 76.9697 417.791 76.7577 418.274 76.7577H425.565C426.048 76.7577 426.511 76.9697 426.853 77.3471C427.195 77.7244 427.387 78.2363 427.387 78.77V82.7945ZM403.694 72.7331H396.403C394.953 72.7331 393.562 73.3692 392.537 74.5013C391.512 75.6334 390.935 77.1689 390.935 78.77V82.7945C390.935 84.3956 391.512 85.9311 392.537 87.0632C393.562 88.1954 394.953 88.8314 396.403 88.8314H403.694C405.144 88.8314 406.534 88.1954 407.56 87.0632C408.585 85.9311 409.161 84.3956 409.161 82.7945V78.77C409.161 77.1689 408.585 75.6334 407.56 74.5013C406.534 73.3692 405.144 72.7331 403.694 72.7331V72.7331ZM405.516 82.7945C405.516 83.3282 405.324 83.8401 404.982 84.2174C404.641 84.5948 404.177 84.8068 403.694 84.8068H396.403C395.92 84.8068 395.456 84.5948 395.114 84.2174C394.773 83.8401 394.581 83.3282 394.581 82.7945V78.77C394.581 78.2363 394.773 77.7244 395.114 77.3471C395.456 76.9697 395.92 76.7577 396.403 76.7577H403.694C404.177 76.7577 404.641 76.9697 404.982 77.3471C405.324 77.7244 405.516 78.2363 405.516 78.77V82.7945ZM425.565 92.8559H418.274C416.824 92.8559 415.433 93.492 414.408 94.6241C413.383 95.7562 412.806 97.2917 412.806 98.8928V102.917C412.806 104.518 413.383 106.054 414.408 107.186C415.433 108.318 416.824 108.954 418.274 108.954H425.565C427.015 108.954 428.405 108.318 429.431 107.186C430.456 106.054 431.032 104.518 431.032 102.917V98.8928C431.032 97.2917 430.456 95.7562 429.431 94.6241C428.405 93.492 427.015 92.8559 425.565 92.8559V92.8559ZM427.387 102.917C427.387 103.451 427.195 103.963 426.853 104.34C426.511 104.718 426.048 104.93 425.565 104.93H418.274C417.791 104.93 417.327 104.718 416.985 104.34C416.644 103.963 416.452 103.451 416.452 102.917V98.8928C416.452 98.3591 416.644 97.8473 416.985 97.4699C417.327 97.0925 417.791 96.8805 418.274 96.8805H425.565C426.048 96.8805 426.511 97.0925 426.853 97.4699C427.195 97.8473 427.387 98.3591 427.387 98.8928V102.917Z" fill="#800059"/>
<mask id="path-7-inside-1_311_2118" fill="white">
<path d="M573.381 104.564V35.9633H592.214C592.928 35.9633 593.612 35.6742 594.117 35.1596C594.621 34.645 594.905 33.947 594.905 33.2192V14.0111H627.352V8.52307H592.214C591.86 8.52099 591.509 8.5902 591.181 8.72676C590.854 8.86331 590.555 9.06452 590.304 9.31884L568.78 31.271C568.531 31.5274 568.334 31.8315 568.2 32.1658C568.066 32.5001 567.998 32.8581 568 33.2192V104.564C568 106.747 568.85 108.841 570.364 110.385C571.878 111.929 573.931 112.796 576.071 112.796H605.667V107.308H576.071C575.358 107.308 574.674 107.019 574.169 106.504C573.664 105.989 573.381 105.292 573.381 104.564ZM577.175 30.4752L589.524 17.8802V30.4752H577.175ZM672.929 71.6355H619.119C616.978 71.6355 614.925 72.5028 613.412 74.0466C611.898 75.5904 611.048 77.6843 611.048 79.8676V112.796C611.048 114.979 611.898 117.073 613.412 118.617C614.925 120.161 616.978 121.028 619.119 121.028H672.929C675.069 121.028 677.122 120.161 678.636 118.617C680.15 117.073 681 114.979 681 112.796V79.8676C681 77.6843 680.15 75.5904 678.636 74.0466C677.122 72.5028 675.069 71.6355 672.929 71.6355ZM675.619 112.796C675.619 113.524 675.336 114.222 674.831 114.736C674.326 115.251 673.642 115.54 672.929 115.54H619.119C618.406 115.54 617.721 115.251 617.217 114.736C616.712 114.222 616.429 113.524 616.429 112.796V79.8676C616.429 79.1398 616.712 78.4419 617.217 77.9273C617.721 77.4127 618.406 77.1236 619.119 77.1236H672.929C673.642 77.1236 674.326 77.4127 674.831 77.9273C675.336 78.4419 675.619 79.1398 675.619 79.8676V112.796ZM648.714 85.3556H654.095V90.8437H643.333V93.5877H651.405C652.118 93.5877 652.803 93.8768 653.307 94.3914C653.812 94.906 654.095 95.6039 654.095 96.3317V104.564C654.095 105.292 653.812 105.989 653.307 106.504C652.803 107.019 652.118 107.308 651.405 107.308H648.714V110.052H643.333V107.308H637.952V101.82H648.714V99.0757H640.643C639.929 99.0757 639.245 98.7866 638.74 98.272C638.236 97.7574 637.952 97.0595 637.952 96.3317V88.0996C637.952 87.3719 638.236 86.6739 638.74 86.1593C639.245 85.6447 639.929 85.3556 640.643 85.3556H643.333V82.6116H648.714V85.3556ZM659.476 93.5877H670.238V99.0757H659.476V93.5877ZM621.81 93.5877H632.571V99.0757H621.81V93.5877ZM646.024 60.6594C652.446 60.6594 658.605 58.0575 663.146 53.4261C667.687 48.7947 670.238 42.5131 670.238 35.9633C670.238 35.2355 669.955 34.5376 669.45 34.023C668.946 33.5084 668.261 33.2192 667.548 33.2192H648.714V14.0111C648.714 13.2834 648.431 12.5854 647.926 12.0708C647.422 11.5562 646.737 11.2671 646.024 11.2671C639.602 11.2671 633.443 13.869 628.902 18.5004C624.361 23.1319 621.81 29.4134 621.81 35.9633C621.81 42.5131 624.361 48.7947 628.902 53.4261C633.443 58.0575 639.602 60.6594 646.024 60.6594V60.6594ZM643.333 16.9472V35.9633C643.333 36.691 643.617 37.389 644.121 37.9036C644.626 38.4182 645.31 38.7073 646.024 38.7073H664.669C664.169 42.2349 662.716 45.5509 660.473 48.2845C658.23 51.018 655.286 53.0611 651.969 54.1853C648.653 55.3094 645.095 55.4703 641.694 54.6499C638.294 53.8294 635.183 52.0601 632.712 49.5397C630.241 47.0194 628.506 43.8474 627.702 40.3788C626.897 36.9102 627.055 33.2817 628.157 29.8993C629.26 26.5169 631.263 23.5141 633.943 21.2266C636.623 18.9392 639.875 17.4575 643.333 16.9472V16.9472ZM656.786 27.7312H678.31C679.023 27.7312 679.707 27.4421 680.212 26.9275C680.717 26.4129 681 25.715 681 24.9872C681 18.4374 678.449 12.1558 673.908 7.52436C669.367 2.89293 663.208 0.291016 656.786 0.291016C656.072 0.291016 655.388 0.580117 654.883 1.09472C654.379 1.60932 654.095 2.30728 654.095 3.03504V24.9872C654.095 25.715 654.379 26.4129 654.883 26.9275C655.388 27.4421 656.072 27.7312 656.786 27.7312ZM659.476 5.97114C663.502 6.56278 667.231 8.46758 670.107 11.4007C672.983 14.3338 674.851 18.1376 675.431 22.2432H659.476V5.97114ZM616.429 49.6834H584.143V44.1953H616.429V49.6834ZM584.143 57.9154H616.429V63.4035H584.143V57.9154ZM584.143 71.6355H605.667V77.1236H584.143V71.6355ZM584.143 85.3556H605.667V90.8437H584.143V85.3556Z"/>
</mask>
<path d="M573.381 104.564V35.9633H592.214C592.928 35.9633 593.612 35.6742 594.117 35.1596C594.621 34.645 594.905 33.947 594.905 33.2192V14.0111H627.352V8.52307H592.214C591.86 8.52099 591.509 8.5902 591.181 8.72676C590.854 8.86331 590.555 9.06452 590.304 9.31884L568.78 31.271C568.531 31.5274 568.334 31.8315 568.2 32.1658C568.066 32.5001 567.998 32.8581 568 33.2192V104.564C568 106.747 568.85 108.841 570.364 110.385C571.878 111.929 573.931 112.796 576.071 112.796H605.667V107.308H576.071C575.358 107.308 574.674 107.019 574.169 106.504C573.664 105.989 573.381 105.292 573.381 104.564ZM577.175 30.4752L589.524 17.8802V30.4752H577.175ZM672.929 71.6355H619.119C616.978 71.6355 614.925 72.5028 613.412 74.0466C611.898 75.5904 611.048 77.6843 611.048 79.8676V112.796C611.048 114.979 611.898 117.073 613.412 118.617C614.925 120.161 616.978 121.028 619.119 121.028H672.929C675.069 121.028 677.122 120.161 678.636 118.617C680.15 117.073 681 114.979 681 112.796V79.8676C681 77.6843 680.15 75.5904 678.636 74.0466C677.122 72.5028 675.069 71.6355 672.929 71.6355ZM675.619 112.796C675.619 113.524 675.336 114.222 674.831 114.736C674.326 115.251 673.642 115.54 672.929 115.54H619.119C618.406 115.54 617.721 115.251 617.217 114.736C616.712 114.222 616.429 113.524 616.429 112.796V79.8676C616.429 79.1398 616.712 78.4419 617.217 77.9273C617.721 77.4127 618.406 77.1236 619.119 77.1236H672.929C673.642 77.1236 674.326 77.4127 674.831 77.9273C675.336 78.4419 675.619 79.1398 675.619 79.8676V112.796ZM648.714 85.3556H654.095V90.8437H643.333V93.5877H651.405C652.118 93.5877 652.803 93.8768 653.307 94.3914C653.812 94.906 654.095 95.6039 654.095 96.3317V104.564C654.095 105.292 653.812 105.989 653.307 106.504C652.803 107.019 652.118 107.308 651.405 107.308H648.714V110.052H643.333V107.308H637.952V101.82H648.714V99.0757H640.643C639.929 99.0757 639.245 98.7866 638.74 98.272C638.236 97.7574 637.952 97.0595 637.952 96.3317V88.0996C637.952 87.3719 638.236 86.6739 638.74 86.1593C639.245 85.6447 639.929 85.3556 640.643 85.3556H643.333V82.6116H648.714V85.3556ZM659.476 93.5877H670.238V99.0757H659.476V93.5877ZM621.81 93.5877H632.571V99.0757H621.81V93.5877ZM646.024 60.6594C652.446 60.6594 658.605 58.0575 663.146 53.4261C667.687 48.7947 670.238 42.5131 670.238 35.9633C670.238 35.2355 669.955 34.5376 669.45 34.023C668.946 33.5084 668.261 33.2192 667.548 33.2192H648.714V14.0111C648.714 13.2834 648.431 12.5854 647.926 12.0708C647.422 11.5562 646.737 11.2671 646.024 11.2671C639.602 11.2671 633.443 13.869 628.902 18.5004C624.361 23.1319 621.81 29.4134 621.81 35.9633C621.81 42.5131 624.361 48.7947 628.902 53.4261C633.443 58.0575 639.602 60.6594 646.024 60.6594V60.6594ZM643.333 16.9472V35.9633C643.333 36.691 643.617 37.389 644.121 37.9036C644.626 38.4182 645.31 38.7073 646.024 38.7073H664.669C664.169 42.2349 662.716 45.5509 660.473 48.2845C658.23 51.018 655.286 53.0611 651.969 54.1853C648.653 55.3094 645.095 55.4703 641.694 54.6499C638.294 53.8294 635.183 52.0601 632.712 49.5397C630.241 47.0194 628.506 43.8474 627.702 40.3788C626.897 36.9102 627.055 33.2817 628.157 29.8993C629.26 26.5169 631.263 23.5141 633.943 21.2266C636.623 18.9392 639.875 17.4575 643.333 16.9472V16.9472ZM656.786 27.7312H678.31C679.023 27.7312 679.707 27.4421 680.212 26.9275C680.717 26.4129 681 25.715 681 24.9872C681 18.4374 678.449 12.1558 673.908 7.52436C669.367 2.89293 663.208 0.291016 656.786 0.291016C656.072 0.291016 655.388 0.580117 654.883 1.09472C654.379 1.60932 654.095 2.30728 654.095 3.03504V24.9872C654.095 25.715 654.379 26.4129 654.883 26.9275C655.388 27.4421 656.072 27.7312 656.786 27.7312ZM659.476 5.97114C663.502 6.56278 667.231 8.46758 670.107 11.4007C672.983 14.3338 674.851 18.1376 675.431 22.2432H659.476V5.97114ZM616.429 49.6834H584.143V44.1953H616.429V49.6834ZM584.143 57.9154H616.429V63.4035H584.143V57.9154ZM584.143 71.6355H605.667V77.1236H584.143V71.6355ZM584.143 85.3556H605.667V90.8437H584.143V85.3556Z" fill="#800059" stroke="#800059" stroke-width="2" mask="url(#path-7-inside-1_311_2118)"/>
<path d="M857.471 71.7864V71.7856C857.465 67.5447 853.743 64.1774 849.239 64.1713H849.239C848.684 64.1713 848.307 63.7668 848.307 63.3536C848.307 62.9404 848.684 62.536 849.239 62.536H849.239C853.744 62.533 857.468 59.1638 857.471 54.9213V54.9209C857.471 54.5077 857.849 54.1032 858.403 54.1032C858.958 54.1032 859.335 54.5077 859.335 54.9209V54.9213C859.339 59.1638 863.062 62.533 867.568 62.536H867.568C868.123 62.536 868.5 62.9404 868.5 63.3536C868.5 63.7668 868.123 64.1713 867.568 64.1713H867.567C863.064 64.1774 859.342 67.5447 859.335 71.7856V71.7864C859.335 72.1996 858.958 72.604 858.403 72.604C857.849 72.604 857.471 72.1996 857.471 71.7864ZM854.318 62.9131L853.497 63.3536L854.318 63.7942C855.839 64.6104 857.1 65.7724 857.981 67.1631L858.403 67.8295L858.826 67.1631C859.707 65.7724 860.968 64.6104 862.489 63.7942L863.31 63.3536L862.489 62.9131C860.968 62.0969 859.707 60.9349 858.826 59.5442L858.403 58.8778L857.981 59.5442C857.1 60.9349 855.839 62.0969 854.318 62.9131ZM774.858 37.4703V37.4699C774.855 33.2274 771.131 29.8582 766.626 29.8551H766.626C766.071 29.8551 765.694 29.4507 765.694 29.0375C765.694 28.6243 766.071 28.2199 766.626 28.2199H766.626C771.131 28.2168 774.855 24.8476 774.858 20.6051V20.6047C774.858 20.1915 775.236 19.7871 775.79 19.7871C776.345 19.7871 776.722 20.1915 776.722 20.6047L776.722 20.6055C776.729 24.8465 780.45 28.2138 784.954 28.2199H784.955C785.51 28.2199 785.887 28.6243 785.887 29.0375C785.887 29.4507 785.51 29.8551 784.955 29.8551L784.954 29.8551C780.45 29.8613 776.729 33.2285 776.722 37.4695V37.4703C776.722 37.8835 776.345 38.2879 775.79 38.2879C775.236 38.2879 774.858 37.8835 774.858 37.4703ZM771.705 28.5969L770.884 29.0375L771.705 29.4781C773.226 30.2943 774.487 31.4562 775.368 32.8469L775.79 33.5134L776.213 32.8469C777.094 31.4562 778.355 30.2943 779.876 29.4781L780.697 29.0375L779.876 28.5969C778.355 27.7807 777.094 26.6188 776.213 25.2281L775.79 24.5617L775.368 25.2281C774.487 26.6188 773.226 27.7807 771.705 28.5969ZM830.264 120.51V120.507H829.764L799.939 120.507L799.936 120.508C797.313 120.521 795.016 118.975 794.218 116.734C794.1 116.4 794.237 116.009 794.612 115.801C795.675 115.223 796.688 114.571 797.644 113.85C799.212 112.677 800.608 111.318 801.795 109.81C801.965 109.603 802.243 109.47 802.551 109.47H829.764C833.147 109.47 835.817 111.984 835.817 114.999C835.817 117.864 833.406 120.277 830.264 120.51ZM796.704 116.546L796.217 116.837L796.567 117.284C797.357 118.294 798.616 118.878 799.941 118.872H829.764C831.241 118.872 832.625 118.148 833.382 116.941C834.143 115.728 834.143 114.228 833.382 113.015C832.625 111.809 831.241 111.084 829.764 111.084H803.284H803.05L802.9 111.264C801.723 112.677 800.369 113.959 798.866 115.084L798.862 115.086C798.175 115.611 797.454 116.099 796.704 116.546Z" fill="#800059" stroke="#800059"/>
<path d="M830.264 111.091V111.084H829.764L802.563 111.084C802.563 111.084 802.563 111.084 802.563 111.084C802.2 111.084 801.887 110.899 801.735 110.638C801.588 110.385 801.6 110.084 801.771 109.84L801.952 109.611L802.066 109.488L802.084 109.468L802.1 109.447L802.196 109.316L802.197 109.315L802.225 109.277C802.638 108.723 803.081 108.128 803.452 107.525L803.475 107.488L803.491 107.447C803.523 107.367 803.568 107.29 803.627 107.22L803.656 107.186L803.678 107.147C804.837 105.116 805.657 102.935 806.11 100.677C806.19 100.32 806.553 100.017 807.027 100.02V100.02H807.03H829.764V100.02L829.778 100.02C832.006 99.9594 834.075 101.02 835.189 102.756C836.3 104.486 836.3 106.629 835.189 108.359C834.156 109.968 832.304 110.997 830.264 111.091ZM804.833 108.672L804.315 109.449H805.249H829.755C831.27 109.501 832.715 108.788 833.509 107.559C834.31 106.321 834.31 104.773 833.509 103.535C832.715 102.306 831.27 101.593 829.755 101.645H808.176H807.787L807.691 102.022C807.158 104.124 806.329 106.154 805.224 108.06L805.145 108.181L805.141 108.187L805.137 108.193C805.037 108.358 804.937 108.515 804.833 108.672Z" fill="#800059" stroke="#800059"/>
<path d="M807.007 101.644L807.006 101.644C806.695 101.645 806.414 101.509 806.244 101.3C806.08 101.096 806.033 100.845 806.104 100.614C806.146 100.506 806.178 100.394 806.199 100.28L806.207 100.235V100.201C806.208 100.199 806.208 100.196 806.209 100.191C806.212 100.182 806.214 100.173 806.218 100.158C806.219 100.154 806.22 100.149 806.222 100.144C806.227 100.123 806.235 100.095 806.242 100.063L806.245 100.048L806.247 100.033C806.417 98.9197 806.513 97.798 806.533 96.674C806.55 96.4294 806.549 96.1841 806.532 95.9395C806.531 95.9173 806.531 95.895 806.533 95.8728L806.534 95.8475L806.533 95.8222C806.48 94.3911 806.265 92.9691 805.892 91.5794L805.892 91.5793L805.891 91.5748C805.827 91.3446 805.879 91.095 806.048 90.8955L805.681 90.5849L806.048 90.8955C806.22 90.6929 806.495 90.5636 806.8 90.5645V90.5645H806.801H829.764C833.153 90.5645 835.828 93.0832 835.828 96.1044C835.828 99.1257 833.153 101.644 829.764 101.644L807.007 101.644ZM808.178 99.444L808.104 100.009H808.674H829.764C831.245 100.009 832.633 99.2825 833.392 98.0726C834.155 96.8566 834.155 95.3523 833.392 94.1363C832.633 92.9264 831.245 92.1997 829.764 92.1997H808.491H807.892L807.999 92.7887C808.173 93.7484 808.281 94.717 808.324 95.6889L808.324 95.7094L808.327 95.7298C808.365 96.0325 808.381 96.3372 808.375 96.6418L808.375 96.6418L808.375 96.6479C808.366 97.5825 808.3 98.516 808.178 99.444Z" fill="#800059" stroke="#800059"/>
<path d="M835.845 86.717C835.845 89.6491 833.321 92.1071 830.071 92.2407L830.046 92.199H829.764H806.732L806.732 92.199C806.257 92.1994 805.893 91.896 805.811 91.5365C805.746 91.2346 805.663 90.9132 805.574 90.6091L805.574 90.6091L805.573 90.6044C804.907 88.3993 803.872 86.3049 802.505 84.3967L802.505 84.3967L802.503 84.3945L802.469 84.347L802.454 84.3271L802.438 84.3087C802.366 84.2274 802.299 84.1428 802.237 84.0554L802.237 84.0553L802.23 84.047C801.836 83.5163 801.412 83.0051 800.96 82.5154C800.738 82.2719 800.697 81.9466 800.837 81.6723L800.391 81.4451L800.837 81.6723C800.981 81.3896 801.308 81.185 801.694 81.1875V81.1875H801.697H829.793C833.175 81.1875 835.845 83.7015 835.845 86.717ZM807.381 90.2064L807.488 90.5637H807.861H829.764C832.037 90.5637 833.953 88.8586 833.953 86.6695C833.953 84.4805 832.037 82.7753 829.764 82.7753H804.561H803.675L804.133 83.5338C804.154 83.5686 804.17 83.5971 804.186 83.6298L804.203 83.666L804.226 83.6989C805.632 85.7093 806.696 87.9038 807.381 90.2064Z" fill="#800059" stroke="#800059"/>
<path d="M852.378 120.175H852.379C852.973 120.176 853.562 120.072 854.112 119.869L854.114 119.868L856.651 118.945C859.077 118.06 860.209 115.571 859.279 113.41C859.279 113.41 859.279 113.409 859.279 113.409L845.801 82.1143C844.857 79.9323 842.136 78.8194 839.695 79.703C839.695 79.703 839.695 79.7031 839.695 79.7031L837.159 80.6302L837.158 80.6303C834.732 81.5155 833.601 84.0045 834.531 86.1664L848.002 117.457L852.378 120.175ZM852.378 120.175C850.427 120.175 848.703 119.08 848.003 117.457L852.378 120.175ZM841.429 81.0362C841.081 81.0364 840.735 81.0962 840.409 81.2131L840.407 81.2142L855.957 117.434C856.648 117.184 857.216 116.686 857.522 116.037C857.83 115.385 857.842 114.644 857.556 113.983L844.079 82.6937C843.639 81.6667 842.575 81.0259 841.429 81.0362ZM841.429 81.0362C841.428 81.0362 841.428 81.0362 841.427 81.0362L841.432 81.5362L841.432 81.0362C841.431 81.0362 841.43 81.0362 841.429 81.0362ZM838.041 82.6114L837.87 82.1416L838.041 82.6114ZM838.041 82.6114L837.869 82.1418L838.041 82.6114ZM799.166 77.8047C797.988 76.923 796.74 76.1248 795.431 75.4172C785.774 70.4267 773.762 71.4963 765.324 78.0978C756.886 84.6994 753.808 95.437 757.608 105.009L799.166 77.8047ZM799.166 77.8047C799.969 78.4046 800.734 79.0469 801.457 79.7284L799.166 77.8047ZM794.498 115.855L794.487 115.861C785.734 120.552 774.727 119.702 766.943 113.724C759.15 107.74 756.243 97.8852 759.712 89.0725C763.177 80.2701 772.241 74.4373 782.358 74.4323M794.498 115.855L782.36 74.4323C782.359 74.4323 782.359 74.4323 782.358 74.4323M794.498 115.855L794.508 115.849L794.614 115.786C795.667 115.214 796.671 114.568 797.617 113.853M794.498 115.855L805.909 91.6428M782.358 74.4323C786.542 74.4004 790.663 75.3804 794.31 77.2768L794.315 77.2796C795.521 77.9251 796.669 78.658 797.748 79.4714L797.749 79.4721C798.468 80.0164 799.152 80.5991 799.798 81.2172L799.801 81.2198C800.217 81.6248 800.62 82.0551 801.043 82.507L801.045 82.5094C801.497 82.9994 801.922 83.5109 802.316 84.0419L802.323 84.0502L802.322 84.0502C802.385 84.1377 802.452 84.2223 802.524 84.3036L802.54 84.322L802.555 84.3419L802.589 84.3893L802.591 84.3915C803.957 86.2997 804.993 88.3941 805.659 90.5992L805.66 90.604C805.749 90.9088 805.832 91.231 805.898 91.5335L805.909 91.586V91.6397V91.6428M782.358 74.4323L805.909 91.6428M805.909 91.6428C806.271 93.0122 806.48 94.4124 806.533 95.8216L806.534 95.8469L806.532 95.8722C806.531 95.8944 806.531 95.9166 806.532 95.9389C806.549 96.1834 806.549 96.4288 806.533 96.6734C806.513 97.7974 806.417 98.9191 806.247 100.032L806.245 100.048L806.241 100.063C806.235 100.094 806.227 100.122 806.222 100.143C806.215 100.167 806.212 100.178 806.209 100.191C806.208 100.195 806.207 100.198 806.207 100.201V100.218L806.203 100.248C806.19 100.359 806.167 100.47 806.134 100.577M806.134 100.577C806.133 100.578 806.133 100.578 806.133 100.578L805.655 100.431L806.134 100.576C806.134 100.576 806.134 100.577 806.134 100.577ZM806.134 100.577C806.125 100.605 806.118 100.634 806.113 100.663L806.111 100.672L806.111 100.672C805.658 102.931 804.838 105.113 803.678 107.146L803.656 107.184L803.627 107.219C803.568 107.289 803.523 107.366 803.491 107.446L803.475 107.486L803.452 107.524C803.081 108.127 802.638 108.722 802.225 109.276L802.197 109.314L801.795 109.017L802.196 109.315L802.1 109.445L802.071 109.484L802.036 109.516L801.908 109.634C801.881 109.666 801.857 109.697 801.836 109.723C801.822 109.74 801.811 109.754 801.803 109.766C801.797 109.773 801.793 109.778 801.792 109.78L801.79 109.782L801.78 109.797L801.77 109.811C800.582 111.32 799.186 112.679 797.617 113.853M797.617 113.853C797.616 113.854 797.616 113.854 797.615 113.855L797.316 113.454L797.617 113.853C797.617 113.853 797.617 113.853 797.617 113.853ZM851.286 118.328C850.604 118.057 850.053 117.542 849.77 116.883L851.286 118.328ZM851.286 118.328C851.968 118.599 852.736 118.609 853.425 118.357L851.286 118.328ZM853.426 118.356L855.955 117.435L853.426 118.356ZM795.508 117.215C791.527 119.375 786.987 120.513 782.361 120.507C771.47 120.465 761.791 114.189 758.073 104.825C754.359 95.4699 757.359 84.9642 765.632 78.4916C773.912 72.0137 785.712 70.9592 795.197 75.8592C796.483 76.5548 797.71 77.339 798.866 78.2049L798.867 78.2054C799.654 78.7933 800.404 79.4227 801.112 80.0902C801.541 80.5043 801.932 80.9231 802.326 81.3446C802.358 81.3783 802.389 81.4119 802.421 81.4455C802.922 81.9825 803.389 82.5448 803.821 83.1298L803.83 83.1422L803.84 83.1541C803.843 83.1571 803.845 83.1601 803.847 83.1631C803.85 83.1672 803.853 83.1713 803.856 83.1754L803.886 83.2241L803.926 83.2647L803.989 83.3279L803.995 83.3334L804.001 83.3387C804.089 83.4221 804.157 83.5179 804.204 83.6201L804.223 83.6621L804.25 83.6999C805.657 85.7038 806.723 87.8925 807.41 90.1899C807.504 90.5116 807.593 90.8533 807.664 91.1783L807.667 91.1892L807.67 91.1999C808.062 92.6635 808.29 94.1599 808.352 95.6657L808.353 95.687L808.355 95.7081C808.394 96.0108 808.41 96.3155 808.403 96.6201L808.403 96.623C808.384 97.8349 808.283 99.0445 808.099 100.245L808.094 100.282V100.32V100.362L808.068 100.495L808.066 100.505L808.065 100.516C808.041 100.674 808.009 100.832 807.967 100.988L807.964 101.002L807.961 101.016C807.458 103.472 806.55 105.846 805.27 108.053L805.191 108.174L805.185 108.182L805.18 108.191C804.758 108.897 804.275 109.546 803.79 110.197L803.777 110.215L803.776 110.216L803.692 110.329C803.692 110.329 803.692 110.329 803.691 110.33C803.665 110.365 803.636 110.399 803.6 110.443C803.576 110.472 803.548 110.505 803.515 110.545L803.515 110.545L803.509 110.553L803.406 110.685L803.405 110.686C802.129 112.326 800.62 113.803 798.918 115.078C797.927 115.818 796.876 116.49 795.775 117.086H795.745L795.633 117.147L795.508 117.215C795.508 117.215 795.508 117.215 795.508 117.215ZM813.362 52.8142L813.362 52.814L813.352 52.8222C813.192 52.9457 812.985 53.0192 812.765 53.0236C812.547 53.0232 812.341 52.9552 812.179 52.8368C812.178 52.8364 812.178 52.8361 812.177 52.8357L812.174 52.8332C811.858 52.598 808.355 49.9882 804.921 45.5137C801.46 41.0042 798.096 34.6357 798.096 26.9182C798.096 19.2006 801.457 12.832 804.917 8.31979C808.266 3.95145 811.682 1.35576 812.15 1.00054C812.162 0.991091 812.173 0.983228 812.181 0.976958C812.524 0.728458 813.018 0.729036 813.36 0.978692C813.361 0.97905 813.361 0.979409 813.362 0.979768L813.365 0.982058C813.681 1.21734 817.184 3.82709 820.618 8.30153C824.079 12.8111 827.443 19.1796 827.443 26.8971C827.443 34.6147 824.082 40.9832 820.622 45.4927C817.164 50.0011 813.634 52.6159 813.362 52.8142ZM813.091 2.99243L812.769 2.72102L812.447 2.99274C809.474 5.50088 799.96 14.4701 799.96 26.9182C799.96 39.3662 809.474 48.3354 812.447 50.8387L812.769 51.1095L813.091 50.839C816.071 48.3353 825.579 39.3661 825.579 26.9182C825.579 14.4702 816.071 5.50104 813.091 2.99243ZM836.301 85.5914L849.77 116.882L836.301 85.5914Z" fill="#800059" stroke="#800059"/>
<path d="M819.609 69.4137L819.605 69.4137C818.971 69.4176 818.336 69.3903 817.705 69.3318C817.251 69.2827 816.941 68.9617 816.897 68.6133L816.897 68.6113C816.848 68.2314 815.789 59.0286 822.685 52.6727C826.133 49.4952 830.364 48.1426 833.81 47.5949C837.254 47.0474 839.872 47.3107 840.045 47.3309L840.047 47.3311C840.504 47.3823 840.817 47.7053 840.861 48.0568L840.861 48.0584C840.91 48.4321 841.969 57.6401 835.073 63.9908L835.072 63.9916C829.915 68.7622 822.962 69.4137 819.609 69.4137ZM818.685 67.2785V67.7785H819.185C821.904 67.7785 828.813 67.4205 833.757 62.8713C838.712 58.3117 839.154 51.9336 839.108 49.4023L839.099 48.9172L838.614 48.9116C835.869 48.8796 828.974 49.2647 824.031 53.786C819.076 58.318 818.644 64.7311 818.685 67.2719V67.2785ZM786.004 48.0769L786.005 48.0663L786.007 48.0556C786.05 47.7065 786.362 47.3848 786.817 47.3368L786.817 47.3368L786.82 47.3365C786.958 47.3211 788.946 47.1225 791.556 47.5382C794.169 47.9541 797.367 48.9787 799.973 51.3764C802.574 53.7704 803.683 56.7009 804.133 59.0867C804.585 61.4773 804.37 63.2917 804.353 63.3978L804.353 63.3978L804.352 63.4065C804.306 63.7495 804.009 64.0639 803.573 64.1304C803.557 64.1299 803.544 64.1299 803.536 64.1299L803.535 64.13C803.5 64.1301 803.461 64.1314 803.422 64.133C803.374 64.1351 803.314 64.1382 803.247 64.1416C803.205 64.1438 803.16 64.1461 803.113 64.1484C802.864 64.1607 802.522 64.1748 802.104 64.1748C799.558 64.1748 794.282 63.6813 790.38 60.0905C787.778 57.6965 786.67 54.7672 786.22 52.3823C785.995 51.1904 785.936 50.14 785.936 49.3707C785.936 48.9863 785.951 48.6732 785.967 48.4489C785.975 48.3368 785.984 48.2473 785.991 48.1826C785.994 48.1503 785.997 48.1246 786 48.1058C786.002 48.0856 786.004 48.0769 786.004 48.0769ZM802.043 62.529L802.547 62.5327V62.0291C802.547 59.9942 802.057 55.6353 798.628 52.4799C795.209 49.3339 790.493 48.9117 788.315 48.8957L788.311 49.3904H788.311H787.811C787.811 49.3922 787.811 49.3939 787.811 49.3957V49.892L787.821 49.8921C787.902 52.0755 788.556 56.0191 791.73 58.9396C795.155 62.0907 799.859 62.513 802.043 62.529Z" fill="#800059" stroke="#800059"/>
<path d="M824.781 63.3857L813.928 73.2758L813.928 73.2758L813.923 73.2803C813.753 73.4395 813.513 73.5371 813.254 73.5407C812.995 73.5393 812.754 73.443 812.583 73.2842L812.581 73.2828L795.436 57.4962L796.72 56.3108L812.923 71.22L813.26 71.53L813.599 71.2216L823.5 62.1973L824.781 63.3857ZM782.384 82.1526H782.383C773.745 82.1526 766.67 88.6054 766.67 96.651C766.67 104.697 773.745 111.149 782.383 111.149C791.021 111.149 798.096 104.697 798.096 96.651L798.096 96.6502C798.083 88.6102 791.016 82.1646 782.384 82.1526ZM782.382 112.785C772.635 112.784 764.806 105.523 764.806 96.651C764.806 87.779 772.635 80.5174 782.383 80.5174C792.13 80.5174 799.96 87.7787 799.96 96.6504C799.948 105.518 792.125 112.773 782.382 112.785Z" fill="#800059" stroke="#800059"/>
<path d="M811.837 31.6445H813.701V80.6878H811.837V31.6445Z" fill="#800059" stroke="#800059"/>
<path d="M785.562 103.973H779.061C776.872 103.973 775.071 102.293 774.876 100.161H776.747C776.908 101.358 777.842 102.353 779.061 102.353H785.562C786.899 102.353 787.889 101.151 787.889 99.8032C787.889 98.4536 786.898 97.2582 785.562 97.2582H779.049C776.737 97.2582 774.858 95.3739 774.858 93.0728C774.858 90.7724 776.736 88.8926 779.049 88.8926H785.551C787.7 88.8926 789.475 90.5116 789.723 92.5886H787.832C787.623 91.4476 786.713 90.5278 785.539 90.5278H779.049C777.714 90.5278 776.722 91.7232 776.722 93.0728C776.722 94.4206 777.712 95.623 779.049 95.623H785.562C787.875 95.623 789.753 97.5077 789.753 99.8032C789.753 102.097 787.877 103.973 785.562 103.973Z" fill="#800059" stroke="#800059"/>
<path d="M781.377 87.2637H783.241V106.049H781.377V87.2637Z" fill="#800059" stroke="#800059"/>
<path d="M1056.64 88.8807L1051.38 77.9949C1050.86 76.9122 1049.84 76.2384 1048.73 76.2384H1042.81C1042.76 75.8996 1042.67 75.5646 1042.52 75.2491L1037.25 64.3633C1036.73 63.2806 1035.71 62.6068 1034.6 62.6068H1028.69C1028.63 62.268 1028.55 61.933 1028.39 61.6176L1023.13 50.7318C1022.61 49.649 1021.59 48.9752 1020.48 48.9752H1014.56C1014.51 48.6364 1014.42 48.3014 1014.27 47.986L1009 37.1002C1008.48 36.0174 1007.46 35.3437 1006.35 35.3437H994.647C993.535 35.3437 992.519 36.0174 992 37.0963L986.733 47.986C986.58 48.3014 986.492 48.6364 986.437 48.9752H980.524C979.411 48.9752 978.396 49.649 977.877 50.7279L972.61 61.6176C972.457 61.933 972.368 62.268 972.314 62.6068H966.4C965.288 62.6068 964.273 63.2806 963.754 64.3594L958.487 75.2491C958.33 75.5646 958.243 75.8996 958.187 76.2384H952.274C951.161 76.2384 950.146 76.9122 949.627 77.991L944.36 88.8807C943.996 89.6304 943.919 90.4737 944.102 91.2662C944.053 91.4434 944 91.6226 944 91.8173V105.449C944 106.524 944.789 107.396 945.766 107.396V119.081C945.766 120.155 946.555 121.028 947.531 121.028H1053.47C1054.45 121.028 1055.23 120.155 1055.23 119.081V107.396C1056.21 107.396 1057 106.524 1057 105.449V91.8173C1057 91.6226 1056.95 91.4434 1056.9 91.2662C1057.08 90.4737 1057.01 89.6304 1056.64 88.8807ZM1053.12 89.87H1032.63L1037.34 80.1331H1039.91H1048.41L1053.12 89.87ZM972.188 89.87C972.132 89.5311 972.045 89.1962 971.892 88.8807L967.661 80.1331H976.841L972.61 88.8807C972.457 89.1962 972.368 89.5311 972.314 89.87H972.188ZM980.842 80.1331H983.409H989.339H991.907L996.617 89.87H976.131L980.842 80.1331ZM986.017 75.2491L981.786 66.5016H990.966L986.735 75.2491C986.582 75.5646 986.493 75.8996 986.439 76.2384H986.315C986.257 75.8996 986.17 75.5646 986.017 75.2491ZM1000.14 61.6176L995.911 52.87H1005.09L1000.86 61.6176C1000.71 61.933 1000.62 62.268 1000.56 62.6068H1000.44C1000.38 62.268 1000.3 61.933 1000.14 61.6176ZM997.534 66.5016H1003.46H1006.03L1010.74 76.2384H1008.77H992.226H990.256L994.967 66.5016H997.534ZM1014.69 76.2384H1014.56C1014.51 75.8996 1014.42 75.5646 1014.27 75.2491L1010.04 66.5016H1019.22L1014.99 75.2491C1014.83 75.5646 1014.74 75.8996 1014.69 76.2384ZM1000.44 89.87C1000.38 89.5311 1000.3 89.1962 1000.14 88.8807L995.911 80.1331H1005.09L1000.86 88.8807C1000.71 89.1962 1000.62 89.5311 1000.56 89.87H1000.44ZM1009.09 80.1331H1011.66H1017.59H1020.16L1024.87 89.87H1004.38L1009.09 80.1331ZM1028.69 89.87C1028.63 89.5311 1028.55 89.1962 1028.39 88.8807L1024.16 80.1331H1033.34L1029.11 88.8807C1028.96 89.1962 1028.87 89.5311 1028.81 89.87H1028.69ZM1038.99 76.2384H1037.02H1020.48H1018.51L1023.22 66.5016H1025.79H1034.28L1038.99 76.2384ZM1024.87 62.6068H1022.9H1006.35H1004.38L1009.09 52.87H1011.66H1020.16L1024.87 62.6068ZM994.967 39.2384H1006.03L1010.74 48.9752H1008.77H992.228H990.258L994.967 39.2384ZM980.842 52.87H989.339H991.907L996.617 62.6068H994.647H978.101H976.131L980.842 52.87ZM966.717 66.5016H975.214H977.782L982.492 76.2384H980.522H963.976H962.006L966.717 66.5016ZM952.592 80.1331H961.091H963.658L968.369 89.87H947.881L952.592 80.1331ZM1051.7 117.133H949.297V107.396H1002.27C1003.24 107.396 1004.03 106.524 1004.03 105.449C1004.03 104.374 1003.24 103.502 1002.27 103.502H947.531V93.7647H969.284H975.214H997.534H1003.46H1025.78H1031.71H1053.47V103.502H1009.33C1008.35 103.502 1007.56 104.374 1007.56 105.449C1007.56 106.524 1008.35 107.396 1009.33 107.396H1051.7V117.133ZM1021.25 29.4431C1021.31 29.4587 1026.98 31.1062 1026.98 35.3437C1026.98 36.4186 1027.77 37.291 1028.75 37.291C1029.73 37.291 1030.52 36.4186 1030.52 35.3437C1030.52 31.1062 1036.19 29.4587 1036.24 29.4431C1037.02 29.227 1037.57 28.45 1037.58 27.5581C1037.58 26.6662 1037.03 25.8872 1036.25 25.6652C1036.19 25.6497 1030.52 24.0022 1030.52 19.7647C1030.52 18.6898 1029.73 17.8173 1028.75 17.8173C1027.77 17.8173 1026.98 18.6898 1026.98 19.7647C1026.98 24.0022 1021.31 25.6497 1021.26 25.6652C1020.48 25.8814 1019.93 26.6584 1019.92 27.5503C1019.92 28.4422 1020.47 29.2211 1021.25 29.4431ZM1028.75 25.0693C1029.53 26.1014 1030.48 26.9193 1031.42 27.5542C1030.48 28.189 1029.53 29.0069 1028.75 30.039C1027.97 29.0069 1027.02 28.189 1026.08 27.5542C1027.02 26.9193 1027.97 26.1014 1028.75 25.0693ZM1007.56 2.23838C1007.56 1.16344 1006.77 0.291016 1005.8 0.291016C1004.82 0.291016 1004.03 1.16344 1004.03 2.23838C1004.03 6.47586 998.358 8.12333 998.307 8.13891C997.523 8.35507 996.974 9.13207 996.971 10.024C996.969 10.9159 997.52 11.6948 998.302 11.9168C998.358 11.9324 1004.03 13.5799 1004.03 17.8173C1004.03 18.8923 1004.82 19.7647 1005.8 19.7647C1006.77 19.7647 1007.56 18.8923 1007.56 17.8173C1007.56 13.5799 1013.24 11.9324 1013.29 11.9168C1014.07 11.7006 1014.62 10.9236 1014.62 10.0318C1014.63 9.13986 1014.07 8.36091 1013.29 8.13891C1013.24 8.12333 1007.56 6.47586 1007.56 2.23838ZM1005.8 12.5127C1005.02 11.4806 1004.06 10.6627 1003.13 10.0279C1004.06 9.39302 1005.01 8.57512 1005.8 7.54302C1006.58 8.57512 1007.53 9.39302 1008.47 10.0279C1007.53 10.6627 1006.58 11.4806 1005.8 12.5127ZM957.692 31.3905C957.749 31.4061 963.422 33.0535 963.422 37.291C963.422 38.366 964.211 39.2384 965.188 39.2384C966.164 39.2384 966.953 38.366 966.953 37.291C966.953 33.0535 972.626 31.4061 972.677 31.3905C973.461 31.1743 974.01 30.3973 974.014 29.5054C974.016 28.6135 973.465 27.8346 972.683 27.6126C972.626 27.597 966.953 25.9495 966.953 21.7121C966.953 20.6371 966.164 19.7647 965.188 19.7647C964.211 19.7647 963.422 20.6371 963.422 21.7121C963.422 25.9495 957.749 27.597 957.698 27.6126C956.914 27.8288 956.365 28.6058 956.361 29.4976C956.359 30.3895 956.91 31.1685 957.692 31.3905ZM965.188 27.0167C965.968 28.0488 966.92 28.8667 967.859 29.5015C966.921 30.1364 965.97 30.9543 965.188 31.9864C964.407 30.9543 963.455 30.1364 962.516 29.5015C963.455 28.8667 964.407 28.0488 965.188 27.0167Z" fill="#800059"/>
<path d="M1218.99 107.822H1215.41C1214.06 107.824 1212.74 108.284 1211.66 109.134C1210.58 109.983 1209.78 111.177 1209.39 112.539H1207.09C1207.06 112.458 1207.05 112.376 1207.02 112.296C1206.76 111.452 1206.34 110.671 1205.79 110C1205.24 109.329 1204.57 108.781 1203.81 108.388L1200.51 106.654C1199.84 106.307 1199.13 106.083 1198.39 105.994L1198.23 103.984C1199.41 103.476 1200.41 102.599 1201.11 101.472C1201.8 100.345 1202.15 99.0216 1202.11 97.6791L1202 93.9074C1201.96 92.486 1201.49 91.1166 1200.64 90.003C1199.8 88.8894 1198.64 88.091 1197.34 87.7265L1197.24 84.3473C1198.5 83.6804 1199.52 82.5823 1200.11 81.2321C1200.71 79.8819 1200.85 78.3592 1200.52 76.9122L1199.68 73.2433C1199.31 71.6496 1198.4 70.2562 1197.11 69.3332C1195.82 68.4101 1194.25 68.0233 1192.71 68.2478L1191.65 65.7678C1192.68 64.8404 1193.39 63.5908 1193.69 62.2042C1193.98 60.8175 1193.84 59.3676 1193.3 58.0692L1191.83 54.6236C1191.45 53.721 1190.88 52.9202 1190.16 52.2804C1189.45 51.6406 1188.6 51.1782 1187.7 50.9274C1186.79 50.6767 1185.84 50.6439 1184.91 50.8315C1183.99 51.0191 1183.12 51.4224 1182.37 52.0115L1180.41 50.4814C1180.68 49.5698 1180.75 48.6077 1180.63 47.6621C1180.51 46.7165 1180.2 45.8101 1179.71 45.0059C1179.22 44.2017 1178.57 43.5191 1177.81 43.0055C1177.04 42.4919 1176.18 42.1597 1175.28 42.032L1171.73 41.5078C1170.78 41.3647 1169.81 41.4536 1168.89 41.7675C1167.98 42.0815 1167.15 42.6122 1166.46 43.3184C1165.78 44.0247 1165.25 44.8877 1164.93 45.8406C1164.62 46.7935 1164.51 47.8108 1164.62 48.8138L1162.89 49.9052C1161.98 49.1088 1160.86 48.6034 1159.68 48.4481C1158.5 48.2927 1157.3 48.4939 1156.23 49.028C1155.15 49.5621 1154.24 50.4071 1153.6 51.4646C1152.96 52.522 1152.63 53.7481 1152.63 54.9998V57.2074C1152.08 57.4352 1151.6 57.7999 1151.22 58.2693C1150.84 58.7388 1150.58 59.2987 1150.46 59.9002L1149.31 65.4674C1144.18 67.6097 1139.79 71.327 1136.7 76.1345C1133.61 80.9421 1131.98 86.6165 1132 92.4176C1132.06 108.193 1144.13 121.028 1158.9 121.028H1158.91L1159.02 121.028C1166.2 120.931 1173.06 117.84 1178.08 112.433C1183.11 107.026 1185.88 99.7449 1185.81 92.1858C1185.79 86.385 1184.11 80.7248 1180.99 75.9439C1177.86 71.163 1173.44 67.4835 1168.3 65.3856L1167.11 59.8289C1166.99 59.2797 1166.76 58.7657 1166.42 58.3248C1166.09 57.8838 1165.67 57.5272 1165.18 57.2814V54.9999C1165.18 54.3351 1165.09 53.6741 1164.9 53.0393L1166.07 52.3042C1167.06 53.5487 1168.45 54.3615 1169.98 54.5849L1173.53 55.109C1174.4 55.2385 1175.29 55.1739 1176.13 54.9195C1176.97 54.6651 1177.76 54.2266 1178.43 53.6326L1180.21 55.029C1179.64 56.6462 1179.69 58.4364 1180.37 60.0109L1181.83 63.456C1182.37 64.7613 1183.31 65.8441 1184.49 66.5392C1185.67 67.2343 1187.04 67.5034 1188.38 67.3056L1189.45 69.8204C1188.58 70.6131 1187.95 71.6383 1187.6 72.7852C1187.25 73.932 1187.21 75.157 1187.47 76.3277L1188.31 79.9967C1188.61 81.3077 1189.28 82.491 1190.24 83.3868C1191.2 84.2826 1192.39 84.8479 1193.67 85.0063L1193.75 87.8422C1192.47 88.2907 1191.36 89.1626 1190.58 90.3284C1189.81 91.4942 1189.41 92.8917 1189.45 94.3132L1189.56 98.0843C1189.61 99.5832 1190.14 101.021 1191.06 102.162C1191.99 103.303 1193.26 104.08 1194.66 104.364L1194.84 106.606C1193.57 107.23 1192.54 108.277 1191.89 109.583C1191.51 110.36 1191.28 111.211 1191.21 112.084C1191.14 112.957 1191.24 113.836 1191.5 114.668C1191.77 115.512 1192.18 116.292 1192.74 116.963C1193.29 117.634 1193.96 118.182 1194.72 118.575L1198.02 120.309C1199.53 121.104 1201.28 121.242 1202.9 120.695C1204.51 120.147 1205.85 118.957 1206.63 117.381C1206.8 117.037 1206.94 116.68 1207.05 116.312H1209.39C1209.78 117.673 1210.58 118.867 1211.66 119.716C1212.74 120.566 1214.06 121.026 1215.41 121.028H1218.99C1220.66 121.028 1222.26 120.332 1223.43 119.094C1224.61 117.856 1225.27 116.176 1225.27 114.425C1225.27 112.674 1224.61 110.994 1223.43 109.756C1222.26 108.518 1220.66 107.822 1218.99 107.822L1218.99 107.822ZM1156.22 54.9999C1156.22 54.2496 1156.5 53.5303 1157 52.9998C1157.51 52.4693 1158.19 52.1709 1158.91 52.1701C1159.02 52.1744 1159.13 52.1866 1159.25 52.2065L1158.88 52.4391C1158.68 52.5666 1158.5 52.7347 1158.36 52.9338C1158.22 53.1329 1158.12 53.3591 1158.06 53.5994C1158.01 53.8398 1157.99 54.0896 1158.03 54.3346C1158.06 54.5797 1158.14 54.8151 1158.26 55.0276C1158.39 55.24 1158.55 55.4252 1158.73 55.5727C1158.92 55.7201 1159.14 55.8269 1159.37 55.887C1159.6 55.947 1159.83 55.9591 1160.07 55.9226C1160.3 55.8861 1160.52 55.8017 1160.73 55.6742L1161.6 55.1248V56.895L1156.22 56.9184L1156.22 54.9999ZM1153.96 60.7011L1163.61 60.6594L1164.45 64.5798H1153.16L1153.96 60.7011ZM1160.38 111.403L1160.39 113.043C1160.39 113.224 1160.36 113.403 1160.29 113.57C1160.23 113.738 1160.13 113.89 1160.01 114.018C1159.89 114.147 1159.75 114.249 1159.59 114.319C1159.43 114.389 1159.26 114.425 1159.09 114.426C1158.92 114.427 1158.75 114.392 1158.59 114.323C1158.43 114.254 1158.29 114.154 1158.17 114.026C1158.04 113.899 1157.95 113.747 1157.88 113.58C1157.82 113.414 1157.78 113.235 1157.78 113.054L1157.78 111.415C1156.63 111.309 1155.51 110.946 1154.51 110.349C1153.51 109.752 1152.64 108.936 1151.96 107.955C1151.82 107.718 1151.74 107.446 1151.73 107.166C1151.72 106.887 1151.79 106.611 1151.91 106.366C1152.04 106.121 1152.23 105.916 1152.46 105.772C1152.68 105.629 1152.94 105.551 1153.21 105.548C1153.45 105.555 1153.68 105.615 1153.9 105.725C1154.11 105.836 1154.3 105.993 1154.45 106.187C1155.03 106.863 1155.74 107.406 1156.54 107.785C1157.33 108.164 1158.18 108.371 1159.05 108.393C1161.6 108.382 1162.84 107.499 1162.83 105.683C1162.81 101.408 1152.59 103.413 1152.56 96.3568C1152.55 93.7509 1154.11 91.4894 1157.7 91.0642L1157.69 89.3952C1157.69 89.2147 1157.72 89.0356 1157.79 88.8683C1157.85 88.7009 1157.95 88.5487 1158.07 88.4202C1158.19 88.2917 1158.33 88.1896 1158.49 88.1196C1158.65 88.0497 1158.82 88.0133 1158.99 88.0126C1159.16 88.0118 1159.33 88.0468 1159.49 88.1154C1159.65 88.184 1159.79 88.2849 1159.91 88.4123C1160.04 88.5398 1160.13 88.6913 1160.2 88.858C1160.26 89.0248 1160.3 89.2036 1160.3 89.3842L1160.3 91.0827C1161.27 91.1378 1162.22 91.3977 1163.09 91.8469C1163.95 92.296 1164.73 92.9252 1165.36 93.6966C1165.54 93.9717 1165.64 94.2976 1165.64 94.6324C1165.64 95.0491 1165.48 95.4471 1165.2 95.7392C1164.91 96.0313 1164.53 96.1935 1164.14 96.1904C1163.67 96.1443 1163.24 95.9163 1162.93 95.5516C1161.85 94.5433 1160.44 93.9958 1159 94.0162C1156.67 94.0261 1155.81 95.1718 1155.81 96.343C1155.83 100.179 1166.05 98.3495 1166.08 105.67C1166.09 108.891 1164.14 111.007 1160.38 111.403ZM1165.43 68.3529C1169.24 69.6006 1172.69 71.8332 1175.47 74.8467C1178.25 77.8601 1180.27 81.5584 1181.35 85.6038C1182.42 89.6491 1182.51 93.9125 1181.61 98.0046C1180.71 102.097 1178.86 105.887 1176.21 109.03C1177.44 106.017 1177.94 102.729 1177.67 99.4627C1177.39 96.196 1176.35 93.052 1174.64 90.3129C1172.92 87.5739 1170.59 85.3254 1167.84 83.7693C1165.1 82.2132 1162.03 81.3982 1158.91 81.3973C1155.79 81.3965 1152.72 82.2099 1149.98 83.7646C1147.23 85.3192 1144.9 87.5664 1143.18 90.3046C1141.46 93.0428 1140.42 96.1862 1140.15 99.4528C1139.87 102.719 1140.37 106.007 1141.6 109.02C1138.95 105.879 1137.1 102.091 1136.2 98.001C1135.3 93.9113 1135.39 89.6505 1136.46 85.6072C1137.53 81.5639 1139.55 77.8667 1142.33 74.8528C1145.1 71.839 1148.55 69.6044 1152.36 68.3529H1165.43ZM1174.51 48.2147C1174.37 48.4135 1174.26 48.6394 1174.21 48.8797C1174.15 49.1199 1174.14 49.3697 1174.17 49.6148C1174.21 49.86 1174.29 50.0956 1174.41 50.3082C1174.53 50.5209 1174.69 50.7064 1174.88 50.8543L1175.33 51.2113C1174.92 51.3778 1174.47 51.4333 1174.03 51.3729L1170.48 50.8488C1170.03 50.7793 1169.61 50.5898 1169.24 50.2984L1169.69 50.0147C1170.04 49.7951 1170.31 49.4568 1170.45 49.0556C1170.6 48.6544 1170.6 48.2142 1170.48 47.8078C1170.35 47.4013 1170.09 47.0527 1169.75 46.8196C1169.41 46.5865 1169 46.4827 1168.6 46.5254C1168.84 46.1262 1169.17 45.7973 1169.57 45.5686C1169.96 45.3399 1170.4 45.2188 1170.85 45.2164C1170.98 45.2165 1171.1 45.2257 1171.23 45.244L1174.78 45.7681C1175.3 45.8456 1175.79 46.0804 1176.18 46.4439C1176.57 46.8074 1176.86 47.2838 1177 47.8148C1176.62 47.5234 1176.14 47.402 1175.67 47.4769C1175.21 47.5518 1174.79 47.8169 1174.51 48.2147V48.2147ZM1189.95 62.0422C1189.69 61.7616 1189.36 61.5707 1189 61.4957C1188.64 61.4208 1188.27 61.4654 1187.93 61.6235C1187.59 61.7816 1187.31 62.0455 1187.12 62.3787C1186.93 62.712 1186.85 63.0984 1186.88 63.4848C1186.48 63.3968 1186.11 63.2076 1185.81 62.9342C1185.5 62.6608 1185.26 62.3115 1185.11 61.9173V61.9168L1183.64 58.4712C1183.52 58.1765 1183.45 57.862 1183.43 57.5412L1183.89 57.9075C1184.28 58.2061 1184.76 58.3329 1185.23 58.2601C1185.7 58.1873 1186.12 57.9208 1186.4 57.5193C1186.69 57.1178 1186.81 56.6141 1186.74 56.1191C1186.67 55.624 1186.42 55.1782 1186.04 54.8797L1185.6 54.5419C1186.2 54.4167 1186.81 54.5094 1187.35 54.8044C1187.89 55.0994 1188.31 55.579 1188.56 56.1633L1190.02 59.608C1190.18 59.9934 1190.26 60.4123 1190.25 60.8336C1190.23 61.255 1190.13 61.668 1189.95 62.0422V62.0422ZM1193.55 80.9689L1193.55 81.13C1193.36 81.0637 1193.18 80.9756 1193.01 80.8671C1192.71 80.6737 1192.45 80.4194 1192.24 80.1187C1192.03 79.8181 1191.88 79.4771 1191.8 79.1156V79.1151L1190.96 75.4466C1190.83 74.8595 1190.88 74.2431 1191.11 73.6891C1191.32 74.1213 1191.68 74.4496 1192.12 74.6049C1192.56 74.7601 1193.04 74.7301 1193.46 74.5212C1193.88 74.3123 1194.2 73.9408 1194.36 73.4851C1194.53 73.0293 1194.52 72.5249 1194.33 72.0782C1194.79 72.2168 1195.2 72.4789 1195.52 72.8382C1195.85 73.1974 1196.08 73.6411 1196.19 74.1243L1197.03 77.7933C1197.18 78.4681 1197.09 79.1785 1196.78 79.7872C1196.55 79.4645 1196.23 79.2266 1195.87 79.1083C1195.5 78.9899 1195.11 78.9972 1194.75 79.1292C1194.39 79.2612 1194.08 79.5109 1193.86 79.8418C1193.65 80.1728 1193.54 80.5677 1193.55 80.9689V80.9689ZM1194.34 100.215C1193.99 99.9667 1193.69 99.6335 1193.49 99.2429C1193.28 98.8522 1193.16 98.4153 1193.15 97.9683L1193.04 94.1971C1193.01 93.7735 1193.08 93.3491 1193.25 92.9614C1193.41 92.5736 1193.66 92.2345 1193.98 91.9738C1194.11 92.3252 1194.34 92.6269 1194.64 92.8399C1194.94 93.0529 1195.29 93.1673 1195.65 93.1682C1195.66 93.1682 1195.68 93.1677 1195.7 93.1672C1196.07 93.1546 1196.42 93.0228 1196.72 92.7897C1197.01 92.5565 1197.23 92.2335 1197.35 91.8648C1197.42 91.9218 1197.5 91.9831 1197.57 92.0485C1197.83 92.3024 1198.04 92.6077 1198.18 92.9466C1198.33 93.2855 1198.41 93.6514 1198.42 94.023L1198.53 97.7946C1198.55 98.5151 1198.3 99.2165 1197.85 99.7534C1197.73 99.3218 1197.47 98.9486 1197.11 98.7012C1196.76 98.4537 1196.33 98.3483 1195.91 98.404C1195.48 98.4597 1195.09 98.6729 1194.81 99.0049C1194.52 99.337 1194.35 99.7661 1194.34 100.215L1194.34 100.215ZM1202.85 116.312H1202.99C1202.56 116.78 1202.01 117.093 1201.4 117.205C1200.8 117.318 1200.17 117.222 1199.62 116.934L1196.32 115.2C1195.99 115.029 1195.7 114.79 1195.45 114.498C1195.21 114.205 1195.03 113.865 1194.91 113.496C1194.8 113.138 1194.76 112.761 1194.79 112.386C1194.82 112.01 1194.92 111.645 1195.08 111.311C1195.12 111.239 1195.16 111.174 1195.2 111.106L1195.23 111.519C1195.27 111.99 1195.48 112.428 1195.81 112.748C1196.14 113.068 1196.57 113.246 1197.02 113.246C1197.07 113.246 1197.12 113.244 1197.17 113.239C1197.41 113.218 1197.64 113.149 1197.85 113.035C1198.06 112.921 1198.24 112.765 1198.39 112.576C1198.55 112.386 1198.66 112.167 1198.73 111.931C1198.8 111.695 1198.83 111.447 1198.81 111.2L1198.71 109.955C1198.77 109.983 1198.84 109.996 1198.91 110.029L1202.21 111.763C1202.56 111.951 1202.87 112.215 1203.12 112.539H1202.85C1202.38 112.539 1201.92 112.737 1201.58 113.091C1201.25 113.445 1201.06 113.925 1201.06 114.425C1201.06 114.925 1201.25 115.405 1201.58 115.759C1201.92 116.113 1202.38 116.312 1202.85 116.312L1202.85 116.312ZM1220.79 116.312H1220.99C1220.74 116.607 1220.43 116.844 1220.09 117.007C1219.74 117.169 1219.37 117.254 1218.99 117.255H1215.41C1215.01 117.253 1214.61 117.157 1214.25 116.973C1213.89 116.79 1213.57 116.523 1213.32 116.193C1213.67 116.063 1213.97 115.824 1214.18 115.507C1214.4 115.191 1214.51 114.813 1214.51 114.425C1214.51 114.038 1214.4 113.659 1214.18 113.343C1213.97 113.026 1213.67 112.787 1213.32 112.657C1213.57 112.327 1213.89 112.061 1214.25 111.877C1214.61 111.693 1215.01 111.597 1215.41 111.595H1218.99C1219.37 111.596 1219.74 111.681 1220.09 111.843C1220.43 112.006 1220.74 112.243 1220.99 112.539H1220.79C1220.31 112.539 1219.86 112.737 1219.52 113.091C1219.18 113.445 1218.99 113.925 1218.99 114.425C1218.99 114.925 1219.18 115.405 1219.52 115.759C1219.86 116.113 1220.31 116.312 1220.79 116.312H1220.79ZM1229.76 24.8157C1232.06 24.8158 1234.32 24.0968 1236.23 22.7495C1238.15 21.4022 1239.65 19.4872 1240.53 17.2466C1241.41 15.006 1241.64 12.5405 1241.19 10.1618C1240.74 7.78312 1239.63 5.59813 1238 3.88311C1236.37 2.1681 1234.29 1.00009 1232.03 0.526796C1229.77 0.0534975 1227.43 0.296164 1225.3 1.22411C1223.17 2.15206 1221.34 3.7236 1220.06 5.74002C1218.78 7.75644 1218.1 10.1272 1218.1 12.5524C1218.1 15.8035 1219.33 18.9203 1221.52 21.2193C1223.7 23.5183 1226.67 24.8116 1229.76 24.8157ZM1235.26 76.0722C1235.34 75.969 1235.41 75.862 1235.47 75.7515H1235.46C1235.4 75.8619 1235.33 75.9689 1235.26 76.0722V76.0722Z" fill="#800059"/>
<path d="M1244.99 118.905C1244.99 118.905 1240.1 78.8453 1240.1 78.8358C1240.37 78.5039 1240.52 78.0779 1240.52 77.6379V34.2481C1240.52 31.3005 1239.58 28.4387 1237.84 26.1236C1236.79 26.8221 1235.66 27.3821 1234.48 27.791C1236.05 29.5341 1236.93 31.8451 1236.93 34.2481V75.7514H1235.47C1234.82 76.8877 1233.93 77.8547 1232.87 78.5812C1232.33 78.96 1231.76 79.2763 1231.16 79.5244H1236.57L1241.43 119.377C1241.49 119.832 1241.7 120.25 1242.03 120.554C1242.35 120.858 1242.77 121.026 1243.21 121.028C1243.28 121.026 1243.36 121.02 1243.43 121.009C1243.67 120.978 1243.89 120.899 1244.1 120.777C1244.3 120.655 1244.48 120.491 1244.62 120.296C1244.77 120.1 1244.88 119.877 1244.94 119.638C1245 119.4 1245.02 119.151 1244.99 118.905V118.905ZM1227.34 88.815L1228.44 80.1473C1228.24 80.1605 1228.05 80.1918 1227.86 80.1918C1226.84 80.1897 1225.84 80.0039 1224.88 79.6425L1221.74 104.465C1222.97 104.841 1224.12 105.467 1225.12 106.308L1226.12 98.4467L1231.61 119.638C1231.74 120.12 1232.04 120.53 1232.45 120.778C1232.87 121.026 1233.36 121.091 1233.82 120.959C1234.27 120.828 1234.66 120.51 1234.9 120.076C1235.14 119.642 1235.2 119.127 1235.08 118.645L1227.34 88.815ZM1210.35 105.535C1211.43 104.852 1212.62 104.394 1213.87 104.188L1212.44 79.5244H1224.57C1223.97 79.2782 1223.4 78.9622 1222.87 78.5824C1222.02 77.9774 1221.27 77.2279 1220.65 76.3645C1220.52 76.1758 1220.39 75.9777 1220.26 75.7513H1211.82V34.2481C1211.82 31.8924 1212.67 29.6234 1214.18 27.8862C1215.69 26.149 1217.77 25.0689 1220 24.8577C1218.92 23.9129 1217.98 22.8181 1217.18 21.6035C1214.6 22.4216 1212.33 24.0927 1210.72 26.3698C1209.11 28.647 1208.24 31.4092 1208.23 34.2481V77.6379C1208.23 77.8964 1208.29 78.1518 1208.38 78.3886C1208.48 78.6254 1208.63 78.8385 1208.81 79.015L1210.35 105.535Z" fill="#800059"/>
<path d="M1228.12 72.6258C1227.65 72.6963 1227.18 72.5698 1226.8 72.2736C1226.42 71.9775 1226.16 71.5356 1226.09 71.0437L1221.22 34.224C1221.19 33.9787 1221.11 33.7425 1220.99 33.5289C1220.87 33.3153 1220.71 33.1285 1220.52 32.9791C1220.34 32.8298 1220.12 32.7208 1219.89 32.6584C1219.67 32.5961 1219.43 32.5815 1219.2 32.6156C1218.96 32.6497 1218.74 32.7318 1218.54 32.8572C1218.33 32.9826 1218.15 33.1489 1218.01 33.3465C1217.87 33.5441 1217.77 33.7691 1217.71 34.0088C1217.65 34.2485 1217.63 34.4982 1217.67 34.7435L1222.54 71.5761C1222.74 73.06 1223.5 74.3974 1224.64 75.2946C1225.79 76.1918 1227.22 76.5755 1228.63 76.3614C1230.04 76.1473 1231.31 75.3529 1232.17 74.1527C1233.02 72.9524 1233.39 71.4445 1233.19 69.96L1228.84 36.3518C1228.78 35.8561 1228.53 35.4075 1228.15 35.1047C1227.77 34.8018 1227.3 34.6696 1226.82 34.737C1226.35 34.8044 1225.93 35.066 1225.64 35.4642C1225.35 35.8624 1225.23 36.3646 1225.29 36.8603L1229.64 70.4859C1229.7 70.981 1229.58 71.4843 1229.3 71.8854C1229.02 72.2865 1228.59 72.5527 1228.12 72.6258Z" fill="#800059"/>
<path fill-rule="evenodd" clip-rule="evenodd" d="M1423.17 111.091H1329.83C1324.4 111.091 1320 106.065 1320 99.8659V32.5126C1320 26.3133 1324.4 21.2871 1329.83 21.2871H1423.17C1428.6 21.2871 1433 26.3133 1433 32.5126V99.8659C1433 106.065 1428.6 111.091 1423.17 111.091ZM1324.91 57.7701H1428.09V46.5446H1324.91V57.7701ZM1428.09 32.5126C1428.09 29.4144 1425.89 26.8999 1423.17 26.8999H1329.83C1327.11 26.8999 1324.91 29.4144 1324.91 32.5126V40.9318H1428.09V32.5126ZM1428.09 63.3829H1324.91V99.8659C1324.91 102.964 1327.11 105.479 1329.83 105.479H1423.17C1425.89 105.479 1428.09 102.964 1428.09 99.8659V63.3829ZM1381.41 80.2212H1371.59C1370.23 80.2212 1369.13 78.9667 1369.13 77.4148C1369.13 75.8657 1370.23 74.6084 1371.59 74.6084H1381.41C1382.77 74.6084 1383.87 75.8657 1383.87 77.4148C1383.87 78.9667 1382.77 80.2212 1381.41 80.2212ZM1359.3 80.2212H1337.2C1335.84 80.2212 1334.74 78.9667 1334.74 77.4148C1334.74 75.8657 1335.84 74.6084 1337.2 74.6084H1359.3C1360.66 74.6084 1361.76 75.8657 1361.76 77.4148C1361.76 78.9667 1360.66 80.2212 1359.3 80.2212ZM1337.2 88.6403H1351.93C1353.29 88.6403 1354.39 89.8976 1354.39 91.4467C1354.39 92.9986 1353.29 94.2531 1351.93 94.2531H1337.2C1335.84 94.2531 1334.74 92.9986 1334.74 91.4467C1334.74 89.8976 1335.84 88.6403 1337.2 88.6403Z" fill="#800059"/>
<path d="M56.7268 206.419H13.0818C12.5814 206.419 12.1016 206.617 11.7478 206.97C11.3939 207.323 11.1952 207.802 11.1952 208.301V238.565C11.1952 239.064 11.3939 239.543 11.7478 239.896C12.1016 240.249 12.5814 240.447 13.0818 240.447H56.7268C57.2271 240.447 57.707 240.249 58.0608 239.896C58.4146 239.543 58.6134 239.064 58.6134 238.565V208.301C58.6134 207.802 58.4146 207.323 58.0608 206.97C57.707 206.617 57.2271 206.419 56.7268 206.419ZM54.8402 236.682H14.9684V210.184H54.8402V236.682ZM56.7268 244.069H13.0818C12.5814 244.069 12.1016 244.267 11.7478 244.621C11.3939 244.974 11.1952 245.452 11.1952 245.952V302.57C11.1952 303.069 11.3939 303.548 11.7478 303.901C12.1016 304.254 12.5814 304.453 13.0818 304.453H56.7268C57.2271 304.453 57.707 304.254 58.0608 303.901C58.4146 303.548 58.6134 303.069 58.6134 302.57V245.952C58.6134 245.452 58.4146 244.974 58.0608 244.621C57.707 244.267 57.2271 244.069 56.7268 244.069ZM54.8402 300.688H14.9684V247.834H54.8402V300.688ZM107.918 259.272H64.2732C63.7729 259.272 63.293 259.471 62.9392 259.824C62.5854 260.177 62.3866 260.656 62.3866 261.155V302.57C62.3866 303.069 62.5854 303.548 62.9392 303.901C63.293 304.254 63.7729 304.453 64.2732 304.453H107.918C108.419 304.453 108.898 304.254 109.252 303.901C109.606 303.548 109.805 303.069 109.805 302.57V261.155C109.805 260.656 109.606 260.177 109.252 259.824C108.898 259.471 108.419 259.272 107.918 259.272ZM106.032 300.688H66.1598V263.037H106.032V300.688ZM104.805 217.518C104.805 217.499 104.768 217.492 104.756 217.473C101.967 213.904 98.2104 211.209 93.932 209.706C89.6537 208.204 85.0332 207.958 80.6188 208.997C76.2043 210.036 72.1813 212.317 69.0269 215.568C65.8726 218.82 63.7193 222.907 62.8225 227.343C61.9258 231.78 62.3233 236.38 63.9678 240.597C65.6123 244.815 68.4349 248.474 72.1005 251.139C75.7662 253.804 80.1211 255.364 84.6487 255.634C89.1762 255.904 93.6862 254.872 97.6437 252.661H97.6777L97.7267 252.62C100.692 250.962 103.264 248.685 105.267 245.944C107.269 243.204 108.656 240.064 109.331 236.74C110.006 233.416 109.954 229.985 109.179 226.683C108.404 223.38 106.924 220.284 104.839 217.605C104.824 217.567 104.82 217.541 104.805 217.518V217.518ZM100.564 218.418L87.9804 228.173V212.319C92.7791 212.756 97.2532 214.925 100.564 218.418V218.418ZM66.1598 232.017C66.1761 227.083 68.0336 222.331 71.3702 218.69C74.7069 215.048 79.2834 212.776 84.2072 212.319V232.017C84.2072 232.047 84.2299 232.07 84.2299 232.096C84.2344 232.391 84.3095 232.68 84.4487 232.94L94.1346 250.191C91.605 251.321 88.8654 251.907 86.0938 251.912C80.8082 251.906 75.7408 249.808 72.0037 246.078C68.2665 242.348 66.1648 237.291 66.1598 232.017V232.017ZM97.4248 248.354L88.5351 232.514L102.873 221.389C105.66 225.708 106.649 230.942 105.629 235.977C104.61 241.012 101.662 245.453 97.4135 248.354H97.4248ZM78.4417 268.685C78.4417 268.186 78.6405 267.707 78.9943 267.354C79.3481 267.001 79.828 266.802 80.3283 266.802H100.372C100.872 266.802 101.352 267.001 101.706 267.354C102.06 267.707 102.258 268.186 102.258 268.685C102.258 269.184 102.06 269.663 101.706 270.016C101.352 270.369 100.872 270.567 100.372 270.567H80.3283C79.828 270.567 79.3481 270.369 78.9943 270.016C78.6405 269.663 78.4417 269.184 78.4417 268.685V268.685ZM102.258 276.215C102.258 276.714 102.06 277.193 101.706 277.546C101.352 277.899 100.872 278.097 100.372 278.097H87.8748C87.3744 278.097 86.8946 277.899 86.5408 277.546C86.187 277.193 85.9882 276.714 85.9882 276.215C85.9882 275.716 86.187 275.237 86.5408 274.884C86.8946 274.531 87.3744 274.332 87.8748 274.332H100.372C100.619 274.332 100.865 274.381 101.094 274.476C101.323 274.57 101.531 274.709 101.706 274.884C101.881 275.059 102.02 275.266 102.115 275.495C102.21 275.723 102.258 275.968 102.258 276.215V276.215ZM24.4166 253.625C24.4166 253.126 24.6153 252.647 24.9692 252.294C25.323 251.941 25.8028 251.742 26.3032 251.742H42.3055C42.8058 251.742 43.2857 251.941 43.6395 252.294C43.9933 252.647 44.1921 253.126 44.1921 253.625C44.1921 254.124 43.9933 254.603 43.6395 254.956C43.2857 255.309 42.8058 255.507 42.3055 255.507H26.3032C25.8028 255.507 25.323 255.309 24.9692 254.956C24.6153 254.603 24.4166 254.124 24.4166 253.625V253.625ZM18.8813 254.336C18.7914 254.108 18.7403 253.866 18.7303 253.621C18.741 253.125 18.9439 252.653 19.2963 252.303C19.6539 251.953 20.1349 251.757 20.6358 251.757C21.1367 251.757 21.6177 251.953 21.9753 252.303C22.3148 252.658 22.5043 253.13 22.5043 253.621C22.5043 254.112 22.3148 254.584 21.9753 254.939C21.8022 255.131 21.5808 255.274 21.3339 255.353C21.1106 255.46 20.8646 255.512 20.6169 255.504C20.3695 255.507 20.1241 255.458 19.8966 255.361C19.6691 255.264 19.4646 255.12 19.2963 254.939C19.1163 254.77 18.9748 254.565 18.8813 254.336V254.336ZM24.4166 261.155C24.4166 260.656 24.6153 260.177 24.9692 259.824C25.323 259.471 25.8028 259.272 26.3032 259.272H42.3055C42.8058 259.272 43.2857 259.471 43.6395 259.824C43.9933 260.177 44.1921 260.656 44.1921 261.155C44.1921 261.654 43.9933 262.133 43.6395 262.486C43.2857 262.839 42.8058 263.037 42.3055 263.037H26.3032C25.8028 263.037 25.323 262.839 24.9692 262.486C24.6153 262.133 24.4166 261.654 24.4166 261.155V261.155ZM19.2963 262.506C18.9492 262.138 18.7481 261.656 18.7303 261.151C18.7403 260.906 18.7914 260.664 18.8813 260.436C18.9748 260.208 19.1163 260.002 19.2963 259.833C19.5579 259.573 19.8905 259.394 20.2527 259.321C20.615 259.247 20.9909 259.281 21.3339 259.419C21.5808 259.498 21.8022 259.641 21.9753 259.833C22.3169 260.187 22.5065 260.66 22.5036 261.151C22.5142 261.401 22.4727 261.651 22.3817 261.884C22.2907 262.117 22.1521 262.329 21.9747 262.506C21.7974 262.683 21.5851 262.821 21.3514 262.912C21.1176 263.003 20.8675 263.044 20.6169 263.034C20.1247 263.037 19.6507 262.847 19.2963 262.506V262.506ZM24.4166 268.685C24.4166 268.186 24.6153 267.707 24.9692 267.354C25.323 267.001 25.8028 266.802 26.3032 266.802H42.3055C42.8058 266.802 43.2857 267.001 43.6395 267.354C43.9933 267.707 44.1921 268.186 44.1921 268.685C44.1921 269.184 43.9933 269.663 43.6395 270.016C43.2857 270.369 42.8058 270.567 42.3055 270.567H26.3032C25.8028 270.567 25.323 270.369 24.9692 270.016C24.6153 269.663 24.4166 269.184 24.4166 268.685V268.685ZM18.8813 269.396C18.7914 269.168 18.7403 268.926 18.7303 268.681C18.737 268.309 18.8531 267.947 19.0641 267.64C19.275 267.333 19.5717 267.095 19.9172 266.954C20.2627 266.814 20.6419 266.778 21.0078 266.851C21.3736 266.923 21.71 267.102 21.9753 267.363C22.3169 267.717 22.5065 268.19 22.5036 268.681C22.4999 269.182 22.3119 269.665 21.9753 270.037C21.79 270.205 21.5716 270.333 21.3339 270.413C21.1106 270.52 20.8646 270.572 20.6169 270.564C20.1247 270.567 19.6507 270.377 19.2963 270.037C19.1237 269.847 18.9835 269.631 18.8813 269.396V269.396ZM18.7416 215.831C18.7416 215.332 18.9404 214.853 19.2942 214.5C19.648 214.147 20.1279 213.949 20.6283 213.949H44.6524C45.1528 213.949 45.6327 214.147 45.9865 214.5C46.3403 214.853 46.539 215.332 46.539 215.831C46.539 216.331 46.3403 216.81 45.9865 217.163C45.6327 217.516 45.1528 217.714 44.6524 217.714H20.6169C20.1185 217.711 19.6416 217.511 19.2902 217.159C18.9388 216.806 18.7416 216.329 18.7416 215.831V215.831ZM18.7416 223.361C18.7416 222.862 18.9404 222.383 19.2942 222.03C19.648 221.677 20.1279 221.479 20.6283 221.479H29.5595C30.0599 221.479 30.5397 221.677 30.8935 222.03C31.2473 222.383 31.4461 222.862 31.4461 223.361C31.4461 223.861 31.2473 224.34 30.8935 224.693C30.5397 225.046 30.0599 225.244 29.5595 225.244H20.6169C20.1185 225.241 19.6416 225.041 19.2902 224.689C18.9388 224.336 18.7416 223.859 18.7416 223.361V223.361ZM38.8907 287.619L47.6974 276.475C47.8508 276.28 48.041 276.118 48.2572 275.997C48.4734 275.876 48.7114 275.799 48.9575 275.77C49.2037 275.741 49.4531 275.76 49.6917 275.827C49.9303 275.894 50.1534 276.007 50.3481 276.16C50.5429 276.313 50.7055 276.503 50.8267 276.719C50.9479 276.935 51.0254 277.172 51.0546 277.418C51.0839 277.663 51.0644 277.912 50.9972 278.15C50.93 278.388 50.8165 278.611 50.6632 278.805L40.5321 291.606C40.3665 291.816 40.1581 291.989 39.9206 292.112C39.6832 292.236 39.4221 292.307 39.1548 292.322C38.8874 292.337 38.62 292.295 38.3702 292.199C38.1204 292.103 37.8939 291.955 37.7059 291.764L30.9518 284.984L22.13 296.505C21.8258 296.902 21.376 297.162 20.8796 297.228C20.3832 297.294 19.8809 297.16 19.4831 296.857C19.0853 296.553 18.8247 296.104 18.7585 295.609C18.6923 295.114 18.8261 294.612 19.1303 294.216L29.2727 280.978C29.4346 280.761 29.6414 280.581 29.8791 280.451C30.1167 280.321 30.3797 280.244 30.65 280.225C30.9192 280.213 31.1881 280.256 31.4399 280.352C31.6917 280.448 31.9211 280.594 32.114 280.782L38.8907 287.619ZM111.567 195.248H9.43308C6.93127 195.248 4.53193 196.24 2.76288 198.005C0.993838 199.77 0 202.164 0 204.661V306.572C0 309.069 0.993838 311.463 2.76288 313.228C4.53193 314.993 6.93127 315.985 9.43308 315.985H111.567C114.069 315.985 116.468 314.993 118.237 313.228C120.006 311.463 121 309.069 121 306.572V204.661C121 202.164 120.006 199.77 118.237 198.005C116.468 196.24 114.069 195.248 111.567 195.248V195.248ZM117.227 306.572C117.227 308.07 116.63 309.507 115.569 310.566C114.508 311.625 113.068 312.22 111.567 312.22H9.43308C7.93199 312.22 6.49239 311.625 5.43096 310.566C4.36954 309.507 3.77323 308.07 3.77323 306.572V204.661C3.77323 203.163 4.36954 201.726 5.43096 200.667C6.49239 199.608 7.93199 199.013 9.43308 199.013H111.567C113.068 199.013 114.508 199.608 115.569 200.667C116.63 201.726 117.227 203.163 117.227 204.661V306.572Z" fill="#800059"/>
<path d="M308.5 255.6C308.5 288.668 281.658 315.485 248.516 315.485C215.374 315.485 188.5 288.668 188.5 255.6C188.5 222.533 215.374 195.748 248.516 195.748C281.659 195.748 308.5 222.532 308.5 255.6Z" fill="#800059" stroke="black"/>
<path d="M248.517 298.309C224.916 298.309 205.714 279.147 205.714 255.6C205.714 232.069 224.916 212.922 248.517 212.922C272.102 212.922 291.287 232.069 291.287 255.6C291.287 279.148 272.101 298.309 248.517 298.309Z" fill="white" stroke="black"/>
<path d="M248.517 281.134C234.405 281.134 222.926 269.678 222.926 255.6C222.926 241.54 234.405 230.098 248.517 230.098C262.609 230.098 274.074 241.539 274.074 255.6C274.074 269.679 262.608 281.134 248.517 281.134Z" fill="#800059" stroke="black"/>
<path d="M248.517 263.959C243.896 263.959 240.139 260.209 240.139 255.601C240.139 251.013 243.894 247.273 248.517 247.273C253.119 247.273 256.861 251.011 256.861 255.601C256.861 260.211 253.117 263.959 248.517 263.959Z" fill="white" stroke="black"/>
<mask id="path-28-inside-2_311_2118" fill="white">
<path d="M490.579 311.17H374.42C373.084 311.17 372 312.251 372 313.585C372 314.918 373.084 316 374.42 316H490.579C491.915 316 492.999 314.918 492.999 313.585C492.999 312.251 491.915 311.17 490.579 311.17Z"/>
<path d="M379.261 306.34H408.301C409.632 306.34 410.721 305.253 410.721 303.925V300.86V296.68V284.606C410.721 283.278 409.632 282.191 408.301 282.191H379.261C377.93 282.191 376.841 283.278 376.841 284.606V296.68V300.86V303.925C376.841 305.253 377.93 306.34 379.261 306.34Z"/>
<path d="M417.981 306.34H447.02C448.351 306.34 449.44 305.253 449.44 303.925V299.095V296.68V291.851V287.021V274.946C449.44 273.618 448.351 272.531 447.02 272.531H417.981C416.65 272.531 415.561 273.618 415.561 274.946V287.021V291.851V296.68V299.095V303.925C415.561 305.253 416.65 306.34 417.981 306.34Z"/>
</mask>
<path d="M490.579 311.17H374.42C373.084 311.17 372 312.251 372 313.585C372 314.918 373.084 316 374.42 316H490.579C491.915 316 492.999 314.918 492.999 313.585C492.999 312.251 491.915 311.17 490.579 311.17Z" fill="#800059"/>
<path d="M379.261 306.34H408.301C409.632 306.34 410.721 305.253 410.721 303.925V300.86V296.68V284.606C410.721 283.278 409.632 282.191 408.301 282.191H379.261C377.93 282.191 376.841 283.278 376.841 284.606V296.68V300.86V303.925C376.841 305.253 377.93 306.34 379.261 306.34Z" fill="white"/>
<path d="M417.981 306.34H447.02C448.351 306.34 449.44 305.253 449.44 303.925V299.095V296.68V291.851V287.021V274.946C449.44 273.618 448.351 272.531 447.02 272.531H417.981C416.65 272.531 415.561 273.618 415.561 274.946V287.021V291.851V296.68V299.095V303.925C415.561 305.253 416.65 306.34 417.981 306.34Z" fill="white"/>
<path d="M415.561 303.925H413.561H415.561ZM376.841 303.925H378.841H376.841ZM490.579 309.17H374.42V313.17H490.579V309.17ZM374.42 309.17C371.983 309.17 370 311.143 370 313.585H374C374 313.36 374.184 313.17 374.42 313.17V309.17ZM370 313.585C370 316.027 371.983 318 374.42 318V314C374.184 314 374 313.81 374 313.585H370ZM374.42 318H490.579V314H374.42V318ZM490.579 318C493.016 318 494.999 316.027 494.999 313.585H490.999C490.999 313.81 490.815 314 490.579 314V318ZM494.999 313.585C494.999 311.143 493.016 309.17 490.579 309.17V313.17C490.815 313.17 490.999 313.36 490.999 313.585H494.999ZM417.981 308.34H447.02V304.34H417.981V308.34ZM447.02 308.34C449.452 308.34 451.44 306.362 451.44 303.925H447.44C447.44 304.145 447.251 304.34 447.02 304.34V308.34ZM451.44 303.925V299.095H447.44V303.925H451.44ZM451.44 299.095V296.68H447.44V299.095H451.44ZM451.44 296.68V291.851H447.44V296.68H451.44ZM451.44 291.851V287.021H447.44V291.851H451.44ZM451.44 287.021V274.946H447.44V287.021H451.44ZM451.44 274.946C451.44 272.509 449.452 270.531 447.02 270.531V274.531C447.251 274.531 447.44 274.727 447.44 274.946H451.44ZM447.02 270.531H417.981V274.531H447.02V270.531ZM417.981 270.531C415.549 270.531 413.561 272.509 413.561 274.946H417.561C417.561 274.727 417.75 274.531 417.981 274.531V270.531ZM413.561 274.946V287.021H417.561V274.946H413.561ZM413.561 287.021V291.851H417.561V287.021H413.561ZM413.561 291.851V296.68H417.561V291.851H413.561ZM413.561 296.68V299.095H417.561V296.68H413.561ZM413.561 299.095V303.925H417.561V299.095H413.561ZM413.561 303.925C413.561 306.362 415.549 308.34 417.981 308.34V304.34C417.75 304.34 417.561 304.145 417.561 303.925H413.561ZM379.261 308.34H408.301V304.34H379.261V308.34ZM408.301 308.34C410.732 308.34 412.721 306.362 412.721 303.925H408.721C408.721 304.145 408.531 304.34 408.301 304.34V308.34ZM412.721 303.925V300.86H408.721V303.925H412.721ZM412.721 300.86V296.68H408.721V300.86H412.721ZM412.721 296.68V284.606H408.721V296.68H412.721ZM412.721 284.606C412.721 282.169 410.732 280.191 408.301 280.191V284.191C408.531 284.191 408.721 284.386 408.721 284.606H412.721ZM408.301 280.191H379.261V284.191H408.301V280.191ZM379.261 280.191C376.829 280.191 374.841 282.169 374.841 284.606H378.841C378.841 284.386 379.031 284.191 379.261 284.191V280.191ZM374.841 284.606V296.68H378.841V284.606H374.841ZM374.841 296.68V300.86H378.841V296.68H374.841ZM374.841 300.86V303.925H378.841V300.86H374.841ZM374.841 303.925C374.841 306.362 376.829 308.34 379.261 308.34V304.34C379.031 304.34 378.841 304.145 378.841 303.925H374.841Z" fill="#800059" mask="url(#path-28-inside-2_311_2118)"/>
<path d="M485.74 305.342H456.701C455.92 305.342 455.281 304.701 455.281 303.927V298.283V296.682V291.852V287.022V282.192V277.363V272.533V267.703V255.628C455.281 254.854 455.92 254.213 456.701 254.213H485.74C486.521 254.213 487.16 254.854 487.16 255.628V267.703V272.533V277.363V282.192V287.022V291.852V296.682V298.283V303.927C487.16 304.701 486.521 305.342 485.74 305.342Z" fill="white" stroke="#800059" stroke-width="2"/>
<path d="M445.459 243.491L444.115 246.174L440.909 252.573C440.559 253.271 440.841 254.121 441.544 254.471C441.748 254.573 441.964 254.621 442.177 254.621C442.703 254.621 443.203 254.332 443.45 253.838L450.71 239.347C450.71 239.347 450.71 239.347 450.71 239.347C450.929 238.908 450.906 238.388 450.648 237.971L445.459 243.491ZM445.459 243.491L442.774 244.831M445.459 243.491L442.774 244.831M442.774 244.831L379.896 276.209C379.692 276.311 379.475 276.358 379.262 276.358C378.736 276.358 378.237 276.069 377.989 275.575C377.64 274.877 377.922 274.028 378.624 273.677L442.054 242.024L441.608 240.129M442.774 244.831L441.608 240.129M441.608 240.129H432.5C431.714 240.129 431.08 239.494 431.08 238.714C431.08 237.934 431.714 237.299 432.5 237.299H449.439C449.932 237.299 450.389 237.554 450.647 237.97L441.608 240.129Z" fill="#800059" stroke="#800059" stroke-width="2"/>
<path d="M448.432 217.997C448.432 205.993 458.195 196.248 470.204 196.248C482.214 196.248 492 205.994 492 217.997C492 229.976 482.214 239.723 470.204 239.723C458.194 239.723 448.432 229.977 448.432 217.997ZM478.946 223.241C478.946 220.219 477.392 217.56 475.018 216.009C475.184 216.034 475.353 216.047 475.526 216.047C477.413 216.047 478.946 214.52 478.946 212.632C478.946 209.055 476.755 206.022 473.63 204.701V203.842C473.63 201.954 472.097 200.427 470.21 200.427C468.323 200.427 466.79 201.954 466.79 203.842V204.684C463.678 206.003 461.475 209.072 461.475 212.737C461.475 215.76 463.03 218.419 465.405 219.97C465.239 219.945 465.068 219.932 464.895 219.932C463.008 219.932 461.475 221.459 461.475 223.347C461.475 226.925 463.665 229.957 466.79 231.279V232.136C466.79 234.024 468.323 235.551 470.21 235.551C472.097 235.551 473.63 234.024 473.63 232.136V231.295C476.742 229.976 478.946 226.907 478.946 223.241ZM473.145 215.083C472.214 214.754 471.208 214.574 470.157 214.574C469.164 214.574 468.315 213.772 468.315 212.632C468.315 211.645 469.116 210.795 470.263 210.795C471.281 210.795 472.106 211.621 472.106 212.632C472.106 213.594 472.505 214.463 473.145 215.083ZM467.275 220.895C468.206 221.224 469.212 221.404 470.263 221.404C471.257 221.404 472.106 222.207 472.106 223.347C472.106 224.334 471.305 225.185 470.157 225.185C469.141 225.185 468.315 224.358 468.315 223.347C468.315 222.384 467.916 221.515 467.275 220.895Z" fill="white" stroke="#800059" stroke-width="2"/>
</svg>
