<svg width="1297" height="676" viewBox="0 0 1297 676" fill="none" xmlns="http://www.w3.org/2000/svg">
<rect x="685.675" y="0.855469" width="611.325" height="674.849" fill="url(#paint0_linear_311_2012)"/>
<path fill-rule="evenodd" clip-rule="evenodd" d="M1100.96 266.408C1142.07 266.408 1175.38 234.079 1175.38 194.189C1175.38 154.3 1142.07 121.971 1100.96 121.971C1059.85 121.971 1026.54 154.3 1026.54 194.189C1026.54 234.079 1059.85 266.408 1100.96 266.408Z" fill="white"/>
<path fill-rule="evenodd" clip-rule="evenodd" d="M957.956 133.113C988.812 133.113 1013.72 108.841 1013.72 78.8994C1013.72 48.9575 988.709 24.7852 957.956 24.7852C927.1 24.7852 902.088 49.057 902.088 78.8994C902.088 108.841 927.1 133.113 957.956 133.113Z" fill="white"/>
<path d="M960.314 45.2796V49.1591C962.877 49.4575 965.132 49.9549 967.08 50.7507C968.925 51.5465 970.565 52.7402 972 54.3318C973.128 55.5255 973.948 56.8186 974.563 58.1118C975.178 59.405 975.486 60.5987 975.486 61.5934C975.486 62.7871 975.075 63.7819 974.153 64.6771C973.23 65.5724 972.205 65.9703 970.873 65.9703C968.515 65.9703 966.875 64.6771 966.26 62.1903C965.439 59.206 963.492 57.2165 960.416 56.3213V71.0435C963.389 71.8393 965.849 72.5356 967.695 73.232C969.54 73.9283 971.078 74.8236 972.513 76.1167C974.05 77.4099 975.178 79.0015 975.998 80.792C976.818 82.5826 977.228 84.5721 977.228 86.7605C977.228 89.4463 976.613 92.0327 975.281 94.3206C973.948 96.708 972 98.598 969.54 100.09C966.977 101.582 964.004 102.478 960.519 102.776V111.629C960.519 113.022 960.416 114.017 960.109 114.713C959.801 115.31 959.186 115.708 958.264 115.708C957.341 115.708 956.829 115.409 956.418 114.912C956.111 114.414 955.906 113.619 955.906 112.524V102.975C953.036 102.676 950.575 101.98 948.423 100.985C946.27 99.9907 944.527 98.797 943.092 97.3048C941.657 95.8127 940.632 94.3206 939.914 92.729C939.197 91.1374 938.889 89.5458 938.889 88.0537C938.889 86.9595 939.299 85.8653 940.222 84.97C941.144 84.0747 942.272 83.5773 943.605 83.5773C944.732 83.5773 945.655 83.7763 946.372 84.2737C947.09 84.771 947.603 85.4674 947.91 86.3626C948.525 88.2526 949.14 89.7448 949.653 90.839C950.165 91.8337 950.883 92.8285 951.908 93.6243C952.933 94.5196 954.163 95.1164 955.803 95.6138V79.101C952.523 78.2057 949.858 77.211 947.603 76.2162C945.45 75.122 943.605 73.6299 942.272 71.6404C940.939 69.6509 940.222 67.0645 940.222 63.9808C940.222 59.9024 941.554 56.5202 944.22 53.9339C946.885 51.3475 950.78 49.8554 955.803 49.358V45.578C955.803 43.5885 956.624 42.5938 958.161 42.5938C959.699 42.5938 960.519 43.5885 960.519 45.4785L960.314 45.2796ZM955.701 69.6509V56.0228C953.651 56.6197 952.011 57.4155 950.883 58.4102C949.755 59.405 949.14 60.8971 949.14 62.7871C949.14 64.6771 949.653 66.0698 950.78 67.0645C951.806 68.0593 953.446 68.8551 955.701 69.6509ZM960.314 80.1952V95.7133C962.774 95.2159 964.722 94.3206 966.055 92.8285C967.387 91.3364 968.105 89.7448 968.105 87.7553C968.105 85.6663 967.49 84.0747 966.157 82.9805C964.824 81.8863 962.979 80.8915 960.416 80.0957L960.314 80.1952ZM1104.85 139.681V145.849C1109.06 146.246 1112.75 147.142 1115.72 148.335C1118.8 149.629 1121.36 151.519 1123.61 154.105C1125.36 156.094 1126.79 158.084 1127.71 160.173C1128.64 162.262 1129.15 164.152 1129.15 165.843C1129.15 167.733 1128.43 169.424 1127 170.817C1125.56 172.209 1123.82 172.906 1121.77 172.906C1117.87 172.906 1115.41 170.916 1114.18 166.838C1112.85 162.063 1109.77 158.88 1104.75 157.288V181.162C1109.67 182.455 1113.57 183.649 1116.44 184.743C1119.31 185.837 1121.97 187.329 1124.23 189.418C1126.69 191.507 1128.53 194.094 1129.87 196.979C1131.2 199.963 1131.81 203.146 1131.81 206.628C1131.81 211.004 1130.79 215.083 1128.64 218.863C1126.48 222.643 1123.41 225.826 1119.31 228.214C1115.21 230.601 1110.29 232.093 1104.65 232.491V246.815C1104.65 249.103 1104.44 250.695 1103.93 251.789C1103.52 252.883 1102.5 253.381 1100.96 253.381C1099.52 253.381 1098.6 252.983 1097.99 252.088C1097.37 251.292 1097.17 249.899 1097.17 248.208V232.69C1092.55 232.193 1088.56 231.098 1085.07 229.507C1081.58 227.915 1078.71 225.926 1076.46 223.538C1074.2 221.151 1072.46 218.664 1071.33 216.078C1070.21 213.491 1069.69 210.905 1069.69 208.418C1069.69 206.628 1070.41 204.936 1071.95 203.444C1073.38 201.952 1075.23 201.256 1077.48 201.256C1079.23 201.256 1080.76 201.654 1081.99 202.45C1083.22 203.245 1084.04 204.34 1084.56 205.832C1085.58 209.015 1086.5 211.402 1087.32 213.093C1088.15 214.784 1089.38 216.277 1090.91 217.669C1092.55 219.062 1094.6 220.057 1097.27 220.852V194.193C1091.94 192.801 1087.53 191.209 1084.04 189.418C1080.46 187.628 1077.59 185.24 1075.43 181.958C1073.28 178.775 1072.15 174.597 1072.15 169.523C1072.15 162.958 1074.31 157.487 1078.61 153.309C1082.92 149.131 1089.17 146.644 1097.37 145.948V139.88C1097.37 136.697 1098.6 135.105 1101.06 135.105C1103.62 135.105 1104.85 136.697 1104.85 139.781V139.681ZM1097.37 179.073V157.089C1094.09 158.084 1091.43 159.278 1089.58 160.869C1087.73 162.461 1086.81 164.848 1086.81 168.031C1086.81 171.016 1087.63 173.304 1089.38 174.895C1091.12 176.487 1093.78 177.879 1097.27 179.073H1097.37ZM1104.85 196.083V221.25C1108.85 220.455 1111.93 218.962 1114.08 216.575C1116.23 214.188 1117.36 211.502 1117.36 208.418C1117.36 205.036 1116.34 202.549 1114.18 200.659C1112.03 198.869 1108.95 197.277 1104.85 195.984V196.083Z" fill="#7CC1A6"/>
<path fill-rule="evenodd" clip-rule="evenodd" d="M1260.57 507.634C1272.36 495.697 1273.38 473.713 1271.43 444.169C1257.6 443.273 1237.2 445.462 1230.02 444.169C1212.49 410.347 1187.38 384.086 1151.6 367.971C1152.83 345.888 1155.8 325.694 1169.03 315.15C1137.15 312.962 1109.98 333.951 1092.76 353.249C1077.28 337.631 1054.42 325.197 1027.36 316.543C958.469 301.721 894.4 303.114 834.226 317.239C799.987 328.181 768.516 345.39 744.016 370.259C728.127 369.065 729.87 337.731 750.577 342.804C716.953 320.522 698.399 381.5 730.997 389.358C703.832 426.96 701.269 507.733 737.558 537.376C742.889 581.941 750.987 623.721 773.232 651.772H846.425C844.477 637.349 842.529 621.93 844.272 605.119C888.762 614.867 941.555 617.752 994.553 613.574C1002.75 626.705 1010.65 640.134 1020.39 651.772H1092.86C1090.2 633.171 1087.33 613.674 1092.55 594.475C1109.98 591.292 1199.78 569.208 1260.36 507.832L1260.57 507.634Z" fill="#B33C86"/>
<path fill-rule="evenodd" clip-rule="evenodd" d="M1271.43 479.582C1272.56 469.535 1272.25 457.598 1271.43 444.169C1257.6 443.273 1237.2 445.462 1230.02 444.169C1212.49 410.347 1187.38 384.086 1151.6 367.971C1152.83 345.888 1155.9 325.694 1169.03 315.15C1137.15 312.962 1109.98 333.951 1092.76 353.249C1077.28 337.631 1054.42 325.197 1027.36 316.543C958.469 301.721 894.4 303.114 834.226 317.239C799.987 328.181 768.516 345.39 744.016 370.259C728.127 369.065 729.87 337.731 750.577 342.804C716.953 320.522 698.399 381.5 730.997 389.358C703.832 426.96 701.269 507.733 737.558 537.376C737.968 540.759 738.378 544.24 738.788 547.622C799.475 577.166 875.743 594.674 958.571 594.674C1093.07 594.674 1210.24 548.319 1271.43 479.781V479.582Z" fill="#B33C86"/>
<path fill-rule="evenodd" clip-rule="evenodd" d="M930.279 325.596C964.928 325.596 997.116 332.062 1023.36 343.203L1011.06 359.019C988.71 348.773 960.725 342.705 930.279 342.705C899.833 342.705 871.848 348.773 849.5 359.019L837.199 343.203C863.544 332.161 895.63 325.596 930.279 325.596Z" fill="#B33C86"/>
<path fill-rule="evenodd" clip-rule="evenodd" d="M1160.52 413.23C1170.46 413.23 1178.56 421.089 1178.56 430.639C1178.56 440.288 1170.56 448.146 1160.52 448.146C1150.57 448.146 1142.48 440.288 1142.48 430.639C1142.48 420.989 1150.57 413.23 1160.52 413.23Z" fill="white"/>
<path fill-rule="evenodd" clip-rule="evenodd" d="M1163.39 419.199C1167.39 419.199 1170.67 422.382 1170.67 426.262C1170.67 430.141 1167.39 433.325 1163.39 433.325C1159.39 433.325 1156.11 430.141 1156.11 426.262C1156.11 422.382 1159.39 419.199 1163.39 419.199Z" fill="#9ACFCD"/>
<path fill-rule="evenodd" clip-rule="evenodd" d="M1003.06 343.006C1019.15 326.294 1029 303.912 1029 279.243C1029 227.715 985.839 185.836 932.738 185.836C879.638 185.836 836.48 227.615 836.48 279.243C836.48 304.808 847.039 327.886 864.158 344.697C908.956 330.572 957.648 330.074 1002.96 343.006H1003.06Z" fill="white"/>
<path fill-rule="evenodd" clip-rule="evenodd" d="M928.228 333.856C931.508 333.756 934.686 333.657 937.966 333.756V333.657C945.347 333.06 951.6 331.17 956.931 328.086C962.262 324.903 966.26 320.924 969.027 315.95C971.795 311.076 973.128 305.705 973.128 300.035C973.128 295.558 972.308 291.38 970.565 287.6C968.822 283.82 966.362 280.537 963.184 277.852C960.211 275.166 956.828 273.176 953.138 271.784C949.345 270.391 944.322 268.799 937.966 267.208V236.271C944.425 238.261 948.423 242.439 950.165 248.606C951.6 253.878 954.881 256.465 959.904 256.465C962.569 256.465 964.824 255.569 966.67 253.779C968.515 251.988 969.437 249.8 969.437 247.313C969.437 245.124 968.822 242.638 967.592 239.952C966.362 237.266 964.517 234.68 962.262 232.093C959.289 228.811 955.906 226.324 952.01 224.633C948.115 223.041 943.4 221.947 937.966 221.35V213.293C937.966 209.214 936.326 207.225 933.046 207.225C929.868 207.225 928.228 209.314 928.228 213.492V221.35C917.669 222.245 909.571 225.428 903.933 230.9C898.295 236.371 895.527 243.334 895.527 251.889C895.527 258.454 896.962 263.826 899.832 268.004C902.703 272.182 906.393 275.365 911.006 277.653C915.619 279.941 921.36 281.93 928.125 283.82V318.437C924.743 317.542 921.975 316.149 919.925 314.359C917.874 312.568 916.337 310.579 915.312 308.49C914.286 306.301 913.056 303.218 911.724 299.139C911.109 297.249 909.981 295.757 908.443 294.762C906.803 293.768 904.958 293.171 902.6 293.171C899.73 293.171 897.372 294.166 895.424 296.056C893.477 297.946 892.554 300.134 892.554 302.521C892.554 305.705 893.272 309.087 894.707 312.369C896.142 315.652 898.397 318.935 901.37 322.018C904.343 325.102 908.136 327.688 912.544 329.777C917.054 331.866 922.282 333.259 928.228 333.856V333.955V333.856ZM928.228 264.423V235.973C923.922 237.266 920.54 238.858 918.182 240.847C915.824 242.837 914.594 246.02 914.594 250.098C914.594 253.978 915.722 256.962 917.977 258.951C920.232 260.941 923.615 262.831 928.228 264.423ZM937.966 286.506V319.134C943.092 318.139 947.09 316.149 949.96 313.165C952.728 310.081 954.163 306.6 954.163 302.521C954.163 298.244 952.831 294.862 950.063 292.474C947.295 290.087 943.297 288.098 937.966 286.506Z" fill="#7CC1A6"/>
<path fill-rule="evenodd" clip-rule="evenodd" d="M390.5 266.41C431.607 266.41 464.923 234.081 464.923 194.191C464.923 154.302 431.607 121.973 390.5 121.973C349.393 121.973 316.077 154.302 316.077 194.191C316.077 234.081 349.393 266.41 390.5 266.41Z" fill="url(#paint1_linear_311_2012)"/>
<path fill-rule="evenodd" clip-rule="evenodd" d="M247.498 133.115C278.353 133.115 303.263 108.843 303.263 78.9014C303.263 48.9595 278.251 24.7871 247.498 24.7871C216.642 24.7871 191.629 49.0589 191.629 78.9014C191.629 108.843 216.642 133.115 247.498 133.115Z" fill="url(#paint2_linear_311_2012)"/>
<path d="M249.855 45.2815V49.161C252.418 49.4595 254.673 49.9568 256.621 50.7526C258.466 51.5484 260.106 52.7421 261.542 54.3337C262.669 55.5274 263.489 56.8206 264.104 58.1138C264.719 59.4069 265.027 60.6006 265.027 61.5954C265.027 62.7891 264.617 63.7838 263.694 64.6791C262.772 65.5744 261.747 65.9723 260.414 65.9723C258.056 65.9723 256.416 64.6791 255.801 62.1922C254.981 59.208 253.033 57.2185 249.958 56.3232V71.0455C252.931 71.8413 255.391 72.5376 257.236 73.2339C259.081 73.9302 260.619 74.8255 262.054 76.1187C263.592 77.4119 264.719 79.0035 265.539 80.794C266.36 82.5845 266.77 84.574 266.77 86.7625C266.77 89.4483 266.155 92.0346 264.822 94.3226C263.489 96.71 261.542 98.6 259.081 100.092C256.519 101.584 253.546 102.479 250.06 102.778V111.631C250.06 113.024 249.958 114.019 249.65 114.715C249.343 115.312 248.728 115.71 247.805 115.71C246.883 115.71 246.37 115.411 245.96 114.914C245.652 114.416 245.447 113.621 245.447 112.526V102.977C242.577 102.678 240.117 101.982 237.964 100.987C235.811 99.9926 234.069 98.7989 232.633 97.3068C231.198 95.8147 230.173 94.3226 229.456 92.731C228.738 91.1394 228.431 89.5478 228.431 88.0557C228.431 86.9614 228.841 85.8672 229.763 84.9719C230.686 84.0767 231.813 83.5793 233.146 83.5793C234.274 83.5793 235.196 83.7782 235.914 84.2756C236.631 84.773 237.144 85.4693 237.452 86.3646C238.067 88.2546 238.682 89.7467 239.194 90.8409C239.707 91.8357 240.424 92.8304 241.449 93.6262C242.475 94.5215 243.705 95.1184 245.345 95.6157V79.1029C242.064 78.2077 239.399 77.2129 237.144 76.2182C234.991 75.1239 233.146 73.6318 231.813 71.6423C230.481 69.6528 229.763 67.0665 229.763 63.9828C229.763 59.9043 231.096 56.5222 233.761 53.9358C236.426 51.3495 240.322 49.8574 245.345 49.36V45.5799C245.345 43.5905 246.165 42.5957 247.703 42.5957C249.24 42.5957 250.06 43.5905 250.06 45.4805L249.855 45.2815ZM245.242 69.6528V56.0248C243.192 56.6216 241.552 57.4174 240.424 58.4122C239.297 59.4069 238.682 60.8991 238.682 62.7891C238.682 64.6791 239.194 66.0717 240.322 67.0665C241.347 68.0612 242.987 68.857 245.242 69.6528ZM249.855 80.1971V95.7152C252.316 95.2178 254.263 94.3226 255.596 92.8304C256.929 91.3383 257.646 89.7467 257.646 87.7572C257.646 85.6683 257.031 84.0767 255.698 82.9824C254.366 81.8882 252.521 80.8935 249.958 80.0977L249.855 80.1971ZM394.396 139.683V145.85C398.599 146.248 402.289 147.144 405.262 148.337C408.337 149.631 410.9 151.521 413.155 154.107C414.898 156.096 416.333 158.086 417.256 160.175C418.178 162.264 418.691 164.154 418.691 165.845C418.691 167.735 417.973 169.426 416.538 170.819C415.103 172.211 413.36 172.908 411.31 172.908C407.415 172.908 404.954 170.918 403.724 166.84C402.392 162.065 399.316 158.882 394.293 157.29V181.164C399.214 182.457 403.109 183.651 405.979 184.745C408.85 185.839 411.515 187.331 413.77 189.42C416.231 191.509 418.076 194.096 419.408 196.98C420.741 199.965 421.356 203.148 421.356 206.63C421.356 211.006 420.331 215.085 418.178 218.865C416.026 222.645 412.95 225.828 408.85 228.216C404.749 230.603 399.829 232.095 394.191 232.493V246.817C394.191 249.105 393.986 250.697 393.473 251.791C393.063 252.885 392.038 253.383 390.5 253.383C389.065 253.383 388.143 252.985 387.527 252.089C386.912 251.294 386.707 249.901 386.707 248.21V232.692C382.094 232.195 378.096 231.1 374.611 229.509C371.126 227.917 368.255 225.928 366 223.54C363.745 221.153 362.002 218.666 360.875 216.08C359.747 213.493 359.234 210.907 359.234 208.42C359.234 206.63 359.952 204.938 361.49 203.446C362.925 201.954 364.77 201.258 367.025 201.258C368.768 201.258 370.306 201.656 371.536 202.452C372.766 203.247 373.586 204.342 374.099 205.834C375.124 209.017 376.046 211.404 376.866 213.095C377.686 214.786 378.917 216.279 380.454 217.671C382.094 219.064 384.145 220.059 386.81 220.854V194.195C381.479 192.803 377.071 191.211 373.586 189.42C369.998 187.63 367.128 185.242 364.975 181.96C362.822 178.777 361.695 174.599 361.695 169.525C361.695 162.96 363.847 157.489 368.153 153.311C372.458 149.133 378.712 146.646 386.912 145.95V139.882C386.912 136.699 388.143 135.107 390.603 135.107C393.166 135.107 394.396 136.699 394.396 139.783V139.683ZM386.912 179.075V157.091C383.632 158.086 380.967 159.28 379.122 160.871C377.276 162.463 376.354 164.85 376.354 168.033C376.354 171.018 377.174 173.305 378.917 174.897C380.659 176.489 383.325 177.881 386.81 179.075H386.912ZM394.396 196.085V221.252C398.394 220.457 401.469 218.964 403.622 216.577C405.774 214.19 406.902 211.504 406.902 208.42C406.902 205.038 405.877 202.551 403.724 200.661C401.571 198.87 398.496 197.279 394.396 195.986V196.085Z" fill="white"/>
<path fill-rule="evenodd" clip-rule="evenodd" d="M550.11 507.635C561.899 495.699 562.924 473.715 560.976 444.171C547.137 443.275 526.738 445.464 519.562 444.171C502.032 410.349 476.917 384.088 441.141 367.973C442.371 345.89 445.344 325.696 458.568 315.152C426.687 312.963 399.521 333.953 382.3 353.251C366.821 337.633 343.961 325.199 316.898 316.545C248.01 301.723 183.941 303.115 123.767 317.241C89.5285 328.183 58.0577 345.392 33.5575 370.261C17.6684 369.067 19.411 337.733 40.1182 342.806C6.49467 320.524 -12.0598 381.502 20.5387 389.36C-6.62672 426.961 -9.1895 507.735 27.0994 537.378C32.4299 581.943 40.5283 623.722 62.7732 651.774H135.966C134.018 637.351 132.071 621.932 133.813 605.121C178.303 614.869 231.096 617.754 284.094 613.576C292.295 626.707 300.188 640.136 309.927 651.774H382.402C379.737 633.173 376.867 613.676 382.095 594.477C399.521 591.294 489.321 569.21 549.905 507.834L550.11 507.635Z" fill="#B33C86"/>
<path fill-rule="evenodd" clip-rule="evenodd" d="M560.976 479.584C562.104 469.537 561.796 457.6 560.976 444.171C547.137 443.275 526.738 445.464 519.562 444.171C502.032 410.349 476.917 384.088 441.141 367.973C442.371 345.89 445.446 325.696 458.568 315.152C426.687 312.963 399.521 333.953 382.3 353.251C366.821 337.633 343.961 325.199 316.898 316.545C248.01 301.723 183.941 303.115 123.767 317.241C89.5285 328.183 58.0577 345.392 33.5575 370.261C17.6684 369.067 19.411 337.733 40.1182 342.806C6.49467 320.524 -12.0598 381.502 20.5387 389.36C-6.62672 426.961 -9.1895 507.735 27.0994 537.378C27.5094 540.761 27.9194 544.242 28.3295 547.624C89.016 577.168 165.284 594.676 248.113 594.676C382.607 594.676 499.777 548.321 560.976 479.783V479.584Z" fill="#B33C86"/>
<path fill-rule="evenodd" clip-rule="evenodd" d="M219.82 325.598C254.469 325.598 286.658 332.064 312.9 343.205L300.599 359.021C278.252 348.775 250.266 342.707 219.82 342.707C189.375 342.707 161.389 348.775 139.042 359.021L126.741 343.205C153.086 332.163 185.172 325.598 219.82 325.598Z" fill="#B33C86"/>
<path fill-rule="evenodd" clip-rule="evenodd" d="M450.059 413.232C460.002 413.232 468.101 421.091 468.101 430.64C468.101 440.29 460.105 448.148 450.059 448.148C440.115 448.148 432.017 440.29 432.017 430.64C432.017 420.991 440.115 413.232 450.059 413.232Z" fill="white"/>
<path fill-rule="evenodd" clip-rule="evenodd" d="M452.929 419.201C456.927 419.201 460.207 422.384 460.207 426.264C460.207 430.143 456.927 433.327 452.929 433.327C448.931 433.327 445.651 430.143 445.651 426.264C445.651 422.384 448.931 419.201 452.929 419.201Z" fill="#9ACFCD"/>
<path fill-rule="evenodd" clip-rule="evenodd" d="M292.602 343.008C308.696 326.296 318.537 303.914 318.537 279.245C318.537 227.717 275.38 185.838 222.28 185.838C169.179 185.838 126.022 227.617 126.022 279.245C126.022 304.81 136.581 327.888 153.7 344.699C198.497 330.574 247.19 330.076 292.5 343.008H292.602Z" fill="url(#paint3_linear_311_2012)"/>
<path fill-rule="evenodd" clip-rule="evenodd" d="M217.769 333.858C221.05 333.758 224.228 333.659 227.508 333.758V333.659C234.889 333.062 241.142 331.172 246.472 328.088C251.803 324.905 255.801 320.926 258.569 315.952C261.337 311.078 262.669 305.707 262.669 300.036C262.669 295.56 261.849 291.382 260.106 287.602C258.364 283.822 255.903 280.539 252.726 277.854C249.753 275.168 246.37 273.178 242.68 271.786C238.887 270.393 233.864 268.801 227.508 267.21V236.273C233.966 238.263 237.964 242.441 239.707 248.608C241.142 253.88 244.422 256.467 249.445 256.467C252.111 256.467 254.366 255.571 256.211 253.781C258.056 251.99 258.979 249.802 258.979 247.315C258.979 245.126 258.364 242.64 257.134 239.954C255.903 237.268 254.058 234.682 251.803 232.095C248.83 228.813 245.447 226.326 241.552 224.635C237.656 223.043 232.941 221.949 227.508 221.352V213.295C227.508 209.216 225.868 207.227 222.587 207.227C219.41 207.227 217.769 209.316 217.769 213.493V221.352C207.211 222.247 199.112 225.43 193.474 230.902C187.836 236.373 185.068 243.336 185.068 251.891C185.068 258.456 186.504 263.828 189.374 268.006C192.244 272.184 195.935 275.367 200.548 277.655C205.161 279.943 210.901 281.932 217.667 283.822V318.439C214.284 317.544 211.516 316.151 209.466 314.361C207.416 312.57 205.878 310.581 204.853 308.492C203.828 306.303 202.598 303.22 201.265 299.141C200.65 297.251 199.522 295.759 197.985 294.764C196.345 293.77 194.499 293.173 192.142 293.173C189.271 293.173 186.914 294.167 184.966 296.057C183.018 297.947 182.096 300.136 182.096 302.523C182.096 305.707 182.813 309.089 184.248 312.371C185.683 315.654 187.939 318.937 190.912 322.02C193.884 325.104 197.677 327.69 202.085 329.779C206.596 331.868 211.824 333.261 217.769 333.858V333.957V333.858ZM217.769 264.425V235.975C213.464 237.268 210.081 238.86 207.723 240.849C205.366 242.839 204.135 246.022 204.135 250.1C204.135 253.98 205.263 256.964 207.518 258.953C209.774 260.943 213.156 262.833 217.769 264.425ZM227.508 286.508V319.136C232.633 318.141 236.631 316.151 239.502 313.167C242.269 310.083 243.705 306.602 243.705 302.523C243.705 298.246 242.372 294.864 239.604 292.476C236.836 290.089 232.838 288.099 227.508 286.508Z" fill="white"/>
<defs>
<linearGradient id="paint0_linear_311_2012" x1="685.675" y1="0.855469" x2="868.549" y2="776.695" gradientUnits="userSpaceOnUse">
<stop stop-color="#7CC1A6"/>
<stop offset="1" stop-color="#9ACFCD"/>
</linearGradient>
<linearGradient id="paint1_linear_311_2012" x1="316.077" y1="121.973" x2="350.9" y2="290.035" gradientUnits="userSpaceOnUse">
<stop stop-color="#7CC1A6"/>
<stop offset="1" stop-color="#9ACFCD"/>
</linearGradient>
<linearGradient id="paint2_linear_311_2012" x1="191.629" y1="24.7871" x2="217.746" y2="150.834" gradientUnits="userSpaceOnUse">
<stop stop-color="#7CC1A6"/>
<stop offset="1" stop-color="#9ACFCD"/>
</linearGradient>
<linearGradient id="paint3_linear_311_2012" x1="126.022" y1="185.838" x2="158.967" y2="372.815" gradientUnits="userSpaceOnUse">
<stop stop-color="#7CC1A6"/>
<stop offset="1" stop-color="#9ACFCD"/>
</linearGradient>
</defs>
</svg>
