<svg width="1039" height="392" viewBox="0 0 1039 392" fill="none" xmlns="http://www.w3.org/2000/svg">
<path fill-rule="evenodd" clip-rule="evenodd" d="M245.384 151.065C271.215 151.065 292.15 130.853 292.15 105.913C292.15 80.9742 271.215 60.7615 245.384 60.7615C219.553 60.7615 198.618 80.9742 198.618 105.913C198.618 130.853 219.553 151.065 245.384 151.065Z" fill="url(#paint0_linear_415_2796)"/>
<path fill-rule="evenodd" clip-rule="evenodd" d="M155.524 67.7279C174.913 67.7279 190.566 52.5529 190.566 33.8329C190.566 15.1128 174.848 0 155.524 0C136.134 0 120.417 15.175 120.417 33.8329C120.417 52.5529 136.134 67.7279 155.524 67.7279Z" fill="url(#paint1_linear_415_2796)"/>
<path d="M157.005 12.8128V15.2383C158.616 15.4249 160.033 15.7359 161.257 16.2334C162.416 16.731 163.447 17.4773 164.349 18.4724C165.057 19.2187 165.573 20.0272 165.959 20.8357C166.346 21.6442 166.539 22.3905 166.539 23.0124C166.539 23.7587 166.281 24.3807 165.701 24.9404C165.122 25.5001 164.477 25.7489 163.64 25.7489C162.159 25.7489 161.128 24.9404 160.741 23.3856C160.226 21.5198 159.002 20.2759 157.07 19.7162V28.9207C158.938 29.4183 160.484 29.8536 161.643 30.289C162.803 30.7243 163.769 31.2841 164.671 32.0926C165.637 32.9011 166.346 33.8962 166.861 35.0156C167.376 36.1351 167.634 37.3789 167.634 38.7472C167.634 40.4264 167.247 42.0434 166.41 43.4738C165.573 44.9665 164.349 46.1481 162.803 47.081C161.192 48.0139 159.324 48.5736 157.134 48.7602V54.2954C157.134 55.1661 157.07 55.788 156.876 56.2233C156.683 56.5965 156.297 56.8453 155.717 56.8453C155.137 56.8453 154.815 56.6587 154.557 56.3477C154.364 56.0368 154.235 55.5392 154.235 54.8551V48.8846C152.432 48.698 150.886 48.2627 149.533 47.6407C148.18 47.0188 147.085 46.2725 146.183 45.3396C145.281 44.4067 144.637 43.4738 144.186 42.4788C143.735 41.4837 143.542 40.4886 143.542 39.5557C143.542 38.8716 143.8 38.1875 144.38 37.6277C144.959 37.068 145.668 36.757 146.505 36.757C147.214 36.757 147.794 36.8814 148.245 37.1924C148.696 37.5033 149.018 37.9387 149.211 38.4984C149.597 39.6801 149.984 40.613 150.306 41.2971C150.628 41.919 151.079 42.5409 151.723 43.0385C152.367 43.5982 153.14 43.9714 154.171 44.2823V33.9583C152.11 33.3986 150.435 32.7767 149.018 32.1548C147.665 31.4706 146.505 30.5377 145.668 29.2939C144.831 28.05 144.38 26.433 144.38 24.505C144.38 21.9551 145.217 19.8406 146.892 18.2236C148.567 16.6066 151.014 15.6737 154.171 15.3627V12.9994C154.171 11.7555 154.686 11.1336 155.652 11.1336C156.619 11.1336 157.134 11.7555 157.134 12.9372L157.005 12.8128ZM154.106 28.05V19.5296C152.818 19.9028 151.787 20.4003 151.079 21.0223C150.37 21.6442 149.984 22.5771 149.984 23.7587C149.984 24.9404 150.306 25.8111 151.014 26.433C151.659 27.0549 152.689 27.5525 154.106 28.05ZM157.005 34.6425V44.3445C158.551 44.0336 159.775 43.4738 160.613 42.5409C161.45 41.6081 161.901 40.613 161.901 39.3691C161.901 38.0631 161.514 37.068 160.677 36.3839C159.84 35.6997 158.68 35.0778 157.07 34.5803L157.005 34.6425ZM247.832 71.8337V75.6897C250.473 75.9385 252.792 76.4982 254.66 77.2445C256.593 78.053 258.203 79.2347 259.62 80.8517C260.715 82.0955 261.617 83.3394 262.197 84.6454C262.777 85.9515 263.099 87.1331 263.099 88.1904C263.099 89.3721 262.648 90.4294 261.746 91.3001C260.844 92.1708 259.749 92.6061 258.461 92.6061C256.013 92.6061 254.467 91.3623 253.694 88.8123C252.857 85.8271 250.924 83.8369 247.768 82.8418V97.7681C250.86 98.5766 253.308 99.3229 255.111 100.007C256.915 100.691 258.59 101.624 260.007 102.93C261.553 104.236 262.712 105.853 263.55 107.657C264.387 109.523 264.774 111.513 264.774 113.689C264.774 116.426 264.129 118.976 262.777 121.339C261.424 123.702 259.491 125.693 256.915 127.185C254.338 128.678 251.246 129.611 247.703 129.86V138.815C247.703 140.246 247.574 141.241 247.252 141.925C246.995 142.609 246.351 142.92 245.384 142.92C244.482 142.92 243.903 142.671 243.516 142.112C243.13 141.614 243.001 140.743 243.001 139.686V129.984C240.102 129.673 237.59 128.989 235.4 127.994C233.21 126.999 231.406 125.755 229.989 124.262C228.572 122.77 227.477 121.215 226.768 119.598C226.059 117.981 225.737 116.364 225.737 114.809C225.737 113.689 226.188 112.632 227.155 111.699C228.056 110.766 229.216 110.331 230.633 110.331C231.728 110.331 232.694 110.58 233.467 111.077C234.24 111.575 234.756 112.259 235.078 113.192C235.722 115.182 236.302 116.675 236.817 117.732C237.332 118.789 238.105 119.722 239.072 120.593C240.102 121.464 241.391 122.085 243.065 122.583V105.915C239.716 105.045 236.946 104.05 234.756 102.93C232.501 101.811 230.697 100.318 229.345 98.2656C227.992 96.2755 227.283 93.6634 227.283 90.4916C227.283 86.3868 228.636 82.9662 231.342 80.3541C234.047 77.742 237.976 76.1872 243.13 75.7519V71.9581C243.13 69.9679 243.903 68.9729 245.449 68.9729C247.059 68.9729 247.832 69.9679 247.832 71.8959V71.8337ZM243.13 96.4621V82.7175C241.068 83.3394 239.394 84.0857 238.234 85.0808C237.075 86.0759 236.495 87.5685 236.495 89.5587C236.495 91.4244 237.01 92.8549 238.105 93.85C239.2 94.845 240.875 95.7157 243.065 96.4621H243.13ZM247.832 107.097V122.832C250.344 122.334 252.277 121.401 253.63 119.909C254.982 118.416 255.691 116.737 255.691 114.809C255.691 112.694 255.047 111.14 253.694 109.958C252.341 108.838 250.409 107.843 247.832 107.035V107.097Z" fill="white"/>
<path fill-rule="evenodd" clip-rule="evenodd" d="M345.681 301.883C353.089 294.42 353.733 280.675 352.509 262.204C343.813 261.644 330.994 263.012 326.485 262.204C315.469 241.058 299.687 224.639 277.206 214.564C277.979 200.757 279.847 188.132 288.157 181.54C268.123 180.172 251.053 193.294 240.231 205.36C230.504 195.595 216.14 187.821 199.134 182.41C155.846 173.144 115.586 174.014 77.7734 182.846C56.2583 189.687 36.4825 200.446 21.087 215.995C11.1025 215.248 12.1976 195.658 25.2097 198.829C4.08115 184.898 -7.57819 223.022 12.9062 227.936C-4.16413 251.444 -5.77454 301.945 17.0288 320.478C20.3785 348.341 25.4674 374.462 39.4457 392H85.4389C84.215 382.982 82.9911 373.342 84.0862 362.832C112.043 368.927 145.217 370.73 178.52 368.118C183.674 376.327 188.634 384.723 194.753 392H240.296C238.621 380.37 236.817 368.18 240.102 356.177C251.053 354.187 307.482 340.38 345.552 302.007L345.681 301.883Z" fill="#B33C86"/>
<path fill-rule="evenodd" clip-rule="evenodd" d="M352.509 284.344C353.217 278.063 353.024 270.6 352.509 262.204C343.813 261.644 330.994 263.012 326.485 262.204C315.469 241.058 299.687 224.639 277.206 214.564C277.979 200.757 279.912 188.132 288.157 181.54C268.123 180.172 251.053 193.294 240.231 205.36C230.504 195.595 216.14 187.821 199.134 182.41C155.846 173.144 115.586 174.014 77.7734 182.846C56.2583 189.687 36.4825 200.446 21.087 215.995C11.1025 215.248 12.1976 195.658 25.2097 198.829C4.08115 184.898 -7.57819 223.022 12.9062 227.936C-4.16413 251.444 -5.77454 301.945 17.0288 320.478C17.2865 322.593 17.5442 324.77 17.8018 326.884C55.9362 345.355 103.862 356.301 155.91 356.301C240.424 356.301 314.052 327.32 352.509 284.469V284.344Z" fill="#B33C86"/>
<path fill-rule="evenodd" clip-rule="evenodd" d="M138.132 188.071C159.904 188.071 180.131 192.113 196.622 199.079L188.892 208.967C174.849 202.562 157.263 198.768 138.132 198.768C119 198.768 101.414 202.562 87.3717 208.967L79.6418 199.079C96.1968 192.175 116.359 188.071 138.132 188.071Z" fill="#B33C86"/>
<path fill-rule="evenodd" clip-rule="evenodd" d="M282.81 242.861C289.058 242.861 294.147 247.774 294.147 253.745C294.147 259.777 289.123 264.691 282.81 264.691C276.562 264.691 271.473 259.777 271.473 253.745C271.473 247.712 276.562 242.861 282.81 242.861Z" fill="white"/>
<path fill-rule="evenodd" clip-rule="evenodd" d="M284.614 246.593C287.126 246.593 289.187 248.583 289.187 251.009C289.187 253.434 287.126 255.424 284.614 255.424C282.101 255.424 280.04 253.434 280.04 251.009C280.04 248.583 282.101 246.593 284.614 246.593Z" fill="#9ACFCD"/>
<path fill-rule="evenodd" clip-rule="evenodd" d="M183.867 198.955C193.98 188.507 200.164 174.513 200.164 159.089C200.164 126.873 173.045 100.69 139.677 100.69C106.309 100.69 79.1902 126.811 79.1902 159.089C79.1902 175.073 85.8251 189.502 96.5826 200.012C124.733 191.181 155.33 190.87 183.802 198.955H183.867Z" fill="url(#paint2_linear_415_2796)"/>
<path fill-rule="evenodd" clip-rule="evenodd" d="M136.843 193.234C138.904 193.172 140.901 193.109 142.962 193.172V193.109C147.6 192.736 151.53 191.555 154.879 189.627C158.229 187.636 160.741 185.149 162.481 182.039C164.22 178.992 165.057 175.633 165.057 172.088C165.057 169.29 164.542 166.677 163.447 164.314C162.352 161.951 160.806 159.898 158.809 158.219C156.941 156.54 154.815 155.296 152.496 154.425C150.113 153.555 146.956 152.56 142.962 151.565V132.223C147.021 133.466 149.533 136.079 150.628 139.935C151.53 143.231 153.591 144.848 156.748 144.848C158.422 144.848 159.839 144.288 160.999 143.169C162.158 142.049 162.738 140.681 162.738 139.126C162.738 137.758 162.352 136.203 161.579 134.524C160.806 132.845 159.646 131.228 158.229 129.611C156.361 127.558 154.235 126.003 151.787 124.946C149.34 123.951 146.376 123.267 142.962 122.894V117.856C142.962 115.306 141.932 114.062 139.87 114.062C137.874 114.062 136.843 115.368 136.843 117.98V122.894C130.208 123.453 125.119 125.444 121.576 128.864C118.033 132.285 116.294 136.638 116.294 141.987C116.294 146.092 117.196 149.45 119 152.062C120.803 154.674 123.122 156.664 126.021 158.095C128.92 159.525 132.527 160.769 136.778 161.951V183.594C134.653 183.034 132.913 182.163 131.625 181.044C130.337 179.924 129.371 178.681 128.726 177.375C128.082 176.006 127.309 174.078 126.472 171.528C126.085 170.347 125.377 169.414 124.411 168.792C123.38 168.17 122.22 167.797 120.739 167.797C118.935 167.797 117.454 168.419 116.23 169.6C115.006 170.782 114.426 172.15 114.426 173.643C114.426 175.633 114.877 177.748 115.779 179.8C116.681 181.852 118.098 183.905 119.966 185.833C121.834 187.761 124.217 189.378 126.987 190.684C129.822 191.99 133.107 192.861 136.843 193.234V193.296V193.234ZM136.843 149.823V132.036C134.137 132.845 132.012 133.84 130.53 135.083C129.049 136.327 128.276 138.318 128.276 140.867C128.276 143.293 128.984 145.159 130.401 146.403C131.818 147.646 133.944 148.828 136.843 149.823ZM142.962 163.63V184.029C146.183 183.407 148.695 182.163 150.499 180.298C152.238 178.37 153.14 176.193 153.14 173.643C153.14 170.969 152.303 168.854 150.564 167.362C148.824 165.869 146.312 164.625 142.962 163.63Z" fill="white"/>
<path d="M638.055 341C633.735 341 631.575 338.84 631.575 334.52V245.96C631.575 241.64 633.735 239.48 638.055 239.48H672.183C682.647 239.48 690.711 241.832 696.375 246.536C702.135 251.144 705.015 257.624 705.015 265.976C705.015 271.544 703.575 276.296 700.695 280.232C697.815 284.168 693.831 287.048 688.743 288.872C694.599 290.408 699.159 293.24 702.423 297.368C705.783 301.496 707.463 306.728 707.463 313.064C707.463 322.088 704.535 329 698.679 333.8C692.823 338.6 684.567 341 673.911 341H638.055ZM643.095 284.84H670.455C685.719 284.84 693.351 278.888 693.351 266.984C693.351 254.984 685.719 248.984 670.455 248.984H643.095V284.84ZM643.095 331.496H672.759C688.119 331.496 695.799 325.304 695.799 312.92C695.799 300.536 688.119 294.344 672.759 294.344H643.095V331.496ZM752.071 342.296C735.271 342.296 726.871 333.032 726.871 314.504V275.912C726.871 271.976 728.791 270.008 732.631 270.008C736.567 270.008 738.535 271.976 738.535 275.912V314.36C738.535 320.6 739.783 325.208 742.279 328.184C744.871 331.16 748.903 332.648 754.375 332.648C760.327 332.648 765.175 330.68 768.919 326.744C772.663 322.712 774.535 317.384 774.535 310.76V275.912C774.535 271.976 776.503 270.008 780.439 270.008C784.279 270.008 786.199 271.976 786.199 275.912V335.96C786.199 339.992 784.327 342.008 780.583 342.008C776.743 342.008 774.823 339.992 774.823 335.96V329.192C772.615 333.416 769.495 336.68 765.463 338.984C761.527 341.192 757.063 342.296 752.071 342.296ZM834.662 342.296C828.422 342.296 822.95 340.808 818.246 337.832C813.638 334.856 810.038 330.68 807.446 325.304C804.95 319.832 803.702 313.4 803.702 306.008C803.702 298.52 804.95 292.088 807.446 286.712C810.038 281.24 813.638 277.064 818.246 274.184C822.95 271.208 828.422 269.72 834.662 269.72C840.134 269.72 844.934 270.92 849.062 273.32C853.286 275.72 856.406 279.032 858.422 283.256V244.376C858.422 240.44 860.39 238.472 864.326 238.472C868.166 238.472 870.086 240.44 870.086 244.376V335.96C870.086 339.992 868.166 342.008 864.326 342.008C860.486 342.008 858.566 339.992 858.566 335.96V328.472C856.454 332.792 853.286 336.2 849.062 338.696C844.934 341.096 840.134 342.296 834.662 342.296ZM837.11 332.936C843.638 332.936 848.87 330.632 852.806 326.024C856.742 321.32 858.71 314.648 858.71 306.008C858.71 297.272 856.742 290.6 852.806 285.992C848.87 281.384 843.638 279.08 837.11 279.08C830.486 279.08 825.206 281.384 821.27 285.992C817.43 290.6 815.51 297.272 815.51 306.008C815.51 314.648 817.43 321.32 821.27 326.024C825.206 330.632 830.486 332.936 837.11 332.936ZM918.615 342.296C912.375 342.296 906.903 340.808 902.199 337.832C897.591 334.856 893.991 330.68 891.399 325.304C888.903 319.832 887.655 313.4 887.655 306.008C887.655 298.52 888.903 292.088 891.399 286.712C893.991 281.24 897.591 277.064 902.199 274.184C906.903 271.208 912.375 269.72 918.615 269.72C924.087 269.72 928.887 270.92 933.015 273.32C937.239 275.72 940.359 279.032 942.375 283.256V244.376C942.375 240.44 944.343 238.472 948.279 238.472C952.119 238.472 954.039 240.44 954.039 244.376V335.96C954.039 339.992 952.119 342.008 948.279 342.008C944.439 342.008 942.519 339.992 942.519 335.96V328.472C940.407 332.792 937.239 336.2 933.015 338.696C928.887 341.096 924.087 342.296 918.615 342.296ZM921.063 332.936C927.591 332.936 932.823 330.632 936.759 326.024C940.695 321.32 942.663 314.648 942.663 306.008C942.663 297.272 940.695 290.6 936.759 285.992C932.823 281.384 927.591 279.08 921.063 279.08C914.439 279.08 909.159 281.384 905.223 285.992C901.383 290.6 899.463 297.272 899.463 306.008C899.463 314.648 901.383 321.32 905.223 326.024C909.159 330.632 914.439 332.936 921.063 332.936ZM991.48 367.928C989.272 367.928 987.784 367.064 987.016 365.336C986.248 363.704 986.296 361.832 987.16 359.72L995.944 339.848L969.448 278.216C968.488 276.008 968.44 274.088 969.304 272.456C970.264 270.824 972.04 270.008 974.632 270.008C977.32 270.008 979.288 271.544 980.536 274.616L1002.28 327.752L1024.17 274.616C1024.94 272.888 1025.75 271.688 1026.62 271.016C1027.48 270.344 1028.73 270.008 1030.36 270.008C1032.57 270.008 1034.06 270.824 1034.82 272.456C1035.59 274.088 1035.54 275.96 1034.68 278.072L997.816 363.32C997.048 365.048 996.184 366.248 995.224 366.92C994.36 367.592 993.112 367.928 991.48 367.928Z" fill="black"/>
<path d="M420.382 146.008C416.734 146.008 414.91 144.088 414.91 140.248V48.232C414.91 44.392 416.734 42.472 420.382 42.472C421.918 42.472 423.118 42.808 423.982 43.48C424.942 44.056 425.806 45.064 426.574 46.504L463.87 116.776L501.022 46.504C501.79 45.064 502.606 44.056 503.47 43.48C504.334 42.808 505.582 42.472 507.214 42.472C510.766 42.472 512.542 44.392 512.542 48.232V140.248C512.542 144.088 510.718 146.008 507.07 146.008C503.422 146.008 501.598 144.088 501.598 140.248V65.656L469.054 126.856C468.382 128.104 467.662 129.016 466.894 129.592C466.222 130.072 465.214 130.312 463.87 130.312C462.526 130.312 461.47 130.024 460.702 129.448C459.934 128.872 459.262 128.008 458.686 126.856L425.71 65.8V140.248C425.71 144.088 423.934 146.008 420.382 146.008ZM565.313 146.296C558.497 146.296 552.593 144.808 547.601 141.832C542.609 138.856 538.721 134.68 535.937 129.304C533.249 123.832 531.905 117.4 531.905 110.008C531.905 102.616 533.249 96.232 535.937 90.856C538.721 85.384 542.609 81.16 547.601 78.184C552.593 75.208 558.497 73.72 565.313 73.72C572.033 73.72 577.889 75.208 582.881 78.184C587.969 81.16 591.857 85.384 594.545 90.856C597.329 96.232 598.721 102.616 598.721 110.008C598.721 117.4 597.329 123.832 594.545 129.304C591.857 134.68 587.969 138.856 582.881 141.832C577.889 144.808 572.033 146.296 565.313 146.296ZM565.313 136.936C571.841 136.936 577.073 134.632 581.009 130.024C584.945 125.32 586.913 118.648 586.913 110.008C586.913 101.272 584.945 94.6 581.009 89.992C577.073 85.384 571.841 83.08 565.313 83.08C558.689 83.08 553.409 85.384 549.473 89.992C545.633 94.6 543.713 101.272 543.713 110.008C543.713 118.648 545.633 125.32 549.473 130.024C553.409 134.632 558.689 136.936 565.313 136.936ZM622.001 146.008C618.161 146.008 616.241 143.992 616.241 139.96V79.912C616.241 75.976 618.113 74.008 621.857 74.008C625.697 74.008 627.617 75.976 627.617 79.912V86.968C629.921 82.552 633.185 79.24 637.409 77.032C641.633 74.824 646.385 73.72 651.665 73.72C668.273 73.72 676.577 82.936 676.577 101.368V139.96C676.577 143.992 674.657 146.008 670.817 146.008C666.881 146.008 664.913 143.992 664.913 139.96V102.088C664.913 95.56 663.617 90.808 661.025 87.832C658.529 84.76 654.497 83.224 648.929 83.224C642.497 83.224 637.361 85.24 633.521 89.272C629.777 93.208 627.905 98.488 627.905 105.112V139.96C627.905 143.992 625.937 146.008 622.001 146.008ZM729.621 146.296C718.581 146.296 709.845 143.08 703.413 136.648C696.981 130.12 693.765 121.288 693.765 110.152C693.765 102.952 695.205 96.616 698.085 91.144C700.965 85.576 704.901 81.304 709.893 78.328C714.981 75.256 720.837 73.72 727.461 73.72C736.965 73.72 744.405 76.792 749.781 82.936C755.157 88.984 757.845 97.336 757.845 107.992C757.845 110.968 756.165 112.456 752.805 112.456H705.141C705.525 120.424 707.829 126.52 712.053 130.744C716.277 134.872 722.133 136.936 729.621 136.936C732.789 136.936 736.005 136.552 739.269 135.784C742.533 134.92 745.701 133.432 748.773 131.32C750.981 129.88 752.805 129.592 754.245 130.456C755.781 131.32 756.549 132.664 756.549 134.488C756.645 136.216 755.685 137.752 753.669 139.096C750.501 141.4 746.709 143.176 742.293 144.424C737.973 145.672 733.749 146.296 729.621 146.296ZM727.749 82.36C721.125 82.36 715.893 84.424 712.053 88.552C708.213 92.68 705.957 98.104 705.285 104.824H747.765C747.477 97.72 745.605 92.2 742.149 88.264C738.789 84.328 733.989 82.36 727.749 82.36ZM789.434 171.928C787.226 171.928 785.738 171.064 784.97 169.336C784.202 167.704 784.25 165.832 785.114 163.72L793.898 143.848L767.402 82.216C766.442 80.008 766.394 78.088 767.258 76.456C768.218 74.824 769.994 74.008 772.586 74.008C775.274 74.008 777.242 75.544 778.49 78.616L800.234 131.752L822.122 78.616C822.89 76.888 823.706 75.688 824.57 75.016C825.434 74.344 826.682 74.008 828.314 74.008C830.522 74.008 832.01 74.824 832.778 76.456C833.546 78.088 833.498 79.96 832.634 82.072L795.77 167.32C795.002 169.048 794.138 170.248 793.178 170.92C792.314 171.592 791.066 171.928 789.434 171.928Z" fill="black"/>
<defs>
<linearGradient id="paint0_linear_415_2796" x1="198.618" y1="60.7615" x2="220.288" y2="165.88" gradientUnits="userSpaceOnUse">
<stop stop-color="#7CC1A6"/>
<stop offset="1" stop-color="#9ACFCD"/>
</linearGradient>
<linearGradient id="paint1_linear_415_2796" x1="120.417" y1="0" x2="136.67" y2="78.8388" gradientUnits="userSpaceOnUse">
<stop stop-color="#7CC1A6"/>
<stop offset="1" stop-color="#9ACFCD"/>
</linearGradient>
<linearGradient id="paint2_linear_415_2796" x1="79.1902" y1="100.69" x2="99.6898" y2="217.626" gradientUnits="userSpaceOnUse">
<stop stop-color="#7CC1A6"/>
<stop offset="1" stop-color="#9ACFCD"/>
</linearGradient>
</defs>
</svg>
